<?xml version="1.0" encoding="UTF-8"?>
<svg id="Layer_2" data-name="Layer 2" xmlns="http://www.w3.org/2000/svg" viewBox="0 0 735.0233 637.16033">
  <defs>
    <style>
      .cls-1 {
        fill: #e5d5df;
      }

      .cls-1, .cls-2, .cls-3, .cls-4, .cls-5, .cls-6, .cls-7, .cls-8, .cls-9, .cls-10, .cls-11, .cls-12, .cls-13, .cls-14, .cls-15, .cls-16, .cls-17, .cls-18, .cls-19, .cls-20, .cls-21, .cls-22, .cls-23, .cls-24, .cls-25, .cls-26, .cls-27, .cls-28, .cls-29, .cls-30, .cls-31, .cls-32, .cls-33, .cls-34, .cls-35, .cls-36, .cls-37, .cls-38, .cls-39, .cls-40, .cls-41, .cls-42, .cls-43, .cls-44, .cls-45, .cls-46, .cls-47, .cls-48, .cls-49, .cls-50, .cls-51, .cls-52, .cls-53, .cls-54, .cls-55, .cls-56, .cls-57, .cls-58, .cls-59, .cls-60, .cls-61, .cls-62, .cls-63, .cls-64, .cls-65, .cls-66, .cls-67, .cls-68, .cls-69, .cls-70, .cls-71, .cls-72, .cls-73, .cls-74, .cls-75, .cls-76, .cls-77, .cls-78, .cls-79, .cls-80, .cls-81, .cls-82, .cls-83, .cls-84, .cls-85, .cls-86, .cls-87, .cls-88, .cls-89, .cls-90, .cls-91, .cls-92, .cls-93, .cls-94, .cls-95, .cls-96, .cls-97, .cls-98, .cls-99, .cls-100, .cls-101, .cls-102, .cls-103, .cls-104 {
        stroke-width: 0px;
      }

      .cls-2 {
        fill: #feadb3;
      }

      .cls-3 {
        fill: #da627b;
      }

      .cls-4 {
        fill: #db7185;
      }

      .cls-5 {
        fill: #f5adb4;
      }

      .cls-6 {
        fill: #060b26;
      }

      .cls-7 {
        fill: #fefdfd;
      }

      .cls-8 {
        fill: #cdc1cb;
      }

      .cls-9 {
        fill: #cc5971;
      }

      .cls-10 {
        fill: #f1dbd2;
      }

      .cls-11 {
        fill: #ee8396;
      }

      .cls-12 {
        fill: #fafafb;
      }

      .cls-13 {
        fill: #eb8c9d;
      }

      .cls-14 {
        fill: #fbfbf7;
      }

      .cls-15 {
        fill: #050927;
      }

      .cls-16 {
        fill: #d5bcc7;
      }

      .cls-17 {
        fill: #fcfcfa;
      }

      .cls-18 {
        fill: #070b27;
      }

      .cls-19 {
        fill: #fd90a4;
      }

      .cls-20 {
        fill: #f6fafb;
      }

      .cls-21 {
        fill: #d08094;
      }

      .cls-22 {
        fill: #d45774;
      }

      .cls-23 {
        fill: #e1d5dc;
      }

      .cls-24 {
        fill: #fdb4ba;
      }

      .cls-25 {
        fill: #e06780;
      }

      .cls-26 {
        fill: #fdfefd;
      }

      .cls-27 {
        fill: #fa9bab;
      }

      .cls-28 {
        fill: #fdfcfa;
      }

      .cls-29 {
        fill: #fb5f72;
      }

      .cls-30 {
        fill: #050c25;
      }

      .cls-31 {
        fill: #d5c3c7;
      }

      .cls-32 {
        fill: #f7fafb;
      }

      .cls-33 {
        fill: #060825;
      }

      .cls-34 {
        fill: #f996a0;
      }

      .cls-35 {
        fill: #6c2e57;
      }

      .cls-36 {
        fill: #fdcbcf;
      }

      .cls-37 {
        fill: #5f617d;
      }

      .cls-38 {
        fill: #fe6174;
      }

      .cls-39 {
        fill: #fbfdfd;
      }

      .cls-40 {
        fill: #cc5876;
      }

      .cls-41 {
        fill: #fefdfc;
      }

      .cls-42 {
        fill: #fdabb2;
      }

      .cls-43 {
        fill: #d14e70;
      }

      .cls-44 {
        fill: #fe6277;
      }

      .cls-45 {
        fill: #d9849e;
      }

      .cls-46 {
        fill: #fda6af;
      }

      .cls-47 {
        fill: #faa6b8;
      }

      .cls-48 {
        fill: #d06075;
      }

      .cls-49 {
        fill: #060b25;
      }

      .cls-50 {
        fill: #fdb5bc;
      }

      .cls-51 {
        fill: #e3d6de;
      }

      .cls-52 {
        fill: #dec6c2;
      }

      .cls-53 {
        fill: #f9f7fa;
      }

      .cls-54 {
        fill: #d55b79;
      }

      .cls-55 {
        fill: #dac6cc;
      }

      .cls-56 {
        fill: #d25b76;
      }

      .cls-57 {
        fill: #ef7992;
      }

      .cls-58 {
        fill: #cd607a;
      }

      .cls-59 {
        fill: #da667b;
      }

      .cls-60 {
        fill: #f892a8;
      }

      .cls-61 {
        fill: #feb4bb;
      }

      .cls-62 {
        fill: #e1a26d;
      }

      .cls-63 {
        fill: #cdc0bf;
      }

      .cls-64 {
        fill: #db6e81;
      }

      .cls-65 {
        fill: #fcfdfd;
      }

      .cls-66 {
        fill: #f6c8ca;
      }

      .cls-67 {
        fill: #d2bbcb;
      }

      .cls-68 {
        fill: #e2c3b9;
      }

      .cls-69 {
        fill: #ea7490;
      }

      .cls-70 {
        fill: #d96488;
      }

      .cls-71 {
        fill: #050a26;
      }

      .cls-72 {
        fill: #e7708a;
      }

      .cls-73 {
        fill: #fdced5;
      }

      .cls-74 {
        fill: #f65b76;
      }

      .cls-75 {
        fill: #dbe2e7;
      }

      .cls-76 {
        fill: #fb9e43;
      }

      .cls-77 {
        fill: #fdfcf9;
      }

      .cls-78 {
        fill: #dc6a83;
      }

      .cls-79 {
        fill: #cb5a75;
      }

      .cls-80 {
        fill: #f9c6ce;
      }

      .cls-81 {
        fill: #edeff8;
      }

      .cls-82 {
        fill: #cfa5b4;
      }

      .cls-83 {
        fill: #feaeb3;
      }

      .cls-84 {
        fill: #d9afa5;
      }

      .cls-85 {
        fill: #dd7087;
      }

      .cls-86 {
        fill: #f6fbfb;
      }

      .cls-87 {
        fill: #f8c6cd;
      }

      .cls-88 {
        fill: #dab2a2;
      }

      .cls-89 {
        fill: #77193d;
      }

      .cls-90 {
        fill: #f78c9d;
      }

      .cls-91 {
        fill: #e1d4dd;
      }

      .cls-92 {
        fill: #c7637a;
      }

      .cls-93 {
        fill: #fda0a8;
      }

      .cls-94 {
        fill: #b74668;
      }

      .cls-95 {
        fill: #faa3b0;
      }

      .cls-96 {
        fill: #e4c2b8;
      }

      .cls-97 {
        fill: #dd6981;
      }

      .cls-98 {
        fill: #b43157;
      }

      .cls-99 {
        fill: #fefefc;
      }

      .cls-100 {
        fill: #fefefe;
      }

      .cls-101 {
        fill: #ddbec8;
      }

      .cls-102 {
        fill: #f89fa9;
      }

      .cls-103 {
        fill: #fcfbfb;
      }

      .cls-104 {
        fill: #f6c9d2;
      }
    </style>
  </defs>
  <g id="Layer_1-2" data-name="Layer 1">
    <g>
      <path class="cls-30" d="M613.7155,602.80141c13.09301,1.13432,24.82298,1.92903,36.49718,3.22555,11.19217,1.243,22.41973,2.67835,32.67079,7.88095,5.03826,2.55703,5.06695,4.92379.38787,8.14439-4.66712,3.21218-10.31641,3.96858-15.48912,4.58346-19.40173,2.30622-38.79309,4.72997-58.38381,5.51053-14.75573.58803-29.5333,1.1694-44.26584,2.05456-11.98829.72033-23.96401-.07805-35.8859.82297-15.79478,1.19375-31.60122.4254-47.38515.97492-58.10853,2.02319-116.23061.40123-174.3439.88088-22.49064.18564-45.00668.62031-67.46879-.20821-15.6367-.57674-31.26422-.31476-46.88252-.85299-21.23068-.73156-42.47744-1.72332-63.64228-3.22768-18.95586-1.34729-38.0617-1.8306-56.86559-5.40942-5.67003-1.07921-11.51525-1.28187-17.04735-3.19412-.92935-.32129-1.99797-.41216-2.78732-.93434-2.5964-1.71795-6.5548-3.18735-6.26474-6.44383.25316-2.84189,4.3056-3.55557,6.96852-4.64448,10.12407-4.13975,21.00506-4.55734,31.6419-5.94307,11.48434-1.49607,23.07024-2.21237,35.12489-3.31574-2.91152-2.90944-6.672-2.28761-9.68431-3.22366-15.07574-4.68488-28.14955-12.84965-39.48132-23.34066-10.66784-9.87638-18.31875-22.1369-23.06476-36.18458-3.30469-9.78155-3.89425-19.79962-3.91486-29.82544-.16438-79.97226-.11372-159.94489-.04295-239.9174.00345-3.90377-.48006-5.54397-5.18532-6.7888-14.64621-3.87469-25.67793-12.75787-33.20015-26.3706C1.04722,228.59714.16748,219.77151.13007,210.68094c-.15074-36.65346-.2134-73.30902.05207-109.96116.06073-8.38568.97878-16.7511,5.49132-24.45179,6.00435-10.24649,14.82267-16.89756,25.51109-21.00149,13.53444-5.19669,27.78654-7.47581,42.24226-8.24325,5.18922-.27549,6.23321-4.76372,7.86268-7.94294,7.04843-13.7518,17.65867-23.34246,31.81624-29.23636C129.36873,3.07354,146.39366.07156,163.90753.06324,300.86043-.00182,437.81348-.06361,574.7662.13325c18.78075.027,36.91214,4.36249,53.40157,13.65544,11.34613,6.39444,19.97774,15.95369,26.0276,27.41609,2.64777,5.01654,6.68835,5.45643,11.02802,5.74432,16.22067,1.07601,31.83391,4.78532,46.10102,12.44643,12.99366,6.97737,20.43359,18.39027,22.73718,33.21762.93117,5.99366.81235,11.92483.82273,17.88746.06096,34.98786.31787,69.97912-.07427,104.96268-.23067,20.58335-10.27882,35.49519-28.77612,44.64111-1.63251.8072-3.12351,1.99814-4.82968,2.54293-10.25222,3.2737-10.2668,3.22787-10.26674,13.86116.00079,80.13916.08452,160.27845-.07628,240.41725-.02807,13.9908-4.74077,26.71663-11.90298,38.80471-7.2358,12.21238-15.96095,22.84057-27.90799,30.52393-8.44591,5.43181-16.93075,10.90366-27.0888,12.91714-3.03479.60158-5.90017,2.05785-10.24593,3.62989Z"/>
      <path class="cls-83" d="M291.92111,350.83268c2.30958-3.06249,4.61915-6.12498,6.92876-9.18748,1.80982.16452,2.44984-1.52383,3.64683-2.32428,2.08101-1.39159,3.74556-1.60823,5.53421.70922,3.31205,4.29127,9.76821,4.80705,13.6097,1.28926,1.2577-1.15171,2.59129-2.26527,4.27519-2.42534,9.20132-.8746,18.2784-4.04272,27.6916-1.18008,3.68454,1.12046,7.62818,1.07268,11.40237.2693,9.89858-2.10698,19.82908-2.0689,29.79973-.81949,2.863.35882,4.78831-.46452,6.86441-2.79411,3.69-4.1406,8.44755-7.24294,12.34186-11.27633,1.31964-1.36694,3.56399-2.30109,5.50211-.93715,2.48899,1.7517,3.25649,4.53097,3.39001,7.44725.07054,1.54104-.71197,2.87673-1.34649,4.23989-3.84885,8.26815-.10307,14.1328,9.20749,14.0251,2.80686-.03253,5.23659.34472,7.46092,2.00403.26826.30964.53658.61921.80485.92885,1.20266,4.97938,3.13621,9.51316,7.63038,12.48357,2.18869,2.3,4.87246,4.17118,6.24154,7.1843.73119,2.84439-.14127,4.88314-2.98774,5.93294-.46659.17215-1.11375.27351-1.3338.62934-3.92574,6.34839-9.2748,4.71063-14.82798,2.87368-2.52401-.83487-5.27699-.41008-7.9305-.4409-2.50827-.02911-4.91213-.30378-7.24343-1.44609-5.97974-2.93007-12.65162.74852-13.87668,7.56167-.3241,1.80222-.22445,3.64399-.32117,5.46684-.06755,1.27412-.79661,2.92574.57607,3.68726,1.60475.8904,3.22188-.07183,4.61622-1.02441.82327-.56252,1.40306-1.40563,2.07085-2.14481,1.12443-1.24489,2.29456-2.63953,4.21285-1.84482,2.0631.85464,2.17142,2.72619,1.97876,4.63758-.3576,3.54891-1.52176,6.70123-5.47245,7.35236-3.33576.54983-5.69891,2.34241-7.86423,4.66486-1.42863.29853-2.37743-.43437-3.18374-1.47263-2.50571-3.4813-4.32929-7.60164-8.70587-9.34669-2.33093-.66083-4.04351-2.15043-5.45036-4.05358-.61732-1.89742-2.00098-2.08232-3.67059-1.62977-3.19766-.15543-5.98688-1.39794-8.56716-3.19827-.97577-1.47428-2.36254-1.63367-3.92952-1.20962-1.32233-.04925-2.5811-.48966-3.84729-.78276-1.29282-.29914-1.24883.13261-.99576,1.06847-4.77312,2.59163-10.25942,2.86984-15.21048,4.84122-5.95128-.05163-8.8952,3.9748-11.47624,8.48588-1.85437,3.56124-4.43263,6.61482-6.90828,9.72681-6.01489,7.56088-9.00245,16.53459-12.03378,25.48761-1.13907,3.36413-.79688,6.87857-.7329,10.35047-.67718,1.81083-1.69229,1.72161-2.96778.56282-1.12345-1.02069-.71816-2.89382-2.47898-4.00049-.32617,4.79246,1.80469,7.60354,5.83466,9.25082,2.35534,2.60133,4.74327,5.15244,8.4795,5.7149,1.06636.47416,2.18216.8746,2.93196,1.8389,1.08803,1.39928,1.7895,2.98206.66849,4.57601-1.09343,1.55477-2.77257,1.04754-4.07518.32898-4.37872-2.41545-8.95744-3.22085-13.95915-2.85074-3.97489.29401-6.04479-1.85519-6.57933-5.95741-.34506-2.64802-.28297-5.33454-.15009-7.9886.21865-4.36865-2.36096-7.53385-4.41487-10.9169-1.08449-1.78623-2.93165-1.34509-4.52725-.89205-3.09996.88027-6.18979,1.14066-9.38662.6294-3.2455-.51907-5.90352.80326-8.02026,3.15958-2.67325,2.97578-5.69125,3.41863-9.4845,2.28858-7.35034-2.18973-8.8497-1.33868-12.21237,5.7672-2.05736,4.34754-4.35034,4.63526-7.14057.76225-2.05282-2.84946-4.71099-5.14097-6.94493-7.83055-1.5735-1.89449-4.21353-2.79502-5.59001.4279-1.33273,3.12059-3.12336,5.08111-6.72009,4.67353-3.84994-.43632-6.3933-2.5826-7.83573-6.1162-.31525-.77226-.4748-1.59859-.75877-2.37975-1.49808-4.12138-2.95671-4.8862-6.63966-2.63001-2.84671,1.74388-5.07546,1.57363-7.79789-.14762-3.06118-1.93538-6.81614-2.5851-9.6215-5.15208-1.47455-1.34918-3.38622-.55019-4.62919.4553-5.50257,4.45128-12.88308,3.33216-18.852,6.62776-3.37094,1.86129-7.08721-.32855-10.05459-1.98987-2.43419,13.00599-4.14143,25.78468-3.36547,38.75985.08903,1.4888-.01382,3.02386-.78718,4.37567-.7819,1.36676-1.67444,1.50394-2.59096.07823-1.07378-2.37408-.84643-4.90072-.85238-7.38354-.03189-13.31618.0054-26.63236-.02749-39.94854-.00696-2.81132.23738-5.7185-2.03799-7.96047-1.08769-2.4052.89202-2.76726,2.33255-3.19613,2.46995-.73528,4.91021-1.61634,7.46241-2.02807,1.98334.09495,3.8861-.57442,5.85297-.70922q5.67636-.38903,5.13349-6.06066c.13718-2.89931,1.76478-5.52213,1.53973-8.48417.79725-5.22848-2.55044-7.58108-6.57674-9.46056-4.29768-2.44291-8.39828-5.12883-13.09569-6.94655-7.76842-3.00617-15.43554-3.04724-23.31255-.98279-2.06945.5425-4.13261,1.21438-6.32618,1.03125-3.64576-.41167-11.41628,4.35199-12.31941,7.57003-.18548.66089-.17383,1.30402.18533,1.92,1.82083,3.12242,1.26359,6.37415.74077,9.71771-.52624,3.36529-.14862,6.13902,4.33978,6.86307,3.63728.58669,9.05316,9.91037,8.55215,13.65218-.32456,2.42394-2.0267,3.44029-4.16416,3.56167-4.97163.28242-10.00705.90206-14.77069-1.27766-2.15706-.987-4.43184-1.37701-6.77075-1.60481-2.57361-.25069-5.06614-.87191-5.9261-3.73846-.87524-2.9175-.28616-5.53128,1.91882-7.8206,1.21931-1.26588,4.47584-2.16831,2.6622-4.37677-1.86926-2.27614-4.94516-1.84506-7.12257.31464-2.32311,2.30427-5.00014,2.98816-8.16099,2.95594-3.45324-.03521-5.34962,1.97547-5.0227,5.40405.47358,4.96669-.60409,8.76549-5.6498,10.97652-2.62246,1.14914-2.18132,4.27974-2.79758,6.63417-.86051,3.28743-.81784,3.29859-3.4447,3.88943-1.66907-7.73376-1.51398-15.63168-.36814-23.27402,1.9275-12.85569,2.55967-25.7668,3.28645-38.69297.17732-3.15372-.20474-6.34064.27976-9.47655.97614-6.31819,4.98112-8.61782,10.70581-5.84348,3.02403,1.46549,5.91483,1.51883,9.15006,1.36816,7.84688-.36541,11.40128-4.55624,14.40661-14.02436,1.57845-3.99134,4.87933-6.07134,8.57772-7.70776,3.9218-.47599,6.25005-2.00305,4.62614-6.51706-.50757-1.41082-.13581-2.96577.27116-4.42107,1.13712-4.06628,2.73986-4.53445,5.72497-1.46677,2.65644,2.72985,5.51578,5.2867,7.65369,8.49961.81305,1.22182,1.62855,2.56405,3.38021,2.63972,4.93028,6.7531,9.5826,13.73053,15.73699,19.49554.50427,7.0379,6.00751,10.3974,10.73184,14.18046,2.20504,1.76567,4.69983,3.1323,6.25066,5.60994,2.40938,5.64003,7.85504,5.06487,12.51255,6.09941,5.60478,1.67096,10.88714,4.42925,16.83976,4.90469,3.68137,1.68164,7.5761,1.74523,11.50824,1.51541,13.17829.0033,26.18446-.69793,38.74982-5.53628,13.28822-5.11668,23.74084-13.848,33.13799-24.14935,2.77244-3.25868,4.67621-7.02228,6.29606-10.94948Z"/>
      <path class="cls-61" d="M438.22978,349.87246c-4.36096-1.73552-8.99152.7213-13.56009-1.36926-6.31843-2.89138-8.70886-8.5419-5.08599-14.48473,1.0271-1.68475,2.88296-3.28914,2.02966-5.33802-.85885-2.06212-.87209-5.5621-3.07335-5.83359-2.97138-.36645-5.84354,1.82407-7.08233,4.65229-1.19729,2.73339-2.59981,4.42736-5.67267,4.74151-1.28443.13126-2.58797.94886-2.83054,2.47459-.86019,5.41137-4.93666,4.61208-8.42632,4.08568-8.77776-1.3241-17.54562-1.55227-26.21595.2588-6.00211,1.2538-11.87832,1.20913-17.72742-.22432-4.47877-1.09764-8.78868-1.04943-13.26964-.01526-3.03347.70013-6.11897,1.39641-9.34476,1.2123-2.57527-.14695-5.04785.57369-5.96745,3.46263-.90657,2.84799-3.25731,2.85971-5.28535,2.30762-2.64835-.72112-4.97279-2.45536-8.00421-1.1489-1.08553.46787-1.51022-.86465-1.69174-1.92043-.22829-1.32776.58199-3.38031-1.72024-3.47672-1.67285-.06999-2.51611,1.36383-3.19128,2.76201-1.42528,2.95143-2.45191,2.18478-3.26024-.37353,6.63618-11.26437,11.66932-23.16772,13.08294-36.2539,3.78428-35.0315-6.98084-64.50428-34.0647-87.57912.63721-2.27638,2.63279-2.26125,4.39623-2.52411,1.80942-.26979,3.64911-.17047,5.47666-.17062,52.01647-.00424,104.03295-.01959,156.04939.03533,3.22732.00339,6.72607-.79414,9.46543,1.89019-10.29725,9.50312-19.71619,19.73542-25.39643,32.76546-13.04907,29.93336-13.05005,59.48243,3.15354,88.38904,2.23507,3.98725,4.80302,7.78795,7.21682,11.67506Z"/>
      <path class="cls-103" d="M36.17294,145.33757c-1.65882-7.72754.98297-14.55778,6.1374-19.72975,18.9186-18.98303,28.80498-43.74222,42.90913-65.78927,3.04289-4.75652,5.81533-9.70505,8.43237-14.71146,8.48206-16.22619,22.8533-23.88933,39.83988-28.09904,11.60811-2.87678,23.37561-3.21366,35.21543-3.21214,135.13881.01748,270.27762-.00047,405.41646.05294,15.81175.00625,31.17833,2.41883,45.41908,9.8556,8.79069,4.59066,15.6255,11.1418,20.55722,19.79423,11.61147,20.37145,23.41199,40.63518,35.00038,61.0196,4.04736,7.11946,8.46171,13.88172,14.19168,19.80627,6.4251,6.64326,10.50913,14.19837,7.43382,23.88542-1.54739,6.68149-7.20468,9.84882-11.85752,13.88538-6.25948,4.20898-12.96406,7.32414-20.51499,8.4002-8.075,2.33344-16.4298,2.87262-24.68604,2.85928-51.12799-.0826-102.2522.56609-153.37977.53106-129.58294-.08879-259.16597-.03536-388.74895-.01486-8.01248.00128-15.94693-.81031-23.86292-1.81638-12.65643-2.73726-23.76872-8.32859-32.89588-17.70485-2.51593-2.58455-4.57068-5.2387-4.60678-9.01225Z"/>
      <path class="cls-42" d="M403.6332,406.08562c1.52743-3.14024,3.14499-5.54404,7.4918-5.52506,3.78099.01654,6.25008-4.36816,5.67859-8.26223-.13279-.90474-.55623-1.67773-1.38927-1.88168-1.44377-.35345-2.13017.75096-2.5469,1.84939-1.51706,3.99915-4.88363,4.62025-8.4918,4.63606-1.77958.00781-3.64338-.341-2.07707-2.89718,1.03753-1.69323.88912-3.60951.62165-5.3465-1.06151-6.89444,3.88692-10.1519,8.199-13.65676,2.49326-2.02661,5.1475-.44901,7.29737,1.06426,1.55459,1.09422,2.95521,2,4.93312,1.90859,5.99884-.27717,11.95692-.168,17.5635,2.44371.44242.20608.97889.42149,1.42766.35132.61738-.09648,1.71899-.4841,1.70934-.70788-.24465-5.65241,9.43901-3.41509,7.91481-9.99067,1.94508-.81632,3.19424.55312,4.34741,1.61238,12.29548,11.29378,27.0265,17.06275,43.35201,19.27316,5.97864.87087,11.94667.94905,17.90615-.09977,8.1716-.52993,16.00025-2.57656,23.69215-5.28902,1.85122-.65277,3.70367-1.51907,5.76927-1.22445,3.39824,4.45665-1.5123,5.59298-3.26179,8.08074,1.0252,1.00574,2.20297,1.80015,3.4708,2.48075,1.1633-.80802,1.62049-2.0905,2.45451-3.07488,4.23885-5.00251,4.21627-5.02167-1.64917-6.68299-.66461-2.60072,1.62806-3.06316,3.05303-3.68762,9.56527-4.19101,16.4896-11.46886,23.09039-19.19933,2.29322-2.68567,1.67639-6.85404,4.8198-9.04065l1.87209-1.41185c3.59181,3.35193,3.89797,5.15427,1.33148,9.414-1.87539,3.11265-4.16757,5.9399-5.17539,9.57785-.9225,3.33008.04876,4.66212,3.45335,4.59053,7.29121-.15348,14.58022-.28004,21.87723-.01025,10.49393.38805,14.43755,6.04797,11.13426,16.25095-2.00854,1.49887-2.99927-.36242-4.14823-1.35504-12.04004-10.40216-25.57455-10.85203-39.81603-5.84372-3.42979,1.20614-6.73089,2.91683-9.58925,5.29219-7.98341,6.63441-8.84275,10.76556-4.23873,20.43036.90761,3.56118,4.01831,4.14329,6.88363,5.06079,2.09556,1.09178,4.81754,1.5054,5.04241,4.6335.1428,8.47209.03838,16.94076.02258,25.40932-.00311,1.66095-.07353,3.32782-.82492,4.8616-2.9048,2.38824-2.83634-.68737-3.26002-1.99408-1.34009-4.13267-1.04894-8.51127-1.39464-13.17003q-3.07079,6.90493-10.7935,5.8159c-.66071-.09324-1.37554-.30622-1.98127-.10588-7.51364,2.48466-15.6061.02337-23.10198,2.76665-3.30085,1.20797-6.45701.54739-9.62574-1.00208-6.51651-3.18619-13.08105-4.60286-19.92233-.42259-4.06097,2.4813-8.38623,2.6723-12.77611.11167-3.48868-2.03503-7.47044-2.17563-11.10088-.52511-7.98164,3.62861-16.75933,2.14677-24.97621,4.23385-2.54507.64631-4.71368-1.11766-6.66071-2.80192-3.22237-2.7877-4.99323-2.2145-6.11101,1.83591-.5566,2.01715-.05071,3.93099.35589,5.89889,1.13791,5.50791-.89229,8.23996-6.54885,8.63289-3.17392.22042-6.27736.44596-9.22872,1.81992-1.77122.82468-3.75041,1.93233-5.59346.28724-1.72509-1.53988-1.41301-3.58779-.83298-5.57839.23433-.80448.25984-1.64075.37786-2.46092.58644-2.57229,2.16672-5.00751,1.06688-7.81614,1.79734-12.17558-3.98975-22.15143-9.32258-32.26866-1.19284-2.26302-3.30103-4.34845-1.77049-7.29103Z"/>
      <path class="cls-90" d="M71.97846,170.14778c25.37955,3.1479,50.883,1.73616,76.3229,1.75893,164.12967.14704,328.25961.04317,492.38944-.06084,8.45238-.00534,16.86447-1.13831,25.19816-2.65177-.22109,2.31739-2.10984,2.83332-3.82926,3.34635-5.6175,1.67618-11.34436,2.6201-17.23727,2.14133-28.00911-2.2755-56.06374-.65342-84.09372-1.14286-.65869.27012-.00708,1.25929-.19131.61872-.04003-.13926.06822-.17233.22292-.26649,1.38146-.84122,2.88967-.35717,4.32227-.36013,19.30214-.04,38.60452-.06707,57.90654-.00128,5.47861.01867,10.94478.62635,16.4356.53338,1.65692-.0281,3.42302.19531,4.79368,1.16028,4.2527,2.99415,8.99061,5.01334,13.67066,7.17063,1.03485.47703,2.12138,1.07723,2.0238,2.53531-2.97358.25923-5.94716.7448-8.92073.74516-154.39692.01913-308.79381-.0101-463.1907-.0148-32.64483-.00098-65.28965.08034-97.9345.10313-6.32302.00442-12.65594.0717-18.90509-1.16608-3.27363-4.39813-2.85408-10.36127,1.0166-14.44897Z"/>
      <path class="cls-24" d="M585.83668,344.77018c5.2289-8.79851,9.95814-17.87126,11.91872-27.99564,7.5585-39.03214-1.88668-72.45959-32.98989-98.60428-.74358-.6251-1.33868-1.42689-2.00305-2.14628,1.37304-1.29847,3.08757-1.02063,4.73412-1.00479,28.12951.2707,56.25981.02343,84.38944.1359,3.12962.01251,6.36523-.40279,9.23086,1.4373,1.94014,1.65329,2.3728,3.92964,2.56228,6.29289.15988,1.99451.12266,3.9957.12272,5.99464.00226,90.29488.00244,180.58979-.00128,270.88469-.00006,1.99842.11619,4.00995-.18094,5.98914-.26478,1.76421-.25734,3.77531-2.58064,4.35492-2.03204-1.71642-1.89846-4.12992-1.90486-6.4071-.0404-14.36384-.15988-28.72811.03082-43.08664.659-7.12236.07646-14.25394.06609-21.38405-.03039-20.92045-.01764-41.84096-.00574-62.76141.00366-6.37714-1.85183-12.0376-5.91268-17.01802-2.0357-2.49668-4.36047-4.00684-7.66816-3.55447-.80625-.16647-1.99506-.41222-1.87594-1.27211.93446-6.74517-5.8511-8.7669-8.1738-13.5095-.778-1.58833-2.20223-1.40844-3.01074.21657-1.60072,3.21731-4.08165,5.61903-6.84702,7.79851-2.17105,1.71105-1.72155,3.34509.23781,4.86349,2.78459,2.15793,5.45054,4.55984,7.02026,7.66938,1.19619,2.36969,3.33026.42338,4.5455,1.68793,1.48447,3.77916-.17111,6.53458-3.17477,8.49467-3.10014,2.02313-5.07903-.64185-7.44945-2.1176-8.49283-5.28706-12.15019-12.63973-10.52914-22.62058.37023-2.27913-.17886-4.63014-.63288-6.91775-1.00842-5.08086-3.70111-6.64582-8.84885-6.27999-5.8068.41271-9.33417,4.01825-12.67103,7.95863-1.82895,2.1597-4.04376,3.39294-6.60884,4.15647-.83871.24959-2.13621.49484-1.78892-1.25496Z"/>
      <path class="cls-50" d="M111.05113,348.03308c.66983,6.72796-6.07438,15.24753-12.55536,15.9213-4.83747.5029-9.53952,1.84171-14.08579-1.87338-3.08475-2.5209-5.62065-.31836-6.79862,2.97443-.48729,1.36218-.55089,2.93037-.5494,4.40459.0161,15.77832-1.34329,31.40902-3.72286,47.02873-1.11643,7.32838-.23317,14.96139-.25615,22.4563,1.81168,1.63764,1.7385,3.86899,1.74611,5.99439.04748,13.23697.1666,26.47431-.03033,39.71079-.69969,6.47502.41377,12.94869.03317,19.4256-.12646,2.15152.11422,4.33399-.62219,6.42943-.23482.63489-.61137,1.16885-1.12338,1.60939-.72136.15958-1.28938-.06652-1.7087-.67364-1.37005-2.27217-1.17787-4.81443-1.1786-7.29585-.02612-88.93187-.04154-177.86375.01936-266.79556.00478-6.96135,1.53814-13.91223.14856-20.88588.65073-4.21694-1.76286-8.9421,2.05462-12.63933,2.94789,1.36965,2.16641,4.17264,2.23891,6.45613.11245,3.54135,1.72663,4.9911,5.17081,5.02457,6.24067.06066,12.47772-.02569,18.70798-.16425,3.28393,1.22478,1.4056,2.89889.00992,3.78264-3.69265,2.33811-2.63427,4.18872.09451,6.36801,1.94026,1.54946,3.57253,3.4589,4.82877,5.63539,1.60911,2.78782,3.26146,3.1515,5.0181.14228,1.35248-2.31693,3.17783-4.24474,5.12075-6.04925,2.00992-1.8667,3.3544-3.59987.90486-6.22165-1.61804-1.7318-.10734-2.56585,1.46067-3.13636,13.97172-.97343,27.94293-.44154,41.90858-.28632,1.70046.01892,3.8111.11488,4.2329,2.58138-19.95501,16.7908-32.00102,37.77071-34.2443,64.06753-1.74791,20.49002,1.59071,39.8311,12.28319,57.63792-2.20529,1.50583-3.50668-.33313-4.34161-1.63752-2.62104-4.09471-6.65909-6.80931-9.92638-11.21451-.87887,2.99109-2.21078,5.09911-1.48892,7.9255,1.52008,5.95137,1.27931,6.16105-5.38311,7.21378.94456-3.68445-.21221-6.03876-3.44972-8.46288-4.72614-3.53878-9.28528-7.56234-11.8697-13.19749-1.43115-3.12053-2.88615-2.08129-4.01385.17447-3.05022,6.10149-7.94612,10.60043-13.01816,14.87687-2.65677,2.23995-2.82805,4.0138.16187,5.67701,5.55683,3.09117,9.46875,7.72967,12.7241,13.01674,1.79559,2.91628,3.18867,2.65052,5.07503-.05096,1.66977-2.39135,2.46761-5.95198,6.42438-5.95033Z"/>
      <path class="cls-2" d="M643.95095,354.96748c2.45133.85983,4.31068-3.23794,6.34601-1.35028,3.25417,3.01794,6.78569,6.24361,8.30403,10.42571,1.59511,4.39355,2.48673,9.0426,2.43889,13.97646-.26454,27.31443-.1475,54.63257-.1611,81.94944-4.19259-.38286-4.30842-3.75725-4.37469-6.61958-.12351-5.34125-1.01758-10.59799-1.29761-15.91324-.13309-2.52676-1.35363-4.63984-4.04113-3.5588-6.3908,2.57082-12.49821.22921-18.67536-.52774-3.76909-.46183-6.31556-.37066-5.46836,4.55422.36407,2.11668-.56893,4.01251-2.73876,4.81095-2.6482.97443-5.4276.32392-6.67182-1.95771-2.92622-5.36639-7.25618-4.89291-11.94692-3.67639-5.0069,1.29859-9.46769,3.34229-11.07342,8.91079-.2303.79838-.76793,1.63447-.54147,2.40532,1.45878,4.96785-1.19204,9.34693-1.71185,13.95016-.98658,8.73639-4.21835,17.04139-3.93519,26.04146.37615,11.95608-2.41283,23.79102-2.14432,35.82319.10942,4.90139-2.85312,8.81596-7.07659,11.39771-1.39513.85293-3.26436,2.04974-4.51065-.47751,4.34107-5.99366,3.51077-12.91348,3.47251-19.66207-.17532-30.9146.43504-61.83195-.32257-92.74441-.01635-.66803.10112-1.32343.27705-1.96705.56167-1.66565,2.10216-2.06817,3.4719-2.69305,1.35772-.45292,2.75395-.51571,4.1644-.3648,5.15543,1.67175,9.87454.3828,14.26601-2.35406,3.04406-1.89718,5.47831-4.57027,9.1738-5.67798,3.20974-.96204,2.07915-4.48484,2.54458-6.98915,1.32581-3.44975-.46866-7.2499,1.19046-10.65883.03515-1.82364-.05852-3.66065.12949-5.46837.57912-5.56765-2.66156-9.46263-8.39831-9.55685-8.07586-.13254-16.1555-.0335-24.23349-.03649-6.66822-.0025-6.53653.02929-4.91841-6.28536.7581-2.95851,1.75694-5.59493,3.89687-7.86228,3.05785-3.24007,4.30293-6.88815,1.49674-11.00343.45103-3.19131,3.19888-4.76537,4.95515-7.03742,3.08068-.56209,6.34991-.81553,7.29304-4.71063.2549-1.05273.99384-1.73699,2.03289-1.97968,3.38763-.7913,4.9153-2.66394,3.19619-6.87607,2.59474,3.01672,4.70367,2.64326,7.42748,1.49362,5.25716-2.2189,10.08666.97797,11.29493,6.29445,1.31568,5.7888.66028,11.56821.82529,17.34926.09294,3.25698,1.10447,5.60976,4.14994,7.29829,2.25478,1.2502,4.00861,3.37744,6.08208,4.98988,1.45738,1.13328,2.30475,3.83426,4.765,2.71173,2.54836-1.16263,4.00147-3.38586,4.03167-6.33375.00683-.66473.00806-1.32941.0119-1.99414.25179-4.6825,2.32447-7.06353,7.00373-8.04553Z"/>
      <path class="cls-65" d="M661.01735,510.06054c1.18643-1.44206.8309-3.17325.83096-4.80375.00458-93.96038-.00287-187.92076-.05858-281.88111-.00128-2.12983-.5699-4.2593-.87392-6.38894.00653-.26985.01312-.53967.01782-.81034,3.23214-4.28969,10.18924-6.23504,14.94204-4.17948.09709,34.96312.25673,69.92621.27766,104.88936.03783,63.27614.00146,126.55235-.03057,189.82849-.0033,6.48588-.0036,12.99355-2.26716,19.22276-3.93544,6.42919-9.51377,8.16545-16.3476,5.09105-1.03698-1.41094-1.31208-3.14274-.93751-4.67188,1.33917-5.46739,1.59773-11.24197,4.44688-16.29617Z"/>
      <path class="cls-39" d="M71.97129,216.05969c2.16666,7.92172.06224,15.86543.06821,23.79618.06822,90.69181.03469,181.38368.02832,272.07555-2.79906,4.74731-6.24045,8.72479-11.95628,9.97652-1.33974-4.02234-1.29038-8.21835-1.2917-12.35591-.03117-98.68962-.00986-197.3793.01423-296.06892.0002-.82212.16872-1.64414.25865-2.46623,4.85686.24059,9.34764,1.416,12.87857,5.04281Z"/>
      <path class="cls-59" d="M453.25585,217.04291c-57.22173-.04214-114.44346-.08604-171.66519-.1154-1.29081-.00067-2.69992-.32553-3.72045.88634-10.07122-8.30595-21.78548-13.13796-34.31176-16.58396h242.55548c-12.08282,2.98557-22.66151,8.99919-32.85808,15.81301Z"/>
      <path class="cls-100" d="M493.59968,287.53447c-17.99287-.23287-31.90781-14.09106-31.76593-31.63645.13895-17.17107,14.8411-31.66227,32.06116-31.60118,19.06171.06761,33.87693,14.27938,33.57053,32.20318-.29359,17.1733-15.67621,31.26985-33.86576,31.03445Z"/>
      <path class="cls-100" d="M237.14248,256.13992c-.1002,17.05991-15.23974,31.48457-32.94006,31.38461-18.18409-.1027-32.79647-14.41489-32.75083-32.07799.04296-16.62307,15.26232-30.9748,32.88413-31.00943,18.47566-.03631,32.91123,13.91351,32.80675,31.70282Z"/>
      <path class="cls-25" d="M660.91581,216.98673c-29.75476-.03909-59.50946-.08775-89.26422-.10255-3.00006-.00146-5.9773-.0397-8.88912-.86023-1.62208-.03054-2.72027-1.12611-3.93465-1.96308-10.23727-7.05551-21.67665-10.71042-33.94449-12.03239-.79191-.08537-1.68414.15891-2.47153-1.03265h139.36744c3.25289,3.76238.92628,7.85706.60682,11.79729-.11497,1.41768-.85568,2.80747-1.39891,4.17914l-.07134.01446Z"/>
      <path class="cls-97" d="M99.84522,215.84278c-8.00158,2.15424-16.11562.90764-24.18545.7228-1.92378-.04406-2.77197-1.46336-2.74153-3.45079.04568-2.98301-.05854-5.96834-.09901-8.95266-.77342-1.11619-.63055-2.13136.33701-3.05554,32.46537-.0407,64.93073-.08458,97.39611-.12031,10.48213-.01156,20.96428-.0018,31.58295.47568-14.96348,1.71438-27.92618,8.06534-40.01799,16.49566-.65744-.94114-1.64774-1.01996-2.6629-1.01507-15.15476.07295-30.30956.14838-45.46432.22323-3.25084.56896-4.85754-1.64673-6.17171-3.93779-1.48151-2.58272-2.59698-2.55733-4.10965-.08125-.85182,1.39437-1.91771,2.74587-3.86349,2.69604Z"/>
      <path class="cls-85" d="M579.00956,353.21933c-3.64692,14.37354-14.3512,22.29685-26.44647,28.95768-1.57967.8699-3.11168,1.82657-4.66571,2.74315l.03362-.01349c-9.80003,3.26784-19.40673,7.34071-30.0229,7.20987-6.30915.51211-12.61684.62214-18.92141-.07195-16.65827-1.53195-31.13103-8.02295-43.56138-19.16973-1.10417-.99018-2.30451-1.87319-3.46024-2.80491-2.02295-2.04229-4.04583-4.08562-6.06872-6.12895-.79234-1.82383-2.47105-2.98017-3.48349-4.64845-1.21432-2.0008-.84958-3.35205,1.44627-4.05938,6.72381,5.3606,13.22665,10.94021,20.86795,15.13055,35.11267,19.25437,86.27838,12.76855,112.63672-16.15545.41301-.45316,1.09129-.66467,1.64576-.98896Z"/>
      <path class="cls-16" d="M60.11154,521.90793c3.98526-3.32551,7.97053-6.65095,11.95604-9.97652.31941.00427.6386.00531.9578.00305,3.61482,3.83329,1.66448,8.91226,2.97953,13.25528,1.84299,7.27266,4.07415,14.37745,8.95878,20.31356,9.83614,16.39405,24.52647,25.84643,42.9137,29.99009,4.22295.95173,8.54355,1.41387,12.75994,2.42699,1.28181.37237,2.5829.51346,3.91924.57875,5.65775.27644,5.78312.33472,4.39733,5.85092-.63932,2.54489.57973,2.90694,2.49634,2.94044,5.13902.08995,10.2802-.05297,15.41738.0736,2.2527.05553,4.72509-.40312,6.42131,1.79472.02594.69043-.29523,1.09434-.97001,1.22579-10.08474-.17398-20.17005.48703-30.23731-.36096-25.5203-3.35236-48.2754-12.40314-65.40168-32.5019-8.75882-10.27901-14.84186-21.97726-16.5684-35.61382Z"/>
      <path class="cls-64" d="M202.04497,391.10013c-6.25167.14274-11.61247-2.68347-17.08797-5.12742-4.87228-1.27864-9.7142-2.61403-12.96263-6.93001-5.88302-4.6097-12.36682-8.49925-16.63121-14.98354-1.39568-2.12217-1.43901-3.45488.53121-4.90121,7.1078,4.83487,13.8216,10.24679,21.76852,13.81035,23.7427,10.64668,47.99237,10.84123,72.64631,3.86172,12.50437-3.53994,23.62514-9.66566,33.57209-17.98165.24043,1.83469,2.8872,1.25404,3.11399,3.1024-12.56625,15.91818-28.87785,25.93595-48.72197,29.61839-7.89138,1.46439-16.07983,1.81614-24.19813,1.34784-3.97593-.83157-8.17292-.19973-12.03021-1.81687Z"/>
      <path class="cls-27" d="M721.11417,146.97445c.11167,21.96216.60676,43.93195.17087,65.88321-.21377,10.76153-4.54946,20.30041-13.36115,27.24407-1.94545-1.7927-1.81034-4.20935-1.82279-6.50904-.08104-14.9659-.02703-29.93217-.04546-44.89826-.00336-2.72216.87039-5.22659,1.57173-7.78505,5.41753-9.90643,5.48874-20.67724,5.1777-31.53384-.11875-4.14442.04064-8.29677.07329-12.44552.55367-1.77083,1.99036-2.55968,3.57332-3.13554,3.51993-1.2805,4.9272-.40209,4.92616,3.31632-.00092,3.28596.38531,6.59237-.26368,9.86365Z"/>
      <path class="cls-23" d="M166.82225,334.60077c.06761-9.68842,8.47895-17.63961,18.56729-17.55162,9.77437.08525,17.99131,8.38806,18.04636,18.2349.0515,9.20499-8.78746,17.23575-19.02753,17.28781-9.48435.04821-17.65361-8.29988-17.58611-17.97109Z"/>
      <path class="cls-91" d="M477.04417,316.97556c9.86203.13108,18.33125,8.57101,18.15074,18.08796-.18356,9.67567-9.03186,17.5518-19.41894,17.28525-9.7838-.25105-17.27511-8.21628-17.13988-18.22398.12626-9.34083,8.64716-17.27896,18.40808-17.14922Z"/>
      <path class="cls-1" d="M546.52825,316.90294c9.41051.08879,17.70648,8.23794,17.74713,17.43311.04278,9.68317-8.72607,18.06361-18.91006,18.07258-9.22079.00812-17.92043-8.55539-17.71619-17.43872.23281-10.12188,8.63606-18.16356,18.87912-18.06696Z"/>
      <path class="cls-51" d="M274.1713,334.40079c.08244,9.72058-7.85416,17.64993-17.69922,17.683-9.79921.03301-18.24609-7.90591-18.43136-17.32278-.18103-9.20206,8.34375-17.65621,17.9839-17.83477,9.48997-.17581,18.06701,8.08355,18.14668,17.47454Z"/>
      <path class="cls-67" d="M657.89945,530.94138c6.02789.59303,11.62953-.17319,15.95619-5.00409-2.66486,13.60794-9.0927,25.29032-18.76232,35.06173-14.33112,14.48223-31.81841,23.18468-51.74916,27.09846-2.72771.7498-3.49869-.63514-2.62586-2.85532.92104-2.34271,1.09032-4.79832,1.69976-7.17728,1.32117-2.03576,3.5671-2.19009,5.61641-2.76152,16.23086-4.52621,30.21397-12.42639,40.03779-26.60874,1.13584-1.63966,2.07408-3.37628,3.00824-5.12443,3.18527-3.60634,3.26295-8.56973,5.48728-12.59744.43608-.33368.88082-.32788,1.33167-.03137Z"/>
      <path class="cls-40" d="M26.09834,180.87716c4.04399,5.10817,8.40893,9.85563,14.58315,12.45016,2.0078.84372,2.48844,2.29887,2.48691,4.33844-.01169,15.61169.0103,31.22387.14867,46.8348.026,2.93114-.97408,3.41722-3.50906,2.43883-5.43074-2.09608-10.64398-4.51209-14.70621-8.86124-.51469-2.09602-.91989-4.18683-.91246-6.37942.04893-14.44882-.0155-28.89797.05671-43.34666.01301-2.60091-.39371-5.39035,1.85229-7.4749Z"/>
      <path class="cls-34" d="M26.09834,180.87716c-.02418,17.14761-.02693,34.29527-.10225,51.44266-.00848,1.93275.59219,4.02756-.89504,5.75756-7.07422-6.12761-10.76789-14.22867-10.88218-23.22761-.35472-27.92403-.05022-55.85638-.00154-83.7855,2.4481.98096,4.03593,3.41097,6.72216,3.99082-1.75414,15.66512-2.56784,31.22436,5.15885,45.82207Z"/>
      <path class="cls-56" d="M707.62744,180.90938c.09892,19.73075.19784,39.46148.29658,59.19229-.52792,1.33295-1.66956,2.06603-2.84219,2.65845-3.95149,1.99637-8.2906,5.94545-12.2668,3.85153-3.09648-1.63068-1.05199-7.03467-1.09276-10.72629-.1392-12.62725.07482-25.25798.03869-37.88706-.00671-2.35885.38134-4.09267,2.76036-5.18973,5.59072-2.57805,9.51023-7.07934,13.10613-11.8992Z"/>
      <path class="cls-82" d="M602.95453,577.99428c.94953,2.54464,1.16281,4.97584-.82266,7.21792-1.49759,1.69134-.66772,2.54153,1.21194,2.88516-3.88869,1.63898-8.00763,1.88778-12.14762,2.00958-1.7924.56844-3.63734.29139-5.45549.29157-135.65986.01477-271.31966.01672-406.97949-.01904-1.93172-.00049-3.99073.65027-5.80988-.61701.02118-.27119.03707-.54269.04766-.81455,2.27122-2.33954,5.2459-1.8248,8.01169-1.83267,21.82554-.06243,43.65133-.03234,65.47703-.03277,63.14463-.00134,126.28932.04742,189.4338-.03924,13.31343-.01825,26.5989-1.23031,39.93674-1.05022,8.83237.11918,17.64381,1.08733,26.43603.95875,18.80931-.27491,37.6141-.85293,56.42842-1.09862,7.57778-.09892,15.32972-1.07256,21.85612-5.80839,3.84824-2.79234,8.54477-.68365,12.58419-2.28694,3.26466-.14975,6.58986-2.30402,9.79155.23647Z"/>
      <path class="cls-57" d="M659.91288,184.92934c-5.44743-2.64765-11.5895-3.81028-16.21426-8.27041-1.57619-1.52005-4.25179-1.53881-6.63221-1.70886-24.43267-1.74517-48.89824-.64341-73.34617-.95411-1.47025-.01867-2.94093-.00244-4.45048-.98014,1.6421,0,3.28425.00018,4.92641-.00003,28.48467-.00384,56.96958.05334,85.45376-.06368,5.62294-.0231,11.13908-1.1597,16.23965-3.75917,6.54379-2.17471,12.87234-4.83433,18.80168-8.38861,4.18356,6.25088,3.64405,11.52006-1.66919,16.30352-6.97736,4.75133-14.79033,7.03366-23.10918,7.82148Z"/>
      <path class="cls-43" d="M71.97846,170.14778c-1.33249,4.74727-2.60504,9.49876-1.01414,14.44995-7.74701-1.2949-15.21034-3.44142-21.85116-7.77276-11.51058-7.50748-14.57725-18.55241-12.94144-31.49192,7.79643,14.2493,20.94079,20.7743,35.80674,24.81473Z"/>
      <path class="cls-21" d="M172.95132,589.76246c10.99146.04058,21.98292.11625,32.97439.11637,126.5963.00171,253.1926-.00903,379.78893-.00458,1.82749.00006,3.65503.1511,5.48203.2322-3.26625.92122-6.6158.52536-9.92098.52664-142.60342.05547-285.20687.08122-427.81029.06707-3.79484-.00037-7.64954.48056-11.38601-.67682,10.29213-.08678,20.58203-.17386,30.87193-.26088Z"/>
      <path class="cls-53" d="M33.36053,87.52046c-1.01349-.55779-2.10209-1.01272-3.02845-1.68976-6.86767-5.01892-6.6642-11.14311.55393-15.82094,3.49672-2.2661,7.37173-3.71252,11.35311-4.90499,8.29777-2.4853,16.82431-3.26656,25.7824-3.6929-1.25761,3.39166-3.10911,6.06948-5.14963,8.64024-3.38216,2.17978-7.3759,1.48517-11.05064,2.30888-6.76912,1.51736-12.46547,4.34802-15.47992,11.03696-.82384,1.4957-1.13085,3.37051-2.98079,4.12251Z"/>
      <path class="cls-32" d="M670.20861,69.12784c-1.42485-2.17648-2.8497-4.353-4.64332-7.09276,13.45024-.83762,25.58786,1.39724,36.89494,7.44234,3.48795,1.86474,7.15976,4.27443,6.6468,9.03125-.49747,4.61381-3.79051,7.09664-8.00086,8.46669-1.69159-1.00501-1.83896-2.90255-2.58864-4.45256-2.84573-5.86813-8.04522-8.34104-13.9673-9.99025-4.74321-1.32084-9.7993-1.28175-14.34162-3.40471Z"/>
      <path class="cls-31" d="M660.98715,216.97227c.26497-5.32578.52993-10.6516.7935-15.97689,3.82395-.93635,7.66437-1.8165,11.46904-2.83097,2.33106-.62159,2.89034.39446,2.81968,2.48206-.12791,3.78139-.13572,7.56689-.19369,11.35056-5.40825.3255-10.64564,1.16233-14.88852,4.97523Z"/>
      <path class="cls-70" d="M699.75808,82.13124c1.2051,1.40444,1.36084,3.10008,1.34613,4.84388-.23482.22918-.43333.53335-.71398.67615-12.15592,6.18601-17.40838,4.29475-23.57352-8.47285.6875-1.09187,1.8118-1.60429,2.9654-1.57003,6.9438.20629,14.04956-.20394,19.97597,4.52286Z"/>
      <path class="cls-47" d="M699.75808,82.13124c-7.56789-1.60365-15.08123-3.63053-22.94204-2.95359-2.71471-3.01416-4.68457-6.51923-6.60866-10.0517,9.66504.42775,19.21603,1.21563,26.73828,8.42956,1.33222,1.27763,2.49033,2.67237,2.81241,4.57574Z"/>
      <path class="cls-8" d="M73.15623,201.1066c-.11137,1.017-.22274,2.03402-.33556,3.05328-1.63718,3.87158-.33031,7.95034-.84881,11.89951-4.32885-1.59016-8.93187-2.47898-12.87912-5.04251q-1.12313-12.83131,11.23649-10.75592c.96249.16232,1.8856.55828,2.827.84564Z"/>
      <path class="cls-54" d="M33.36053,87.52046c1.62904-1.15604.26533-3.39428,1.67424-4.62989,5.38841-4.33634,12.05938-4.23492,18.39244-5.2434,1.30616-.20797,2.65262.24181,3.53671,1.44526-.48445,1.03796-.85429,2.15015-1.47097,3.10246-6.62641,10.23285-10.84275,11.23492-22.13242,5.32557Z"/>
      <path class="cls-102" d="M56.96392,79.09243c-7.58422-.31571-14.65127,2.35358-21.92971,3.79884,3.95309-9.95433,12.79918-11.61391,21.86201-12.80187,1.96032-.257,3.98296-.03863,5.97628-.03826-1.96993,3.01441-3.93925,6.02786-5.90857,9.04129Z"/>
      <path class="cls-48" d="M721.11417,146.97445c-.09575-2.655-.24922-5.30943-.27504-7.9651-.05224-5.36047-.0952-5.40957-5.22823-3.30073-.92281.37908-1.82242.81437-2.73266,1.22256-.10063-.13273-.28822-.2635-.28944-.39602-.03954-4.1331-5.21334-8.33439-2.26613-11.57092,2.5898-2.84393,6.82615-4.98527,11.27736-7.3123-.18539,10.05127.67724,19.68236-.48587,29.32251Z"/>
      <path class="cls-94" d="M683.02206,177.10785c5.27321-4.95152,1.7307-10.80611,1.66962-16.30377,4.22726-3.99448,8.74383-7.71323,12.03522-12.59768,1.52102,12.52418-3.11149,22.12616-13.70483,28.90145Z"/>
      <path class="cls-75" d="M16.54754,89.33476c5.99746,7.69007,14.35919,10.87766,23.51718,12.54209,1.3807.2509,3.61615-.01196,3.47716,1.70574-.12835,1.58626-1.65175,3.28776-3.50491,3.79948-6.82639,1.88497-22.98927-7.68583-24.67996-14.55756-.27494-1.11756-.45417-2.31159,1.19053-3.48975Z"/>
      <path class="cls-81" d="M718.92512,88.60217c.73101,5.83201-1.38262,9.05478-4.55648,11.58063-5.46568,4.34976-11.98402,6.09383-18.78606,6.95549-3.15403.39952-4.30311-1.76906-5.54037-4.53195,10.62178-1.88201,21.27248-3.52753,28.88291-14.00417Z"/>
      <path class="cls-86" d="M486.13168,309.63992c-3.69244.01318-7.26631-3.16831-7.40557-6.59243-.15262-3.75414,3.68628-7.1728,7.94179-7.07238,3.92275.0926,7.46238,3.13566,7.49973,6.44762.04107,3.63905-3.92671,7.20255-8.03595,7.21719Z"/>
      <path class="cls-20" d="M195.33813,309.4444c-4.39516.0155-7.80461-3.0072-7.66666-6.79716.12418-3.41216,3.75945-6.50983,7.61369-6.48777,4.10609.02346,7.81043,3.3767,7.67411,6.94673-.13499,3.53476-3.48838,6.32362-7.62114,6.3382Z"/>
      <path class="cls-92" d="M20.93949,135.05508c-4.10612,1.8129-5.63139-.72249-6.72216-3.99033v-11.32014c10.22319,3.24038,10.95836,4.92797,6.72216,15.31048Z"/>
      <path class="cls-93" d="M286.99528,361.95077c-1.04199-1.03021-3.79173-.34723-3.1136-3.10289,2.67956-2.67157,5.35959-5.34357,8.03949-8.01539.79517,4.78599-2.34338,7.82896-4.92589,11.11828Z"/>
      <path class="cls-42" d="M443.85913,355.23318c-1.08983,1.33435-1.94923,2.59126-.0645,4.06414,1.45213,1.1348,2.42821,2.63288,2.1024,4.64393-5.31531-3.00391-8.10411-8.34437-6.86239-13.13994,1.60817,1.47727,3.21633,2.9546,4.8245,4.43187Z"/>
      <path class="cls-93" d="M657.89945,530.94138c-.30048.00708-.60096.0122-.90145.01538-2.09947.4705-3.22902,2.27107-4.7235,3.535-11.78636,9.96755-25.42224,15.1718-40.79998,15.17894-162.04445.07482-324.08893.05877-486.13338.02624-14.8025-.00299-28.13692-4.71106-40.15099-13.21836-4.44372-3.14658-7.4948-7.50681-9.81425-12.38544-.61646-4.4099.03902-9.04718-2.28449-13.16783-.00186-8.6501-.00374-17.3002-.00561-25.95029,2.10716-.40282,2.41347,1.14054,2.91789,2.36975.07128-.27619-.0393-.7833-.10324-1.28187-1.17613-9.17124,1.69468-13.49614,10.77054-14.27475,6.62954-.56868,13.19007-1.40868,19.76144-2.34271,2.19693-.31226,4.04484-.78385,5.77275-2.42864,3.34393-3.18308,6.07778-2.70477,8.57232,1.08952.54668.83157.8335,1.82578,1.47254,2.60127,1.33743,1.623,3.1489,1.69915,5.01599,1.38763,1.78532-.29786,1.71642-1.76335,1.81336-3.09435.19195-2.63496,1.50516-4.40423,4.12696-4.93013,2.38753-.47892,4.44179.55233,5.58281,2.50223,3.15647,5.39422,8.10219,9.74902,9.49631,16.18187,1.02792,11.96383.22985,23.94803.47876,35.91876.05877,2.82731-.06609,5.65705.18197,8.48204.26997,3.07403,1.78251,5.30958,4.48874,6.72869,1.65506.86788,3.46369,1.58602,5.22176.56636,1.84155-1.06798.98401-2.96784.92122-4.55667-.63099-15.97018-.20202-31.94524-.2235-47.91792-.00247-1.8162.10142-3.69794,1.69766-5.02149,1.2899-1.18393.94419-2.75579.96235-4.21902.14161-11.41394-1.03054-22.92893,2.84402-34.04337.64161-1.84042-.26838-3.57503-1.02166-5.26271-.55172-1.2361-.13886-2.33551.92872-3.04626.98813-.65784,1.91847-.11826,2.69247.56868,4.35809,3.86789,8.67627,4.60921,13.1273.0753.6164-.62794,2.01846-1.25032,2.6586-.96894,5.55175,2.43968,8.75585-2.56142,13.03293-4.02765,1.42638-.48892,3.31055-1.79771,4.06502-.63599,2.71069,4.17405,7.99518,3.62983,11.16123,6.63392,1.84064,1.74645,2.99625,1.76945,4.97102.0753,4.894-4.19845,8.40426-2.82792,9.51313,3.61299.63706,3.7005,2.54525,6.22891,6.13108,7.01221,2.86004.62476,5.84665.70641,5.94645-3.68134.0454-1.99585,1.14942-3.97865,3.22817-3.60713,2.22603.39775,5.67755.28114,6.19433,2.98939.88976,4.66291,7.15696,4.96522,7.36267,9.99354.02688.65668,1.85418.29621,2.44581-.5995.43287-.65528.5155-1.53982.76478-2.31885,2.5606-8.00135,6.80994-9.98164,14.50876-6.43895,3.12144,1.43638,5.2614.95362,7.29844-1.78172,2.57701-3.46037,5.96742-5.22805,10.39355-3.73638,3.09941,1.04449,5.87082-.1824,8.71957-1.07347,3.05331-.95503,4.3457-.09868,6.42815,2.98096,3.95176,5.84403,3.49225,11.83037,3.61558,18.05842.08891,4.49277,2.05288,6.16727,6.35815,5.07409,4.00925-1.01813,7.47935.35272,11.01975,1.63679,1.72564.62592,3.74211,3.553,4.96192,1.73247,1.74608-2.60579-1.65399-3.61018-3.39013-4.91829.10103-.132.18374-.35888.30573-.3825,9.4723-1.83194,12.8753-9.36072,16.41872-17.01839,2.63602-5.69666,5.35873-11.43469,10.42348-15.62734,10.4864-8.68085,19.86765-7.85557,28.44378,2.72466,3.38537,4.17655,5.44395,9.11632,7.65144,13.94784,1.31299,2.87368,2.45286,5.83427,4.19204,8.48387,4.06664,6.19541,9.63594,7.74237,16.36804,4.63337,1.01873-.4705,1.9283-1.40191,3.21725-.81028.77909,2.7016-2.8173,6.00977.05559,7.87369,2.23415,1.44957,4.61695-1.9524,7.15873-2.41411,2.26216-.41087,4.60695-.40642,6.91878-.4957,4.93397-.19058,6.61909-2.50595,4.78508-7.03058-1.0653-2.62837-1.24599-5.06164-.09434-7.68659,2.57607-5.87198,3.9568-6.04602,8.26827-1.38567,2.05157,2.21755,4.60182,3.99634,7.89907,2.07891,1.99048-1.1575,4.16391-1.03234,6.31879-.97327,5.36834.14701,10.50742-.66748,15.51621-2.77421,4.84537-2.03808,9.81559-2.04711,14.20334,1.24782,4.20388,3.15677,8.01081.60701,11.07897-1.28431,7.56826-4.66523,14.18711-1.91445,21.01429,1.28004,1.1893.55642,2.70751,1.67853,3.6294,1.33759,7.56698-2.79869,15.59902-1.66736,23.29-3.0794,2.82559-.51877,5.58193-1.19015,8.31965-.33008,4.87594,1.5317,5.99408.92958,6.60133-3.98054.18441-1.49167-.81162-4.00306,1.55782-4.05694,2.85049-.06469,2.41527,2.64423,2.41118,4.56307-.01098,5.12126.01788,10.22348,1.96345,15.08447,2.37164,2.25453,1.79221,5.22988,1.79917,7.97615.05645,22.41731.06011,44.8348.01599,67.25223-.01513,7.6789-.05956,7.67884,7.20706,9.71271,6.36541-2.06518,10.29475-6.74639,9.95625-13.15502-.74712-14.14519,1.71239-28.12208,2.64924-42.12448.51626-7.71741.69903-16.51677,5.24745-23.84039.62696-1.00958,1.01062-2.33631.68152-3.80674-2.2538-10.07202,2.89742-16.763,13.73815-18.00417,1.63862-.18759,3.34485-.16544,4.89687-.64136,2.43828-.74767,3.97309.02862,4.5923,2.33814.55684,2.07701,1.74352,3.58742,3.45597,4.68775,1.33624.85873,2.89358.8475,4.29115.12986,1.6341-.8392,1.50766-2.35144,1.26289-3.91378-1.05126-6.70996-1.05572-6.47551,5.86563-5.80674,3.81949.36913,7.5696.77,11.21017,1.97004,3.22451,1.06292,5.73675-1.2527,8.58193-1.90017,4.05962-.92366,5.60042.81437,5.49893,4.31953-.16409,5.66511,1.66461,11.16051,1.12284,16.84374-.26277,2.75615.35992,5.30885,2.91542,6.96681.04522,16.69679.09093,33.39346.13737,50.09098.75438,7.22891-3.95393,13.64138-3.11723,20.88176Z"/>
      <path class="cls-46" d="M147.02569,481.93992c-1.5634-5.52615-7.02945-8.56485-8.85516-14.02821-.64496-1.92995-2.74748-3.64399-5.24712-2.69903-2.58769.9784-3.49637,2.9186-1.99854,5.56979.97208,1.72057-.17328,2.36883-1.53735,2.87564-4.28758,1.59303-8.0383-.11668-9.46489-4.38128-.57494-1.7188-1.59041-2.94008-3.40938-3.2109-1.98868-.29621-3.0837.78501-3.58611,2.63996-.33528,1.23781-1.22202,2.23635-2.46331,2.09148-6.5624-.76536-12.59186,2.32282-19.14369,2.28627-12.23802-.06841-15.20397,2.55239-14.31283,13.29214.10376,1.2505.35719,2.69604-1.23421,3.80412-1.43864-1.45683-.11428-4.46745-2.6878-5.20535-.00073-15.34273-.00195-30.68588-.00278-46.02928,1.57483-1.39647,1.12368-3.46116,1.39124-5.14964.64634-4.07866,1.10788-7.49882,6.32935-8.60494,3.05234-.64667,2.38241-4.36517,2.08693-6.97786-.71677-6.33808,1.34428-8.77587,7.67862-8.09203,2.73336.29505,4.38947-.34625,5.79519-2.61183,1.00511-1.61982,2.79604-2.78935,4.64005-2.2524,2.28367.66486,5.64771.0476,6.5621,2.73119,1.0355,3.03912-1.976,4.08104-4.10789,5.32337-2.84846,1.65973-2.79906,4.42473-2.21653,7.05078.53358,2.40539,2.7999,2.48154,4.82863,2.58272,6.55833.32715,12.44048,4.13664,19.3815,3.15024,5.52164-.78465,6.26994-1.11076,3.96742-6.21017-1.1547-2.5574-2.76625-4.90713-4.14741-7.3642-.53121-.94502-1.29408-1.7163-2.36801-1.45793-6.37493,1.53408-6.05447-3.09252-5.71877-6.73699.36331-3.94441,1.64756-7.70764-.88698-11.47429-.89931-1.33643.25737-2.77696,1.29383-3.97645,2.5487-2.94972,6.23333-4.37109,9.08434-6.9208,1.44844-1.29536,2.24492.82877,3.44682,1.05266-.03488,2.70544-2.53469,3.24489-4.10597,4.5137-7.0675,5.70666-7.31486,12.85105-.50772,18.87895,5.9424,5.26204,12.89846,8.55179,20.52219,10.60488,2.11405.56942,4.88293.82938,4.25685,4.29078-1.99729,17.51598-1.39858,35.09316-1.51135,52.65198-.01767,2.74907.54501,5.70782-1.75127,7.99293Z"/>
      <path class="cls-71" d="M403.6332,406.08562c1.33435,5.22512,5.05584,9.22165,7.20663,14.05604,3.65351,8.21201,7.24264,16.33248,5.04473,25.65158-1.12107,4.08831-4.15146,5.97163-8.04095,6.3177-4.73266.42094-8.31062-2.01032-10.97962-5.68708-2.16141-2.97736-3.23147-6.5358-4.63032-9.90811-3.57942-8.62892-7.34943-17.08972-15.11754-23.01443-6.7578-5.15415-12.88522-5.16038-19.36213.37749-7.16666,6.12755-11.36404,14.1851-14.61055,22.82293-1.34753,3.58535-2.65842,7.18692-4.99234,10.26681-5.21267,6.87863-12.67344,7.11241-18.51563.64496-.58318-.92287-.06563-2.02386-.48395-2.97547-2.78404-5.55972-.05874-10.72351,1.5811-15.72352,3.80662-11.60671,10.46742-21.65609,18.34388-30.91961,2.7106-3.94655,6.15488-6.91848,10.8793-8.18985,5.17734-2.48722,10.66508-3.89504,16.32752-4.69537,1.05096-1.29566,2.33871-.88113,3.62141-.50278,1.42241,1.49472,3.70599-.3828,5.08208,1.29566,2.98603,1.02508,5.97199,2.05023,8.95796,3.07537,1.48252.46513,3.27967.39287,3.92018,2.29572,2.12748.6294,2.83316,3.23995,5.10704,3.66541,3.59383,2.54867,6.62098,5.63124,8.88613,9.43176.59169.57161,1.18338,1.14316,1.77507,1.71478Z"/>
      <path class="cls-38" d="M150.12483,419.85558c-8.40825-2.86276-16.86158-5.25741-24.13558-11.02589-9.91762-7.8649-9.38443-17.87022,1.6774-24.18548.85226-.48648,1.6381-1.08946,2.45558-1.63789,4.6763-.98639,9.14247-2.7614,14.0084-3.08373,11.39495-.75493,20.97163,3.615,29.91126,10.02717,3.47877,2.54922,6.5209,5.39941,6.93486,10.0611.6766,3.26534-1.23516,5.94271-2.01623,8.87692-1.58974,5.55905-6.74199,6.18875-11.05032,7.9861-3.66336,1.00006-7.32673,2.00012-10.99009,3.00013-2.27055,2.0127-4.5357,2.0199-6.79527-.01843Z"/>
      <path class="cls-36" d="M150.12483,419.85558c2.26539.00641,4.53076.01282,6.79573.01886,3.83063-.41893,4.17297,1.85922,4.15808,4.91775-.0847,17.38703-.03271,34.77468-.02688,52.16232-.00909,16.31502-.02053,32.62987-.02356,48.94477-.00021,1.16391-.00201,2.3338.10749,3.49051.23333,2.4647,2.60789,5.73986-.57939,7.11614-3.89065,1.68005-7.94234.12382-10.96278-2.85916-2.05562-2.03009-2.64887-4.72692-2.61943-7.75732.14231-14.64858.05651-29.29948.0516-43.94952.00772-11.79723.25471-23.60087-.06124-35.38943-.20974-7.82597,1.46912-15.5186,1.05181-23.32406-.08525-1.59425.15732-3.02881,2.10856-3.37085Z"/>
      <path class="cls-4" d="M320.23137,446.69853c6.73345,6.51572,13.73892,5.53214,18.1407-2.74566,3.81479-7.1738,5.74974-15.22758,10.41387-22.04402,2.37277-3.46769,5.01654-6.63472,8.17285-9.3415,6.95759-5.96669,14.08269-5.95039,21.22311-.2671,6.4467,5.13115,10.54178,11.87778,13.6244,19.3467,1.45847,3.53378,2.73174,7.14555,4.24465,10.65486,4.21822,9.78454,12.69928,11.25381,19.83348,3.49174,2.00043,2.68256.06115,4.87814-.88985,7.19638-7.18863,6.54947-16.4021,5.13609-21.15562-3.52457-2.93928-5.3551-5.41777-10.96926-7.97736-16.52507-2.76579-6.00306-7.31489-10.30721-13.22366-12.8015-5.62974-2.37646-10.5476.44877-15.07363,3.67694-6.35168,4.53036-9.3126,11.46672-12.35285,18.21104-1.44267,3.20041-3.25215,6.13615-5.03674,9.09008-2.72512,4.51084-6.89898,6.48985-12.20032,5.92147-4.27406.07616-6.71398-2.25136-7.99305-6.09984-1.05712-1.48057-1.30585-2.91347.25002-4.23995Z"/>
      <path class="cls-7" d="M111.05113,348.03308c-2.8191,2.17276-4.47771,5.21335-6.24299,8.1995-1.45948,2.46879-3.48841,3.54928-5.18967.42918-3.58159-6.56893-8.44185-11.80059-14.90481-15.54307-3.30315-1.91286-3.06507-3.60817-.15142-5.90633,5.58689-4.40661,10.97316-9.0279,13.9922-15.81859.65875-1.48166,1.75169-3.75237,3.54041-3.74023,1.661.01123,2.02334,2.3994,2.68214,3.82236,2.82759,6.10753,7.94821,10.18083,12.9314,14.1884,4.84363,3.89529,5.12367,3.54708,1.30884,8.28548-3.1611,1.36547-5.53711,3.75908-7.96612,6.0833Z"/>
      <path class="cls-93" d="M320.23137,446.69853c-.08324,1.41338-.1665,2.82676-.24989,4.24007-4.12974-.36535-8.37021-5.65308-7.53338-9.56277.26701-1.24776.77653-2.86813,2.30048-2.89449,1.62595-.02819,1.78211,1.66706,2.15448,2.90426.39113,1.29963-.51211,3.11033,1.4697,3.75237.18609.06023.51571-.3227.77873-.49985.35998.68676.71993,1.37359,1.07988,2.06042Z"/>
      <path class="cls-93" d="M167.91018,416.87388c4.00958-2.21084,7.83338-4.67878,11.05084-7.98561,2.11479,6.04571.92473,7.58267-5.26564,7.24642-1.90938-.10368-3.85577.47367-5.7852.73918Z"/>
      <path class="cls-93" d="M171.99437,379.04269c4.32126,2.30994,8.64253,4.61983,12.96321,6.92989-3.82328.61415-7.14799-1.01953-10.47685-2.44542-1.84945-.79215-2.59416-2.46848-2.48636-4.48447Z"/>
      <path class="cls-61" d="M349.9558,389.80508c-3.62641,2.72991-7.25283,5.45982-10.87927,8.18979,1.75319-5.27022,6.43657-8.79588,10.87927-8.18979Z"/>
      <path class="cls-61" d="M401.85813,404.37085c-2.96198-3.14384-5.92391-6.28774-8.88601-9.43169.70556-.91023,2.34521-1.25606,2.47849-.5699.82443,4.24563,6.18771,5.48545,6.40752,10.0016Z"/>
      <path class="cls-93" d="M180.97674,400.01086c-1.53225-3.89102-4.22393-6.9828-6.93504-10.06104,4.48392,1.85647,7.56762,4.67798,6.93504,10.06104Z"/>
      <path class="cls-93" d="M202.04497,391.10013c4.03347.44859,8.12754.496,12.02966,1.81717-4.09071-.06835-8.32038.78013-12.02966-1.81717Z"/>
      <path class="cls-61" d="M369.60901,385.08474c-1.10548.42766-2.21426.41881-3.32578.0249-1.1871-.40776-2.67538.32422-4.12272-1.50253,3.26472.56929,6.16825-1.43223,8.78218,1.07592-.27205.7066-.7166.84067-1.33368.40172Z"/>
      <path class="cls-42" d="M369.60901,385.08474c.44468-.13279.88943-.26558,1.33392-.40007,1.83847-1.22225,3.95564-3.36621,4.04382,1.21792-1.79252-.27259-3.58516-.54525-5.37774-.81784Z"/>
      <path class="cls-42" d="M387.86496,391.27368c-1.30677-.76524-2.61354-1.53048-3.92024-2.29572,3.84128-3.56265,3.40947.17129,3.92024,2.29572Z"/>
      <path class="cls-18" d="M468.795,162.82969c-10.79655.99521-21.61867.43785-32.42657.44456-58.25401.0361-116.50805-.03271-174.7621-.06166-2.32285-.00116-4.68295.25374-6.76225-1.15567-3.11943-2.04937-1.99442-5.00562-1.46632-7.67466,4.86612-24.59446,8.38086-49.41471,12.31822-74.16137,1.0645-6.69052,1.57076-13.47768,3.01816-20.12082,1.38427-6.52481,1.49069-13.27383,3.42491-19.70946,3.87762-8.65422,10.97258-12.07222,20.01575-12.10383,23.76901-.08307,47.53829-.02465,71.30748-.03057,21.60839-.00539,43.21675-.00265,64.82511.00049,2.16062.00032,4.32288-.03312,6.47977.1255,12.19742.89699,18.04608,5.65179,21.29604,17.28398,5.77061,36.5142,11.01801,73.10626,15.27816,109.83402.31458,2.71197.94014,5.81053-2.54635,7.32951Z"/>
      <path class="cls-6" d="M674.79298,124.59052c2.53884,2.71505,4.02923,6.08282,5.63929,9.34303,4.1536,8.41073,3.03021,13.28195-4.40349,19.032-7.19967,5.56905-15.83628,7.39761-24.49962,9.08358-5.24288,1.02035-10.54129,1.18448-15.87296,1.17981-47.22258-.04147-94.44516-.02246-141.66774-.04452-2.98914-.0014-5.9781-.19647-8.96717-.30143-1.25789-.52374-2.79411-.66388-3.22616-2.33264-1.63538-5.72247-1.66303-11.65901-2.32428-17.51238-5.0246-31.64414-11.57979-63.01286-16.9969-94.58761.13791-9.53643,1.56154-11.80384,8.95601-14.30675,3.14036-.19105,3.74883,2.17256,4.42088,4.43927,1.9834,6.68956,2.95594,13.59779,4.31879,20.96071-.01336.10765.72698-.85312.10704-.60829-.23415.09245-.30182-.06005-.18905-.45347,1.9651-6.85407,7.43791-10.81432,12.587-14.94119,5.35351-4.29078,11.66962-6.98645,17.8007-9.97272,17.80492-5.61823,35.96749-8.34984,54.65878-6.84087,6.98389,1.37136,14.13176,1.44023,21.12822,3.03149,14.71173,3.34601,28.0907,8.9798,38.9548,19.83227,2.98652,2.98319,4.70654,6.82404,7.52054,9.87937,4.57802,8.33759,9.92501,16.36766,10.66334,26.26982-.39007,19.10163,1.80204,38.14171,1.27613,57.25005-.13669,4.96785,1.1074,5.74416,6.1467,4.72781,5.45549-1.10026,10.50803-3.10753,14.574-7.08898,3.70098-2.70379,4.80564-6.76403,5.80204-10.92334.51028-2.12989.55709-4.70785,3.59309-5.11501Z"/>
      <path class="cls-49" d="M239.84169,162.83875c-1.49182.10801-2.98365.31025-4.47547.31037-46.97882.00333-93.95764-.00107-140.93646-.03683-8.88568-.00674-17.54628-1.61979-25.9838-4.29539-2.82326-.89528-5.65624-2.11515-8.11476-3.74486-11.66158-7.73013-12.71567-13.64339-5.08026-25.19457,1.16965-1.76951,2.54449-3.40337,3.82441-5.09999,2.99456.611,2.84755,3.28862,3.36859,5.38165.92226,3.70471,1.98424,7.29579,4.64001,10.18751,4.63404,4.72802,10.46322,6.99247,16.83904,7.98118,2.89696.44923,3.97875-.62876,2.81817-3.72177-5.64101-15.03373-4.10342-29.73345,2.40982-44.12075,4.11886-9.09826,7.94037-18.31863,11.53656-27.63474,4.05492-7.44832,5.96275-16.03193,11.86548-22.51592,9.87018-11.88256,22.4677-18.8306,37.94031-18.84595,21.55978-.02139,43.12527-.14052,64.68387.18403,1.65583.13431,3.20144.70983,4.76225,1.21317,11.28111,3.89495,20.48286,10.43794,26.43194,21.43599.89498-4.68103,1.80704-8.86203,2.7268-13.03387,1.09843-4.98223,3.16147-6.34607,8.41326-6.28827,5.41283,1.85551,7.29197,5.82972,6.76366,11.25457-1.24922,7.6591-2.87267,15.25516-3.96131,22.94556-4.17023,22.24647-8.64622,44.43393-12.62569,66.71537-.40996,2.29542-.8028,4.59133-1.39647,6.84629-1.33734,5.24624-1.69156,10.67335-2.89498,15.94674-.25362,2.17865-1.54369,3.4658-3.55495,4.13047Z"/>
      <path class="cls-11" d="M219.72085,34.16687c-1.24684-.39023-2.49369-.78045-3.74053-1.17067-2.5667-1.02453-5.24422-.43599-7.85937-.44833-14.94149-.07057-29.88355-.02133-44.82531-.05195-1.7228-.00352-3.54229.3747-5.50339-.66776,1.19802-2.10937,2.99665-2.28061,4.75865-2.414,2.65052-.20071,5.31864-.22879,7.96437-.07642,5.97364.34405,11.58166-.63293,16.50263-4.13389-11.2755-.90276-22.70069-.25458-34.11065-.4959-2.43129-.05143-5.05312.40673-6.99-1.73996,3.78068-1.78256,7.8386-1.07697,11.75597-1.1035,19.65715-.13314,39.3157-.04078,58.97364-.08525,73.61562-.16655,147.23453-.85388,220.84551-.35263,45.47027.30962,90.93731.14862,136.4049.39673,4.09758.02237,8.30952-.64829,12.28285,1.06257-2.52987,2.62947-5.82224,1.44157-8.81162,1.7437-2.03399.20556-3.96943-.22127-5.22451,2.47692-1.29151,2.77652-4.23861,1.15734-6.52341,1.03659-13.40868-.29083-26.77776.04433-39.92423,3.05438-5.25344,1.20285-10.44164,2.69009-15.65956,4.04788-12.68958.77185-25.37568,1.06153-38.05012-.27301-6.16001,2.16721-9.08465,6.37006-8.1716,12.98754-3.1539.32282-5.83426-1.83469-8.95058-1.70867-4.30518-12.69465-8.82267-15.9885-22.36866-15.99929-46.95853-.03739-93.91706-.01812-140.87558-.04798-8.40563-.00534-14.7283,3.36268-18.53385,11.02615-4.64857-1.16992-6.99009,2.4842-9.9838,4.77464.29173-4.78528-1.77382-8.12882-6.15171-10.05808-5.87649-.82665-11.76604-.01602-17.65004-.08697-6.5851-.07942-13.14634-.02902-19.58001-1.69284Z"/>
      <path class="cls-87" d="M454.8645,46.25123c2.98084-3.65342,5.23958.83862,7.91738.74483.33276-.01163.68835.62788,1.03326.96473,4.69238,25.33993,9.41283,50.67562,14.05761,76.02517,1.1647,6.35681,2.84415,12.64467,2.89107,19.17327-.46647.46885-.85635,1.01272-1.41759,1.38848-5.6017,3.75029-5.79179,6.92336-.67267,11.58404,1.55013,1.41143,3.79197,2.20571,4.11076,4.69238.74651.68655,1.49295,1.3731,2.23824,2.05923-5.41082-.01791-10.82035-.03542-16.22873-.05334,2.99616-4.48655.45683-9.05435-.02508-13.48747-3.37475-31.04568-7.84201-61.94768-12.71411-92.79113-.54037-3.42064-1.45353-6.78981-1.19015-10.30019Z"/>
      <path class="cls-19" d="M112.96793,51.82084c-4.73458,6.51862-7.18733,14.21967-10.99514,21.21852-7.20237,12.18785-12.98818,25.08619-18.89038,37.91845-4.10458,8.92397-8.16748,17.86067-13.15629,26.33496-.94395,1.60344-1.27351,3.97602-3.95303,3.85465-3.3394-2.87634-4.09459-6.95088-5.1053-10.92172-.47143-1.85214.0009-4.02856-1.79343-5.44765,10.65874-18.43537,21.29354-36.88352,31.98508-55.29868,4.56608-7.86469,9.25049-15.66066,13.88116-23.48785,3.88618.27632,7.21748,1.31672,8.02733,5.82932Z"/>
      <path class="cls-80" d="M239.84169,162.83875c.76985-1.27083,1.5397-2.54162,2.30951-3.81245,2.51297-2.33161,5.42027-4.19833,6.98414-7.53238,1.46439-3.1219,2.40541-5.5905-2.17166-6.5553-.9776-.20608-1.77177-.87014-1.99973-1.97211,3.469-18.86467,6.90648-37.73523,10.42592-56.5905,1.0829-5.80168,2.38985-11.56153,3.59425-17.34053,4.46363.43736,7.5819-.83127,8.24193-5.89935.17822-1.36853.43864-3.46958,2.8839-3.10622-2.82712,18.86906-5.51944,37.75964-8.52661,56.59996-2.16818,13.58389-3.77217,27.27851-7.29841,40.62222-.44014,1.6655-.33957,3.28648.55932,4.805-4.91124,1.98206-9.99598.6323-15.00257.78166Z"/>
      <path class="cls-69" d="M112.96793,51.82084c-1.81485-3.12831-5.50562-3.67353-8.02707-5.82929,2.39954-5.70398,6.5134-10.03377,11.6672-13.14986,8.99598-5.43915,18.70505-9.06257,29.3095-9.87349,11.48435.01869,22.97835.30285,34.44818-.10025,3.58324-.12592,6.90722,2.73293,10.52792.61457.08281-.04845.82285.59674.8367.93556.05608,1.36993-1.28361,1.12091-1.99606,1.64292-9.02335,6.61167-19.43783,4.72984-29.50188,5.00339-.30411.00825-.60313.20323-.92372.92032,2.67514,0,5.35028-.00023,8.02542.00005,14.48133.00143,28.96273-.01646,43.44391.02978,1.76298.00563,3.70495-.57414,5.20269.98175-21.80116-.50299-43.60318-.44589-65.40243.01292-15.46831.32555-27.51725,7.65426-37.61037,18.81162Z"/>
      <path class="cls-60" d="M642.14891,85.12273c-1.51272-9.1944-6.4179-16.94943-10.60994-25.00705.29151-2.12989-1.1157-4.91768,2.26588-5.85086,5.31061,9.13506,10.61171,18.27567,15.93404,27.40389,8.34516,14.31279,16.70465,28.61723,25.05603,42.92352-1.88869,1.06679-1.58711,3.02585-1.96589,4.73004-.99018,4.45521-2.06176,8.88626-5.90664,11.93527-6.20321-7.12285-9.65058-15.82561-13.74737-24.14285-2.20394-4.47447-4.07177-9.10534-6.65131-13.40476-3.42357-5.70611-4.57711-12.0002-4.37481-18.58719Z"/>
      <path class="cls-72" d="M633.80485,54.26479c-2.42839,1.30268.3219,4.61-2.26546,5.85111-14.87808-22.82498-38.03151-28.97529-63.07888-31.33066-.95771-.09007-1.89266-.42264-2.83908-.64216,1.77714-.10952,3.55508-.21906,5.79093-.35681-2.85605-4.35114-.60475-4.91405,2.99372-4.79924,3.91908.12505,7.84781-.05369,11.77318-.10055,14.75658.14673,27.53526,5.34302,38.49254,15.13219,4.88503,4.36427,6.67603,10.49987,9.13304,16.24611Z"/>
      <path class="cls-44" d="M585.82698,418.84069c-1.2953.04882-2.59053.09764-3.88583.1464-3.50333,1.05266-7.07,1.63502-10.7423,1.4517-1.61232.05022-3.1129-.18808-4.15415-1.60817-1.44566-1.46598-3.9186-1.06835-5.18558-2.85843-2.63209-1.18979-5.16056-2.52487-6.92385-4.93386-7.0794-10.00123-4.30055-16.52013,6.34503-24.03719,8.91518-6.29518,19.40313-8.28768,30.0146-6.80168,8.37542,1.17288,16.31977,4.39892,21.6141,11.8203,1.09398,3.64381,1.78806,7.28835.03472,10.94076-1.08928,5.85617-6.16629,7.81535-10.43627,10.42272-5.09184,3.10924-10.48551,5.58468-16.68049,5.45744Z"/>
      <path class="cls-73" d="M567.0447,418.83062c1.29377.05919,2.58748.11839,3.88125.17764,2.55746,1.24477,5.45573-.37286,8.00348.95301,1.22121,4.55447,1.01727,9.21152,1.01568,13.8571-.00989,29.1313-.11997,58.26332.08135,87.39321.03948,5.71142-.35479,10.85044-5.11357,14.69429-1.96156,1.2416-4.15604,1.00073-6.313.98853-2.33661-.01318-3.32837-1.40447-3.2261-3.52145,1.32666-27.46302.23958-54.94014.51718-82.40859.02185-8.98604.01825-17.97244.08897-26.95829.01391-1.76701-.53823-3.71093,1.06475-5.17545Z"/>
      <path class="cls-2" d="M547.89738,384.9201c.82053-.0789,1.69805.00092,2.44999-.26899,1.68005-.6031,3.30433-1.05468,4.24825.97516.81302,1.7484.03845,3.20626-1.2646,4.43865-2.27839,2.155-4.44859,4.4013-5.90291,7.67231-1.70953-2.04071-2.8699-4.27162-5.68646-3.8768-.66144.09276-1.41344-.40136-1.26271-1.15262.10905-.54379.695-1.3216,1.1749-1.40892,3.63978-.66199,5.08403-3.38378,6.2773-6.39184-.00012-.00037-.03375.01312-.03375.01306Z"/>
      <path class="cls-93" d="M498.9867,392.04454c6.30775.02313,12.61556.04626,18.92233.07067-6.3133,1.36151-12.62099,1.48587-18.92233-.07067Z"/>
      <path class="cls-93" d="M554.93528,411.03833c2.82883.91408,4.73278,3.12651,6.92464,4.93373-3.21914-.36688-6.41094-.77116-6.92464-4.93373Z"/>
      <path class="cls-99" d="M649.31716,242.80848c-.51504,1.84378-1.59779,3.10323-3.07976,3.95201-7.86984,4.5076-12.71295,11.51472-16.25661,19.59455-.40599.92558-.66888,2.02398-1.75725,2.21121-1.07927.18567-1.17959-.90737-1.48337-1.64448-3.41008-8.27331-8.9305-14.75497-16.70892-19.17507-3.82944-2.17609-3.72277-4.64445-1.17215-7.63426,1.07665-1.26219,2.12321-2.55663,3.27864-3.7438,4.62361-4.75042,9.7755-9.02213,12.50943-15.36637,1.07347-2.49109,2.73003-4.01792,4.66571-.32004,4.01233,7.66514,10.20364,13.37678,16.97328,18.55061,1.27571.97501,2.81791,1.8154,3.031,3.57564Z"/>
      <path class="cls-41" d="M633.22128,327.34141c-1.28022-.47867-2.19699-1.53494-2.73827-2.71398-2.95509-6.43688-7.93001-10.81383-13.90865-14.33693-5.82785-3.43419-5.82413-4.7506-.24098-8.54959,5.89846-4.01346,10.56881-9.05054,13.59347-15.57319.51242-1.10508.72149-2.88857,2.45481-2.66986,1.25514.15833,1.58577,1.60014,2.0562,2.64774,3.26399,7.26812,8.83188,12.38526,15.57101,16.25839,3.20138,1.83994,3.99573,3.88522.765,5.90048-6.99097,4.36078-12.35657,10.02125-15.75494,17.5319-.34686.76658-.72112,1.50455-1.79765,1.50504Z"/>
      <path class="cls-28" d="M643.95095,354.96748c-3.03363,2.07299-5.49601,4.64338-7.00379,8.04511-1.44181,2.0822-2.70483,2.81419-4.40935.05529-2.18594-3.53811-4.97291-6.56344-8.57448-8.83494-2.69305-1.69854-2.39959-3.86288.03008-5.5657,3.46714-2.42979,6.24343-5.30464,7.99378-9.25155.96174-2.16867,2.50919-3.27357,4.11223-.21432,1.7985,3.43236,4.42711,6.26131,7.39715,8.65016,2.95851,2.37957,2.59767,4.59908.45438,7.11595Z"/>
      <path class="cls-17" d="M100.59085,290.20284c-4.55531-7.27053-9.77579-12.95083-16.62279-17.01155-.97187-.57637-2.65824-1.86682-.74628-3.06536,7.37346-4.62221,12.45038-11.33699,16.99597-18.5734,2.60836,1.1572,2.36139,3.71646,3.49986,5.4081,2.96651,4.40798,5.85972,8.82109,11.08733,11.01585,2.22039.9322,3.93346,2.56115.97886,4.64707-6.3317,4.47019-10.87306,10.5261-15.19295,17.57929Z"/>
      <path class="cls-77" d="M99.84522,215.84278c1.17203-1.58614,2.62463-3.03808,3.46015-4.78517,1.9968-4.1753,3.47065-3.06091,4.89434.26274,1.16715,2.72482,3.10202,4.64686,5.79002,5.84482q5.56319,4.00141.60914,8.83195c-2.27333,2.19641-4.39309,4.41893-5.87759,7.31523-1.85946,3.62785-4.05855,2.93733-5.58415-.34137-1.6054-3.45021-4.18277-6.1053-7.12721-8.1724-3.94363-2.76857-2.2954-4.37054.62139-6.10396,1.26137-.74962,2.83356-1.12019,3.21391-2.85184Z"/>
      <path class="cls-46" d="M73.0914,510.92531c4.0428,3.28712,2.64806,7.89425,2.93571,12.09295-.57212.88265.1767,2.22213-1.00118,2.89535-1.78135-4.50022-.82392-9.39233-2.00041-13.97915.02186-.33636.04386-.67279.06588-1.00915Z"/>
      <path class="cls-93" d="M585.82698,418.84069c4.59822-1.74303,9.25881-3.33972,13.77843-5.26699,5.38384-2.29572,9.89718-5.81266,13.33826-10.61324.45701,4.90847.0213,9.14336-6.50449,9.11571-1.53945-.00653-1.95643,1.59523-2.91182,2.437-5.11357,4.50565-10.80369,6.97218-17.70038,4.32752Z"/>
      <path class="cls-93" d="M578.92944,419.96127c-2.6612-.37341-5.51224.84677-8.00348-.95332,3.67181-.00696,7.34363-.01422,11.01532-.02118-.75981,1.08006-1.91939.92354-3.01184.97449Z"/>
      <path class="cls-78" d="M75.02594,525.91361c.16515-1.02392-.14319-2.21151,1.00121-2.8962,9.10072,14.93911,23.29995,21.27555,39.82949,24.02395,4.98804.82938,9.9243.85794,14.89483.85867,159.42804.02307,318.85606.00488,478.2841.0335,17.37317.00311,32.61477-5.17057,45.03121-17.6844,1.27131-1.28126,2.88015-3.34772,2.93074.70745-.49167,4.7387-1.31006,9.35749-4.7736,13.0052-11.99043,17.45147-29.31722,24.66183-49.71437,24.6802-156.71894.14139-313.43804.08623-470.15711.06334-12.44118-.00183-23.94181-3.41118-34.72546-9.62612-5.78578-3.33466-9.53898-8.66987-14.14146-13.1757-4.8663-5.79728-7.16189-12.68245-8.45958-19.98989Z"/>
      <path class="cls-89" d="M83.4855,545.9035c3.98137,3.20346,7.8027,6.6346,11.97453,9.56705,11.83886,8.32203,25.17939,11.55051,39.55,11.53763,89.45568-.08012,178.91143-.07109,268.36717-.07793,66.13386-.00506,132.26766.02526,198.40152.00812,19.71741-.00506,36.26389-7.11809,49.17834-22.2335.3003-.3515.83749-.50064,1.26545-.74364-8.10033,16.08362-21.82695,25.24949-38.2839,30.97501-3.58241,1.24636-7.31867,2.05035-10.98408,3.0581-3.00592.3562-6.0119.71239-9.01782,1.06853-9.12211.01025-18.09252,1.82932-27.25772,1.82077-132.63777-.12351-265.27584-.12925-397.91361.00744-9.66388.00995-19.17082-1.27089-28.75912-1.81064-21.15565-2.21292-39.4253-9.99507-52.67893-27.38668-1.40096-1.83835-2.56687-3.85587-3.84181-5.79027Z"/>
      <path class="cls-21" d="M140.00625,579.08045c37.94876.00665,75.89749.03051,113.84625.01666,112.86413-.04137,225.72826-.0977,338.59235-.14322.49735-.00018.99475.07091,1.49198.10887-.91792.92433-2.12376,1.01575-3.26478.87069-5.46263-.69427-9.60872,1.81315-14.1425,4.54623-5.07488,3.05932-11.48637,3.15696-17.29256,3.25618-19.44298.33246-38.90531,1.12534-58.32266.86599-14.77166-.19717-29.57474-.90126-44.34432-.57662-94.51967,2.07732-189.0488.25813-283.57078.92244-7.91588-.02789-15.83231-.13297-23.74673-.0476-3.34329.03613-4.9088-.46238-2.34164-3.91738.94581-1.2729,1.34878-2.94911,2.05541-4.57003-2.90676-1.16678-6.23275.58193-8.96-1.33222Z"/>
      <path class="cls-3" d="M443.13544,51.99073c1.25252,11.38687,2.52182,22.77195,3.75359,34.16105,1.89376,17.50951,3.58553,35.04321,5.7033,52.52538,1.38604,11.4418,1.65534,11.40497-9.50113,11.39475-7.99018-.00729-15.98036-.0014-24.89163-.0014,2.84952-2.5599,5.77617-3.18924,8.35516-4.18671,16.81736-6.50437,21.6252-23.3651,17.58749-38.36573-6.91841-25.70275-25.38697-39.6501-49.92192-46.72914-18.5394-5.34915-36.63488-2.74373-54.19808,4.1925-17.73398,7.00367-33.21592,17.49499-46.09836,31.65504-9.17713,10.08725-14.96953,21.49142-14.0715,35.61605.32443,5.10259,1.75459,9.7983,4.06109,14.27017,1.26646,2.45546.96909,3.34528-2.09331,3.46775-12.24578.48978-11.98426.59206-10.22503-11.58835,4.01547-27.80241,8.62764-55.52606,11.43196-83.49558.13023-1.29868.54427-2.56896.82611-3.85245.28751-.20516.68908-.4261.88335-.26796,4.59032,3.7354,9.13346,2.60579,13.68158-.10188,2.3032-.53384,4.63847-.46537,6.96476-.46607,38.92597-.01196,77.85194.00146,116.77793-.02053,4.02594-.00229,8.04181.08016,11.68811,1.97263,3.19986,1.66074,6.19205-.41835,9.28651-.17953Z"/>
      <path class="cls-29" d="M378.19308,72.06572c7.27528-.30405,14.02539,1.45179,20.60927,5.15339-1.87417,1.72057-3.98755,2.24056-6.06786,2.91786-16.49137,5.36877-29.99248,14.74668-39.6361,29.40551-3.19168,4.85156-6.49622,9.67756-10.21905,14.12164-9.81568,11.71732-26.68827,14.21879-39.70808,6.17872-5.60737-3.46275-6.71627-6.99717-4.04873-13.0654,2.09633-4.76882,5.45695-8.65336,8.85257-12.50819,7.96427,4.52448,13.23623.973,17.99156-5.53192,3.05059-4.17295,7.78987-6.62471,12.02066-9.51237,2.09294-1.42848,4.28865-2.32843,6.83164-.41975,5.75932,4.32282,6.64353,3.87015,7.77083-3.53946.06267-3.11171,1.97089-4.78645,4.59416-5.88714,3.84186-1.61198,7.78813-2.95457,11.90752-3.56133,3.39001-.49936,6.36908-1.77016,9.10161-3.75155Z"/>
      <path class="cls-95" d="M443.1355,51.99073c-3.06945,3.65616-6.81815,4.0397-10.64393,1.6377-1.97706-1.24126-3.86715-1.63438-6.07689-1.63306-43.14123.02551-86.28243.01867-129.42364.01849-2.90471-3.29487-5.67841-6.75259-10.11784-8.13975,2.85364-1.63212,5.88577-.45399,8.81287-.45905,45.79166-.07915,91.58347-.07192,137.37528-.0854.49936-.00015.99909.00006,1.49796-.01864,7.95857-.29813,8.92836.68252,8.57619,8.67973Z"/>
      <path class="cls-98" d="M419.93399,92.32726q4.16593,5.14527-1.89596,7.06985c-11.1486,3.55111-20.51408,10.01045-29.20219,17.68517-9.889,8.73553-18.11022,18.99139-26.72178,28.88479-2.46824,2.8356-5.02365,4.34265-8.84302,4.55297-12.83091.7066-25.62432-.16663-38.41446-.72423-4.8158-.20995-9.15333-2.61534-12.94307-5.71942-1.11741-3.19174.09157-4.07403,3.12361-3.14646,10.65961,2.88708,21.334,3.35159,32.03044.19515,8.04419.52996,13.80144-3.92205,19.18888-8.98466,4.61039-4.3324,9.12971-8.7788,13.42733-13.41836,12.7741-13.79064,28.43927-22.16455,46.86382-25.54866,1.13676-.20876,2.28028-.47361,3.38641-.84613Z"/>
      <path class="cls-68" d="M373.07823,150.03206c14.19535-16.18071,27.76745-31.09105,48.12726-37.30846,2.7398-.83667,5.98902-1.83243,8.00068.54253,2.04015,2.40862,1.03393,5.65177-.17129,8.47755-1.98993,4.66587-5.57894,7.84409-9.89938,10.17225-9.21463,4.96553-18.52421,9.75067-26.51866,16.6614-.98798.85412-2.21694,1.46363-3.6374,1.45982-4.91799-.01321-9.83591-.0051-15.90121-.0051Z"/>
      <path class="cls-74" d="M419.93399,92.32726c-.33545,1.85455-1.85946,2.30436-3.32398,2.51443-15.94448,2.28761-29.53111,9.51328-41.28415,20.19939-6.39214,5.81187-12.05331,12.42138-18.34397,18.3532-4.91918,4.63856-9.98634,9.45946-17.66779,8.57586-.77095-.0887-1.49851-.55443-2.24639-.84515,6.97248-2.47681,12.21014-7.15669,16.5149-13.01683,7.1623-9.75018,13.51596-20.14108,23.24365-27.78761,9.60158-7.54736,20.2571-12.58267,32.30862-14.66051,5.60878-.96705,7.55868,3.8663,10.79911,6.66721Z"/>
      <path class="cls-12" d="M353.90671,86.02778c.06392,3.06222-.14582,6.32728-3.3688,7.54633-2.98838,1.13035-4.90542-1.05395-6.23202-3.61415-1.3591-2.62291-3.12486-1.11399-4.57833-.23894-6.15696,3.70681-11.64811,8.24789-16.40798,13.64458-5.87951,6.66618-8.1688,6.81126-15.34342.90215,8.31352-11.22739,19.27276-19.11993,31.76687-25.0256,1.92079-.90795,3.999-1.70584,6.25673-1.25307,6.1374.31574,6.85644,1.04675,7.90694,8.0387Z"/>
      <path class="cls-5" d="M270.10997,60.02992c-1.52005,1.43666-1.74651,3.38564-2.11451,5.28697-1.0325,5.33436-4.35772,6.70126-9.01126,3.71829.65808-7.80427,2.27946-15.43658,4.11839-23.0302.45161-4.99984,4.20062-5.88255,8.14442-6.53662,1.42448-.23627,1.55742.82892,1.83954,1.76128-.80433,6.29686-1.23732,12.65196-2.97657,18.80029Z"/>
      <path class="cls-104" d="M353.90671,86.02778c-1.11354-4.177-3.57723-7.02591-7.90722-8.0387,10.23516-4.66468,20.83729-7.33415,32.19188-5.92412-.80344,3.5484-3.61226,4.52841-6.65418,4.90981-4.96671.62281-9.60222,2.32303-14.30342,3.88253-2.64368.87701-3.67633,2.50803-3.32706,5.17048Z"/>
      <path class="cls-66" d="M286.8732,43.8741c7.46366.3028,7.6078.41875,10.1179,8.13975-3.85324,4.59783-7.84879,4.3054-13.13798-.96064.01876-2.80802-1.0944-6.09301,3.02008-7.17911Z"/>
      <path class="cls-35" d="M305.03712,140.92993c-2.13737-.03954-3.22188.96592-3.12321,3.14631-2.14722-1.53256-3.94905-3.31718-4.75231-6.7704,2.96662,1.36517,5.42107,2.49463,7.87552,3.6241Z"/>
      <path class="cls-10" d="M604.91737,149.84807c-23.36256.07988-46.72499.18106-70.08761.22655-6.95619.01358-13.91256-.1291-20.86887-.20019-3.55373-1.51645-4.80515-4.99409-6.4492-7.98079-4.41875-8.02765-8.60713-16.20088-8.10808-25.78748.08409-1.61555-.48746-4.04092,2.6731-3.20016,32.09192,15.9389,65.15497,16.12734,98.77133,5.8667,4.56295-1.39275,8.8112-3.81647,13.20517-5.76284,3.27144-.97544,3.06078,1.6947,3.2845,3.41726.74333,5.72168.12302,11.41791-2.48752,16.53584-2.96223,5.80735-4.47324,12.53227-9.93282,16.88511Z"/>
      <path class="cls-26" d="M490.91365,86.0225c.76457-3.33008,3.52237-4.67243,6.18466-5.97651,5.5541-2.72073,11.5466-4.13362,17.5026-5.66309,2.31159-.59364,2.88418.37527,3.12486,2.40423.69915,5.89379,4.16379,10.19096,8.89364,13.21445,18.75628,11.98958,38.2025,12.12667,57.70785,2.14493,6.45805-3.30485,11.57418-8.44738,12.56655-16.31518.18716-1.48404.80302-2.14124,2.23092-1.86425,8.64277,1.67639,17.39966,3.09627,24.48674,8.96382,1.18863.98407,2.91054,1.9269,2.18191,4.05181-.77476.86261-1.49844,1.86264-2.60219,2.25844-5.27003,1.88961-8.99647,5.1785-10.18948,10.86802-7.91323,6.58178-17.59414,9.05399-27.24564,11.34593-24.95162,5.92519-49.41377,4.21981-73.24084-5.44362-3.07866-1.24858-6.03552-2.74483-8.63557-4.85919-2.09984-5.7722-5.90194-9.96538-11.44304-12.67058-.74785-.36508-1.08543-1.58299-1.52298-2.45921Z"/>
      <path class="cls-37" d="M622.02075,68.13394c-7.76451-1.63029-14.80955-3.44426-21.96614-4.50797-5.90206-.87725-10.61543-2.85052-15.29939-7.00266-14.62306-12.96261-42.03389-12.30361-56.61955.84296-3.721,3.35388-7.43211,5.40759-12.58834,6.01185-6.54824.76741-12.93416,2.92403-19.38806,4.48969-1.24471.30195-2.64429,1.51935-3.72124.39031-1.37896-1.4456.27205-2.79826.91664-3.97041,5.51877-10.03501,14.89267-15.13955,25.26919-18.04207,24.95736-6.98103,50.10987-7.47651,75.16035-.20034,12.15623,3.53085,23.53025,12.33998,28.23654,21.98864Z"/>
      <path class="cls-76" d="M553.58867,58.69227c9.62282-.90419,18.5549,1.00159,26.14073,7.1911,7.16935,5.8497,6.81077,12.31856-1.33002,17.15856-12.28542,7.30409-25.35273,6.81132-38.46075,2.28132-1.44334-.49878-3.33344-.64685-4.16403-2.3915-2.44694-1.64277-2.71636-2.89992.32331-4.35819,3.29048-1.57851,7.15568-2.49549,8.93532-6.27773,2.69153-3.32621,6.48441-4.18543,10.45457-4.67725,2.03234-.25179,4.84403.27412,5.17697-2.53775.32129-2.7142-2.14493-3.74624-4.35681-4.58632-1.03661-.39367-2.30451-.46152-2.71929-1.80225Z"/>
      <path class="cls-58" d="M642.14891,85.12273c3.64814,18.78567,14.31105,34.43822,22.77959,51.07365.81876,1.60844,1.33704,3.3699,1.99439,5.06072-5.70971,6.84546-13.67658,8.19489-21.86625,8.85975-3.41222.27696-2.40599-2.53427-2.42589-4.24572-.19412-16.76947-.2906-33.54013-.4135-50.31042-.02545-3.47929-.04571-6.95866-.06835-10.43798Z"/>
      <path class="cls-88" d="M604.91737,149.84807c3.14017-7.46434,8.20437-14.08545,10.0642-22.0828,1.14341-4.91701,2.81003-10.06082-.92885-14.75497,3.94838-2.58983,7.88632-5.19339,12.16916-9.34602,0,8.20996.00031,15.24964-.00006,22.28931-.00037,6.79561-.09465,13.59311.04479,20.38582.05358,2.61055-.41271,3.94502-3.47263,3.79789-5.94972-.28611-11.91677-.21331-17.87662-.28922Z"/>
      <path class="cls-84" d="M502.07671,112.906c-2.79331,5.1677-1.01141,10.242.65375,15.13235,2.65686,7.80266,6.80308,14.90781,11.23055,21.83608-4.65229.03927-9.305.04992-13.95644.1323-1.78745.03161-3.29066-.1096-3.67114-2.33121-2.40624-14.05256-5.1918-28.05471-5.77244-43.41754,4.29084,3.22231,7.90328,5.93517,11.51572,8.64802Z"/>
      <path class="cls-22" d="M471.98668,34.97237c1.03228-1.11373,2.40038-.94975,3.71075-.95007,10.09508-.00252,20.19022-.00415,30.28518.02439,1.44468.00409,3.03955-.33302,4.05401,1.19868-5.21737,2.83164-10.6554,5.24038-15.61226,8.57359-6.31769,4.24822-11.09032,9.82667-15.13853,17.65932-1.63062-7.85843-2.89608-14.57923-4.48606-21.22235-.44956-1.87823.0227-4.55676-2.81309-5.28357Z"/>
      <path class="cls-14" d="M553.58867,58.69227c2.54635.39568,5.2718.06343,7.26228,2.38323,1.39336,1.62379,2.2419,3.30039,1.50528,5.38302-.79545,2.24868-2.64954,2.7322-4.80503,2.47819-4.53042-.53393-8.35931.93193-11.6133,4.05139-1.49552,2.10713-3.69244,3.26003-5.94575,4.31159-1.75499.819-3.50363,2.18808-5.44023.31754-1.87582-1.8118-2.16385-4.03113-1.64136-6.43102.65845-3.02399,3.16434-4.55227,5.29255-6.37125,1.13535-.97034,2.32813-1.86975,3.60054-2.65778,3.7188-1.86773,7.57015-3.28456,11.78502-3.46492Z"/>
      <path class="cls-13" d="M482.78433,160.82413c-1.96375-2.00226-4.8223-2.78807-6.59987-5.11336-4.62818-6.05429-4.40691-11.03129,4.57967-12.55384,1.39196,5.80839,1.3861,11.77438,2.0202,17.6672Z"/>
      <path class="cls-62" d="M541.80359,62.15718c-1.99481,2.17386-3.98517,4.35187-5.98572,6.52048-2.11637,2.29396-2.99189,4.87543-1.02624,7.5827,2.24208,3.088,4.43632.36459,6.49588-.48279,1.6529-.68005,3.10771-1.84155,4.65046-2.78941-1.40843,4.77095-6.03601,5.40435-9.64131,6.77767-3.18649,1.21386-.36791,2.1658-.51992,3.16849-8.93282-4.75286-9.48905-10.27505-1.62342-16.48662,2.31415-1.82758,4.61958-3.71887,7.65028-4.29051Z"/>
      <path class="cls-63" d="M490.91365,86.0225c1.02648.80097,1.9355,1.97312,3.09892,2.3411,6.31287,1.99662,10.12938,5.7827,9.86716,12.78875-4.9009-2.30976-8.91146-5.68939-11.83518-10.24145-.90529-1.40947-2.30866-2.90819-1.1309-4.88839Z"/>
      <path class="cls-55" d="M613.00171,100.10917c-.04607-8.75277.4174-9.22836,12.79167-13.12658-1.85965,6.71853-7.16642,10.07773-12.79167,13.12658Z"/>
      <path class="cls-100" d="M101.91398,120.93332c1.70509-12.85032,5.72779-24.77921,13.93345-35.04498,1.8227-3.26158,4.79508-4.23406,8.30509-4.32175,1.38946-.03466,3.33078.36605,3.68054-1.60637.2841-1.60243-1.13767-2.63599-2.27644-3.60539-1.17197-.99765-2.60435-1.40035-4.0703-1.71554-1.5804-.33984-2.36068-1.13962-1.59425-2.81275,5.02328-16.93726,16.09423-25.31247,33.69648-25.30432,17.79469.00821,35.58945.12589,53.38399.22908,13.22833.07674,24.00447,8.59231,27.09121,21.46368,1.24117,5.17539,2.13514,10.41943,2.06704,15.77755-2.21597,1.65616-4.09758-.03799-6.02926-.68252-3.33637-1.11323-6.22854-.63392-8.55837,2.06896-2.13163,2.47303-1.65427,4.17694,1.45506,4.98081,1.91863.49603,3.86456.78477,5.68088,1.69058,7.4514,3.71603,8.4499,5.55078,7.45582,14.10714-1.33536,8.13298-3.16748,16.13805-6.14118,23.84918-1.59886.69339-2.8749-.37627-4.26811-.78864-6.14088-1.81769-10.12953-.43467-13.73147,4.77477-3.46159,5.00641-11.06887,4.48032-13.93145-.98188-.61497-1.17346-.81116-2.54885-1.62864-3.62962-1.30399-1.72402-3.02554-2.61268-5.20181-2.23348-2.01733.35153-3.01922,1.67993-3.5955,3.64747-3.13752,10.7121-9.49506,13.44201-18.99043,7.75939-7.80753-4.67252-15.3015-5.3743-23.56628-1.04327-8.1551,4.27358-14.88.45576-16.1937-8.7261-.36172-2.52823-.72735-4.8072-3.83182-4.75423-3.15229.05379-4.71407,1.93629-5.00678,5.06429-.37411,3.99827-1.82102,4.90463-5.2805,2.942-4.02635-2.28422-7.46077-5.52378-11.88966-7.22848-1.64832-.63444-1.61894-2.33155-.9636-3.87558Z"/>
      <path class="cls-96" d="M101.91398,120.93332c.11247.48316.08235,1.27696.35846,1.40371,5.78888,2.65735,10.50887,7.18415,16.49624,9.83775-1.54998-3.66935-.62254-6.18216,2.01993-8.5444,2.23192-1.99524,4.39184-1.80494,6.90111-.90874,2.18649.78089,3.07701,1.97089,2.84534,4.43633-.79957,8.50813,5.87643,13.44769,13.23818,9.35901,9.55776-5.3083,18.1576-4.46107,26.95385,1.6154,6.87198,4.74721,14.79128.72158,15.21347-7.60158.19494-3.84336,2.67941-4.97377,5.45326-5.21118,3.52496-.30176,6.48032,1.21972,7.54974,5.05841,1.33103,4.77773,3.78434,6.34046,8.61867,5.64555,1.25468-.18036,2.07613-.62083,2.78837-1.71587,5.56963-8.56326,11.20993-9.77346,19.64317-4.3011.27482,1.65101-.71145,2.94581-1.5173,4.10591-2.47211,3.55868-3.55541,7.33759-2.98005,11.67387.37502,2.8267-.26249,4.38156-3.97428,4.36166-36.58597-.19647-73.17338-.18994-109.75997-.09047-3.01199.00818-4.27453-1.1561-5.60322-3.6305-4.33208-8.06744-5.76444-16.50698-4.24495-25.49374Z"/>
      <path class="cls-9" d="M65.97309,141.14742c7.37109-11.2727,12.3817-23.74034,18.14595-35.8271,4.54325-9.52656,8.59182-19.30413,14.40798-28.186.99617-1.52124,1.64406-3.27583,3.44598-4.09545-2.9753,9.52158-7.21591,18.52602-11.28989,27.59675-6.83679,15.22217-8.6443,30.58294-1.38056,46.22087.77159,1.66117,1.46128,3.27525-1.4944,3.22579-8.44139-.14118-16.01107-2.40221-21.83506-8.93487Z"/>
      <path class="cls-79" d="M219.72085,34.16687c10.2438-.03227,20.48762-.07626,30.73142-.08791,2.33066-.00265,4.59575.33412,6.49945,1.86787-3.76973-.73003-5.46211,1.17718-6.24804,4.62881-1.20919,5.31021-1.75487,10.79807-4.18051,16.5653-5.92415-11.69386-15.11937-18.84003-26.80233-22.97408Z"/>
      <path class="cls-52" d="M236.13491,106.15751c-.42628-9.38809-4.05602-13.18635-13.5023-14.12908-4.67835-.4669-5.75212-2.67368-3.22027-6.61818,2.69998-4.20642,7.03787-5.45701,11.68225-3.39718,1.64899.73137,3.08559,2.01337,5.03619,1.9795,1.29093,7.38806,1.25191,14.77639.00412,22.16494Z"/>
      <path class="cls-101" d="M119.89206,71.82654c.36492.62748.20278,1.72921,1.48038,1.51184,3.54861-.60377,5.33399,2.0278,7.42095,4.09523,1.17923,1.16815,1.44969,2.66108,1.04522,4.13679-.55105,2.01065-2.41222,1.51321-3.75859,1.38558-3.83637-.36367-7.13786.85699-10.23284,2.9326.90126-4.81614,1.81022-9.62975,4.04489-14.06205Z"/>
      <path class="cls-45" d="M244.96395,142.96651c.29423.14783.57378.3468.88482.43599,7.76079,2.22475,8.66236,4.62224,3.32117,11.10018-1.64963,2.00061-3.24074,5.30931-7.0188,4.52383.1684-5.4882,1.23107-10.81956,2.81281-16.06Z"/>
      <path class="cls-15" d="M194.59049,84.08883c-6.00308.04784-11.14381-4.02469-11.3353-8.97999-.21181-5.47972,4.8793-9.75802,11.58068-9.7319,6.10902.02383,10.61351,3.72479,10.7355,8.82054.128,5.34827-4.8613,9.84257-10.98087,9.89136Z"/>
      <path class="cls-33" d="M158.74599,69.05067c-5.04214.10243-9.76879-4.04879-9.76775-8.57867.00104-4.53006,4.57592-8.45659,9.87225-8.47313,4.99445-.01559,9.24139,3.76827,9.36078,8.34.12717,4.87213-3.9222,8.59917-9.46528,8.71179Z"/>
    </g>
  </g>
</svg>