<?xml version="1.0" encoding="utf-8"?>
<!-- Generator: Adobe Illustrator 18.0.0, SVG Export Plug-In . SVG Version: 6.00 Build 0)  -->
<!DOCTYPE svg PUBLIC "-//W3C//DTD SVG 1.1//EN" "http://www.w3.org/Graphics/SVG/1.1/DTD/svg11.dtd">
<svg version="1.1" id="Layer_1" xmlns="http://www.w3.org/2000/svg" xmlns:xlink="http://www.w3.org/1999/xlink" x="0px" y="0px"
	 viewBox="0 0 445 390" enable-background="new 0 0 445 390" xml:space="preserve">
<g>
	<path fill="#3A4D54" d="M158.8,352.2h-25.9c3.2,0,5.8-2.6,5.8-5.9s-2.6-5.9-5.8-5.9h-19c3.2,0,5.8-2.6,5.8-5.9s-2.6-5.9-5.8-5.9
		h25.3c3.2,0,5.8-2.6,5.8-5.9c0-3.2-2.6-5.9-5.8-5.9h-15.9c3.2,0,5.8-2.6,5.8-5.9s-2.6-5.9-5.8-5.9h6.8c3.2,0,5.8-2.6,5.8-5.9
		c0-3.2-2.6-5.9-5.8-5.9H64.9c-0.1,0-0.3,0-0.4,0c3,0.2,5.4,2.7,5.4,5.9c0,3.1-2.4,5.7-5.4,5.9c0.1,0,0.3,0,0.4,0h-0.8h-6.1
		c-3.2,0-5.8,2.6-5.8,5.9s2.6,5.9,5.8,5.9H74h3.7c3.2,0,5.8,2.6,5.8,5.9c0,3.2-2.6,5.9-5.8,5.9H74H47.9c-3.2,0-5.8,2.6-5.8,5.9
		s2.6,5.9,5.8,5.9h44.8H93c0,0-0.1,0-0.1,0c3.1,0.1,5.6,2.7,5.6,5.9c0,3.2-2.5,5.8-5.6,5.9c0,0,0.1,0,0.1,0h-0.2
		c-3.2,0-5.8,2.6-5.8,5.9c0,3.2,2.6,5.9,5.8,5.9h66c3.2,0,5.8-2.6,5.8-5.9C164.6,354.8,162,352.2,158.8,352.2z"/>
	<circle fill="#FBBF45" stroke="#3A4D54" stroke-width="4" stroke-miterlimit="10" cx="214.6" cy="124.2" r="68.7"/>
	<circle fill="#3A4D54" cx="367.5" cy="335.5" r="5.9"/>
	<g>
		<polygon fill="#E8593A" stroke="#3A4D54" stroke-width="4" stroke-miterlimit="10" points="116.1,199.1 116.1,214.6 302.9,214.5 
			302.9,199.1 		"/>
		<rect x="159.4" y="78.6" fill="#3A4D54" width="4.2" height="50.4"/>
		<rect x="174.5" y="93.8" fill="#3A4D54" width="4.2" height="35.1"/>
		<rect x="280.2" y="108.2" fill="#3A4D54" width="4.2" height="20.8"/>
		<rect x="190.2" y="106.9" fill="#3A4D54" width="4.2" height="22"/>
		<rect x="143.3" y="59.8" fill="#3A4D54" width="4.2" height="69.1"/>
		<path fill="#3A4D54" d="M294.3,107.9c3.5-2.3,6.9-4.8,10.4-7.4V87.7c-5.2,4.3-10.6,8.2-15.9,11.6c-7.8,4.9-15.1,8.5-22.4,11
			c-7.9,2.8-15.7,4.3-23.4,4.7c-7.6,0.3-15.3-0.5-22.8-2.6c-6.9-1.9-13.7-4.7-20.4-8.6C188.8,97.5,178.4,89,168,77.6
			c-7.7-8.4-14.7-17.7-21.6-28.2c-5-7.8-9.6-15.8-13.6-23.9c-4-8.1-6.1-13.5-6.9-16c-0.7-1.8-1-3.1-1.2-3.8l0-0.1l0.1-2.7l-0.5,0
			l0-0.1H123l-8.1-0.6l-3.1-0.1l-0.1,3.4l0,0.4c0,1.2,0.2,1.9,0.3,2.5l0,0.1c0.3,1.4,0.9,3.2,1.7,5.3c1.2,3.4,3.6,9.1,7.7,17.2
			c4.3,8.4,9.2,16.8,14.6,25c7.3,11.1,14.9,20.8,23.2,29.6c11.4,12.1,22.9,21.3,35.1,28.1c7.6,4.2,15.4,7.4,23.2,9.4
			c7,1.8,14.2,2.7,21.4,2.7c0,0,0,0,0,0c1.6,0,3.2,0,4.7-0.1c8.7-0.5,17.6-2.4,26.4-5.6 M141.1,52.8c-5.2-7.9-10-16.1-14.2-24.4
			c-4-7.9-6.3-13.4-7.5-16.6c-0.5-1.3-0.8-2.4-1.1-3.3l1,0.1c0.3,0.9,0.6,1.9,1,2.9c1.6,4.5,4.2,10.4,7.2,16.6
			c4.1,8.3,8.8,16.5,13.9,24.5c5.5,8.5,11.1,16.2,17.1,23.3C152.4,68.9,146.7,61.3,141.1,52.8z"/>
		<path fill="#E8593A" stroke="#3A4D54" stroke-width="4" stroke-miterlimit="10" d="M340.9,53h-7.9h-4.3v8.2h-19.4V53h-4.3h-7.9
			h-4.3v8.2v2.7v186.7c0,0.8,0.6,1.4,1.3,1.4h3h42.4h4.3c0.7,0,1.3-0.6,1.3-1.4V62v-0.8V53H340.9z M334.8,206.6h-31.5V152
			c0-0.4,0.3-0.7,0.6-0.7h30.2c0.4,0,0.6,0.3,0.6,0.7V206.6z M334.8,142.1h-31.5V125c0-0.4,0.3-0.7,0.6-0.7h30.2
			c0.4,0,0.6,0.3,0.6,0.7V142.1z M334.8,115.1h-31.5V97.9c0-0.4,0.3-0.7,0.6-0.7h30.2c0.4,0,0.6,0.3,0.6,0.7V115.1z M334.8,88h-31.5
			V70.9c0-0.4,0.3-0.7,0.6-0.7h30.2c0.4,0,0.6,0.3,0.6,0.7V88z"/>
		<polygon fill="#E8593A" points="272.2,203 286.7,201.1 297.2,201.1 297.2,214.6 271.7,214.6 		"/>
		<path fill="#E8593A" d="M298.7,96.2c-2.7,2-5.5,3.9-8.3,5.7c-7.3,4.6-15,8.5-23,11.3c-7.9,2.8-16.1,4.5-24.3,4.8
			c-8.1,0.4-16.1-0.6-23.7-2.7c-7.6-2-14.6-5.1-21.1-8.9c-13-7.5-23.7-17.1-32.6-26.8c-8.9-9.8-16-19.6-21.9-28.6
			c-5.8-9-10.3-17.3-13.7-24.2c-3.4-6.9-5.7-12.5-7.1-16.3c-0.7-1.9-1.1-3.3-1.3-4.2c-0.1-0.4-0.1-0.7-0.1-0.4l0,0.1
			c0,0,0-0.1,0-0.1c0-0.1,0-0.1,0-0.1c0-0.1,0-0.1,0-0.1l-7-0.5c0,0,0,0,0,0.1c0,0,0,0.1,0,0.1c0,0,0,0.1,0,0.1c0,0.1,0,0.2,0,0.3
			c0,0.9,0.1,1.4,0.3,2.1c0.3,1.3,0.8,2.9,1.6,5c1.5,4.1,4,9.8,7.6,16.9c3.6,7.1,8.3,15.5,14.4,24.7c6.1,9.2,13.5,19.2,22.9,29.2
			c9.3,9.9,20.5,19.8,34.3,27.5c6.9,3.8,14.4,7,22.5,9.1c8,2.1,16.6,3,25.2,2.5c8.6-0.5,17.3-2.4,25.5-5.4c8.3-3,16.2-7.2,23.7-12
			c2-1.3,4.1-2.7,6-4.2V96.2z"/>
		<path fill="#E8593A" stroke="#3A4D54" stroke-width="4" stroke-miterlimit="10" d="M122.9,4.2h-3.2h-6.6v11.7H66.1V4.2h-4.6h-6.2
			h-6.6v11.7v3.8v265.1c0,1.1,0.9,2,2,2h4.6h65.7h6.6c1.1,0,2-0.9,2-2V17v-1.1V4.2H122.9z M113.5,204.2H64.7v-59.4c0-0.6,0.4-1,1-1
			h46.7c0.6,0,1,0.4,1,1V204.2z M113.5,130.8H64.7v-24.3c0-0.6,0.4-1,1-1h46.7c0.6,0,1,0.4,1,1V130.8z M113.5,92.4H64.7V68.1
			c0-0.6,0.4-1,1-1h46.7c0.6,0,1,0.4,1,1V92.4z M113.5,54H64.7V29.7c0-0.6,0.4-1,1-1h46.7c0.6,0,1,0.4,1,1V54z"/>
		<g>
			<g>
				<path fill="#2BB8EB" stroke="#3A4D54" stroke-width="5" stroke-miterlimit="10" d="M435.8,132.9H364c-1.4,0-2.6,1.3-2.6,3v44.2
					c0,1.7,1.2,3,2.6,3h71.8c2.5,0,3.6-3.7,1.5-5.4l-11.4-13.5c-3.2-3.3-3.2-9,0-12.3l11.4-13.5
					C439.3,136.6,438.3,132.9,435.8,132.9z"/>
				<path fill="#FFFFFF" stroke="#3A4D54" stroke-width="5" stroke-miterlimit="10" d="M9.8,183.1h129.7c1.4,0,2.6-1.3,2.6-3v-44.2
					c0-1.7-1.2-3-2.6-3H9.8c-2.5,0-3.6,3.7-1.5,5.4l11.4,13.5c3.2,3.3,3.2,9,0,12.3L8.3,177.7C6.2,179.4,7.3,183.1,9.8,183.1z"/>
				<path fill="#FFFFFF" stroke="#3A4E55" stroke-width="5" stroke-miterlimit="10" d="M402.5,190H42.1c-3.6,0-6.5-1.1-6.5-4.6
					v-54.7c0-3.6,2.9-6.5,6.5-6.5h360.4c3.6,0,6.5,2.9,6.5,6.5v52.9C409,187.1,406.1,190,402.5,190z"/>
				<path fill="#2BB8EB" d="M402.5,124.2h-46.3V190h46.3c3.6,0,6.5-2.9,6.5-6.5v-52.9C409,127.1,406.1,124.2,402.5,124.2z"/>
				<g>
					<path fill="#FFFFFF" d="M376.2,144.3v21.3c0,1.1-0.9,2-2,2c-1.1,0-2-0.9-2-2v-17.8l-1.4,0.8c-0.3,0.2-0.7,0.3-1,0.3
						c-0.7,0-1.3-0.4-1.7-1c-0.6-0.9-0.3-2.2,0.7-2.7l4.4-2.6c0,0,0.1,0,0.1-0.1c0.1,0,0.1-0.1,0.2-0.1c0.1,0,0.1,0,0.2,0
						c0,0,0.1,0,0.1,0c0.1,0,0.2,0,0.3,0c0,0,0.1,0,0.1,0h0c0.1,0,0.2,0,0.3,0c0,0,0.1,0,0.1,0c0.1,0,0.1,0,0.2,0.1c0,0,0.1,0,0.1,0
						c0.1,0.1,0.1,0.1,0.2,0.1c0,0,0.1,0.1,0.1,0.1c0,0,0.1,0.1,0.1,0.1c0.1,0,0.1,0.1,0.1,0.1c0,0,0.1,0.1,0.1,0.1
						c0,0,0.1,0.1,0.1,0.1l0,0.1c0,0,0,0.1,0,0.1c0,0.1,0.1,0.1,0.1,0.2c0,0.1,0,0.1,0.1,0.2c0,0.1,0,0.1,0,0.2c0,0.1,0,0.2,0.1,0.3
						C376.2,144.3,376.2,144.3,376.2,144.3z"/>
					<path fill="#FFFFFF" d="M393.4,152.3c1.8,1.7,2.6,4.1,2.6,6.4c0,2.3-0.9,4.6-2.6,6.3c-1.7,1.8-4.1,2.6-6.3,2.6
						c-0.1,0-0.1,0-0.1,0c-2.2,0-4.6-0.9-6.3-2.6c-0.8-0.8-0.8-2.1,0-2.9c0.8-0.8,2.1-0.8,2.9,0c0.9,1,2.2,1.4,3.5,1.4
						c1.2,0,2.5-0.5,3.4-1.4c0.9-0.9,1.4-2.2,1.4-3.4c0-1.3-0.5-2.5-1.4-3.5c-0.9-1-2.2-1.4-3.4-1.4c-1.2,0-2.5,0.4-3.5,1.4
						c-0.8,0.8-2.1,0.8-2.9,0c-0.1-0.1-0.3-0.3-0.4-0.5c0-0.1,0-0.1,0-0.1c0-0.1,0-0.1-0.1-0.2c0-0.1,0-0.2,0-0.3c0,0,0,0,0-0.1
						c0-0.2,0-0.4,0-0.6l1.1-9.4c0.1-0.6,0.4-1.1,0.9-1.4c0.1,0,0.1,0,0.1-0.1c0,0,0.1,0,0.1-0.1c0.3-0.1,0.6-0.2,0.9-0.2h9.2
						c1.2,0,2.1,0.9,2.1,2.1c0,1.1-0.9,2-2.1,2h-7.4l-0.4,3.6c0.8-0.2,1.6-0.3,2.4-0.3C389.4,149.7,391.7,150.6,393.4,152.3z"/>
				</g>
				<g>
					<path fill="#3A4D54" d="M157.8,142.1L157.8,142.1l-0.9,0c-0.7,0-2.6,2-3,2.5c-1.7,1.7-3.5,3.4-5.2,5.1v-13.7
						c0-1.2-0.8-2.2-2-2.2h-0.3c-1.3,0-2,1-2,2.2v29.9c0,1.2,0.8,2.2,2,2.2h0.3c1.3,0,2-1,2-2.2v-5.3l3.4,3.3c1,1,2,2,3,3
						c0.5,0.5,1.3,1.3,2.1,1.3h0.4c1.1,0,1.8-0.8,2-1.8l0-0.1v-0.5c0-0.4-0.1-0.7-0.3-1c-0.2-0.3-0.5-0.6-0.7-0.8
						c-0.6-0.7-1.2-1.3-1.9-1.9c-2.3-2.3-4.6-4.6-6.9-6.9l5.3-5.4c1-1.1,2.1-2.1,3.1-3.2c0.5-0.5,1.3-1.4,1.3-2.1V144
						C159.6,142.9,158.9,142.3,157.8,142.1z"/>
					<path fill="#3A4D54" d="M138.9,143.9l-0.2-0.1c-1.9-1.3-4.1-2-6.5-2h-0.9c-2.2,0-4.3,0.6-6.2,1.7c-4.1,2.4-6.5,6.2-6.5,11v0.9
						c0,1.1,0.1,2.2,0.5,3.3c1.9,6.3,6.8,9.9,13.4,9.5c1.9-0.1,6.8-0.7,6.8-3.4v-0.4c0-1.1-0.8-1.7-1.8-1.9l-0.1,0h-0.8l-0.2,0.1
						c-1.1,0.5-2.7,1.2-3.9,1.2c-1.3,0-2.9-0.1-4.2-0.7c-3.4-1.6-5.4-4.3-5.4-8c0-1.2,0.2-2.4,0.8-3.6c1.6-3.3,4.2-5.3,7.9-5.2
						c0.7,0,2,0.1,2.6,0.4c0.6,0.3,2.1,1,2.7,1h0.3l0.1,0c1-0.2,1.9-0.8,1.9-1.9v-0.4c0-0.4-0.2-0.8-0.4-1.2L138.9,143.9z"/>
					<path fill="#3A4D54" d="M85.2,133.7h-0.4c-1.3,0-2,1-2,2.2v9.3c-2.3-2-5.1-3.3-8.3-3.3h-0.9c-2.2,0-4.3,0.6-6.2,1.7
						c-4.1,2.4-6.5,6.2-6.5,11v0.9c0,2.2,0.6,4.3,1.7,6.2c2.4,4.1,6.2,6.5,11,6.5h0.9c2.2,0,4.3-0.6,6.2-1.7c4.1-2.4,6.5-6.2,6.5-11
						v-19.6C87.2,134.6,86.5,133.7,85.2,133.7z M81.6,159.3c-1.7,2.9-4.2,4.5-7.6,4.5c-1.4,0-2.7-0.4-3.9-1c-3-1.7-4.7-4.3-4.7-7.7
						c0-1.2,0.2-2.4,0.8-3.6c1.6-3.3,4.3-5.2,8-5.2c1.8,0,3.4,0.5,4.9,1.6c2.4,1.7,3.8,4.1,3.8,7.1C82.8,156.5,82.4,158,81.6,159.3z
						"/>
					<path fill="#3A4D54" d="M103.1,141.9h-0.6c-2.2,0-4.3,0.6-6.2,1.7c-4.1,2.4-6.5,6.2-6.5,11v0.9c0,2.2,0.6,4.3,1.7,6.2
						c2.4,4.1,6.2,6.5,11,6.5h0.9c2.2,0,4.3-0.6,6.2-1.7c4.1-2.4,6.5-6.2,6.5-11v-0.9c0-2-0.5-4-1.5-5.8
						C112.1,144.4,108.2,141.9,103.1,141.9z M110.5,159.3c-1.7,2.8-4.2,4.5-7.5,4.5c-1.6,0-3-0.4-4.3-1.2c-2.8-1.7-4.5-4.2-4.5-7.6
						c0-1.2,0.2-2.4,0.8-3.6c1.6-3.3,4.3-5.2,8-5.2c1.7,0,3.3,0.5,4.7,1.4c2.6,1.7,4.1,4.1,4.1,7.2
						C111.7,156.5,111.3,158,110.5,159.3z"/>
					<path fill="#3A4D54" d="M186.4,148c-1.2-2.1-3-3.7-5.2-4.8c-4-2-8.3-2.2-12.2,0.1l-0.6,0.3c-1.6,0.9-3,2.1-4,3.6
						c-3,4.4-3.4,9.3-0.7,14l0.3,0.5c1.1,2,2.7,3.6,4.6,4.6c4.2,2.3,8.6,2.6,12.8,0.2l0.4-0.2c1.1-0.7,1.4-1.8,0.8-3
						c-0.2-0.5-0.7-0.8-1.2-1.1l-0.1-0.1l-0.1,0c-0.8-0.1-2.9,0.8-3.8,1.2c-1.6,0.3-3.5,0.4-5.1-0.2c2.9-2.5,5.8-5.1,8.8-7.6
						c1.3-1.1,2.7-2.4,4.1-3.5c1.2-0.9,2.3-2.2,1.4-3.8L186.4,148z M178.4,152.1c-3.3,2.8-6.5,5.6-9.8,8.4c-0.3-0.4-0.6-0.8-0.9-1.2
						c-0.7-1.2-1.1-2.5-1.1-3.9c-0.1-3.5,1.2-6.3,4.2-8.1c2.3-1.3,4.8-1.7,7.4-0.7c1.3,0.5,2.7,1.3,3.6,2.4
						C180.7,150.2,179.5,151.2,178.4,152.1z"/>
					<path fill="#3A4D54" d="M204.2,142.1h-0.4c-2.6,0-5,0.8-7.1,2.3c-3.5,2.5-5.6,6-5.6,10.4V166c0,1.2,0.8,2.2,2,2.2h0.3
						c1.3,0,2-1,2-2.2v-10.7c0-2.4,0.7-4.5,2.4-6.2c1.4-1.3,3.3-2.5,5.2-2.5c1.5,0,3.3-0.5,3.3-2.3
						C206.4,142.9,205.5,142.1,204.2,142.1z"/>
				</g>
				<g>
					<path fill-rule="evenodd" clip-rule="evenodd" fill="#2BB8EB" d="M281.3,146.6c-0.7-0.3-1.9-0.4-2.6-0.4
						c-3.7-0.1-6.4,1.9-7.9,5.2c-0.5,1.1-0.8,2.3-0.8,3.6c0,3.8,2,6.4,5.4,8c1.2,0.6,2.8,0.7,4.2,0.7c1.2,0,2.9-0.7,3.9-1.2l0.2-0.1
						h0.8l0.1,0c1,0.2,1.8,0.8,1.8,1.9v0.4c0,2.7-4.9,3.3-6.8,3.4c-6.6,0.5-11.6-3.2-13.4-9.5c-0.3-1.1-0.5-2.2-0.5-3.3v-0.9
						c0-4.8,2.4-8.6,6.5-11c1.9-1.1,4-1.7,6.2-1.7h0.9c2.4,0,4.5,0.7,6.5,2l0.2,0.1l0.1,0.2c0.2,0.3,0.4,0.7,0.4,1.2v0.4
						c0,1.1-0.8,1.7-1.9,1.9l-0.1,0H284C283.4,147.6,281.9,146.9,281.3,146.6z"/>
					<path fill-rule="evenodd" clip-rule="evenodd" fill="#2BB8EB" d="M301.3,141.9h0.6c5.1,0,9,2.5,11.5,6.9c1,1.8,1.5,3.7,1.5,5.8
						v0.9c0,4.8-2.4,8.6-6.5,11c-1.9,1.1-4,1.7-6.2,1.7h-0.9c-4.8,0-8.6-2.4-11-6.5c-1.1-1.9-1.7-4-1.7-6.2v-0.9
						c0-4.8,2.4-8.6,6.5-11C297,142.4,299.1,141.9,301.3,141.9z M293,155c0,3.4,1.6,5.8,4.5,7.6c1.3,0.8,2.8,1.2,4.3,1.2
						c3.3,0,5.8-1.7,7.5-4.5c0.8-1.3,1.2-2.8,1.2-4.4c0-3.1-1.5-5.5-4.1-7.2c-1.4-0.9-3-1.4-4.7-1.4c-3.7,0-6.4,1.9-8,5.2
						C293.3,152.6,293,153.8,293,155z"/>
					<path fill="#2BB8EB" d="M344,148.8c-2.5-4.5-6.4-6.9-11.5-6.9h-0.6c-2.2,0-4.3,0.6-6.2,1.7c-4.1,2.4-6.5,6.2-6.5,11v0.3v11
						c0,1.2,0.8,2.2,2,2.2h0.3c1.3,0,2-1,2-2.2v-11h0c0-1.2,0.3-2.4,0.8-3.5c1.6-3.3,4.3-5.2,8-5.2c1.7,0,3.3,0.5,4.7,1.4
						c2.6,1.7,4.1,4.1,4.1,7.2v11c0,1.2,0.8,2.2,2,2.2h0.3c1.3,0,2-1,2-2.2v-11v-0.3C345.5,152.6,345,150.6,344,148.8z"/>
				</g>
			</g>
			<path fill="none" stroke="#3A4D54" stroke-width="5" stroke-miterlimit="10" d="M402.5,190H42.1c-3.6,0-6.5-2.9-6.5-6.5v-52.9
				c0-3.6,2.9-6.5,6.5-6.5h360.4c3.6,0,6.5,2.9,6.5,6.5v52.9C409,187.1,406.1,190,402.5,190z"/>
		</g>
		<polygon fill="#E8593A" points="147.8,203 133.3,201.1 122.8,201.1 122.8,214.6 148.3,214.6 		"/>
		<rect x="353.6" y="124.2" fill="#3A4D54" width="5.1" height="55.2"/>
	</g>
	<g>
		<path fill="#3A4D54" d="M91.8,293.4H20.2c-3.2,0-5.8-2.6-5.8-5.9s2.6-5.9,5.8-5.9h71.6c3.2,0,5.8,2.6,5.8,5.9S95,293.4,91.8,293.4
			z"/>
	</g>
	<path fill="#3A4D54" d="M428.9,282.7h-83c-3.2,0-5.8,2.6-5.8,5.9c0,3.2,2.6,5.9,5.8,5.9h-54.7c-3.2,0-5.8,2.6-5.8,5.9
		c0,3.2,2.6,5.9,5.8,5.9H308c-3.2,0-5.8,2.6-5.8,5.9c0,3.2,2.6,5.9,5.8,5.9h-28.9c-3.2,0-5.8,2.6-5.8,5.9c0,3.2,2.6,5.9,5.8,5.9H262
		c-3.2,0-5.8,2.6-5.8,5.9s2.6,5.9,5.8,5.9h13.7c-3.2,0-5.8,2.6-5.8,5.9s2.6,5.9,5.8,5.9h-37.8c-3.2,0-5.8,2.6-5.8,5.9
		c0,3,2.2,5.5,5.1,5.8h-48.8c-0.9-0.6-2-1-3.2-1h-47.1c3.2,0,5.8,2.6,5.8,5.9c0,3.2-2.6,5.9-5.8,5.9h-2.8c-3.2,0-5.8,2.9-5.8,6.4
		c0,3.5,2.6,6.4,5.8,6.4h58.5h7.5H286c3.2,0,5.8-2.6,5.8-5.9c0-3.2-2.6-5.9-5.8-5.9H286h-2.7c-3.2,0-5.8-2.6-5.8-5.9
		c0-3.2,2.6-5.9,5.8-5.9h66c0.2,0,0.4,0,0.6,0h6.7c3.2,0,5.8-2.6,5.8-5.9c0-3.2-2.6-5.9-5.8-5.9h-27.2c0,0,0,0,0,0h-0.7
		c-3.2,0-5.8-2.6-5.8-5.9c0-3.2,2.6-5.9,5.8-5.9h0.7h14.1c3.2,0,5.8-2.6,5.8-5.9s-2.6-5.9-5.8-5.9h0.2c-3.2,0-5.8-2.6-5.8-5.9
		c0-3.2,2.6-5.9,5.8-5.9h0.7h28.9c3.2,0,5.8-2.6,5.8-5.9c0-3.2-2.6-5.9-5.8-5.9h-16.1h-0.8c0.1,0,0.3,0,0.4,0
		c-3-0.2-5.4-2.7-5.4-5.9c0-3.1,2.4-5.7,5.4-5.9c-0.1,0-0.3,0-0.4,0h0.8h65.2h6.5c3.2,0,5.8-2.6,5.8-5.9
		C434.6,285.3,432.1,282.7,428.9,282.7z"/>
	<g>
		<path id="outline_3_" fill-rule="evenodd" clip-rule="evenodd" fill="#3A4D54" d="M258,210.8h37v37.8h18.7
			c8.6,0,17.5-1.5,25.7-4.3c4-1.4,8.5-3.3,12.5-5.6c-5.2-6.8-7.9-15.4-8.7-23.9c-1.1-11.5,1.3-26.5,9.1-35.6l3.9-4.5l4.6,3.7
			c11.7,9.4,21.5,22.5,23.2,37.4c14-4.1,30.5-3.2,42.9,4l5.1,2.9l-2.7,5.2c-10.5,20.4-32.3,26.7-53.7,25.6
			C343.5,333.3,273.8,371,189.4,371c-43.6,0-83.7-16.3-106.5-55l-0.4-0.6l-3.3-6.8c-7.7-17-10.3-35.7-8.5-54.4l0.5-5.6h31.6v-37.8
			h37v-37h73.9v-37H258V210.8z"/>
		<g id="body_colors_3_">
			<path fill="#08AADA" d="M377.8,224.8c2.5-19.3-11.9-34.4-20.9-41.6c-10.3,11.9-11.9,43.1,4.3,56.3c-9,8-28,15.3-47.5,15.3H76.8
				c-1.9,20.3,1.7,39,9.8,55l2.7,4.9c1.7,2.9,3.6,5.7,5.6,8.4h0c9.7,0.6,18.7,0.8,26.9,0.7c0,0,0,0,0,0c16.1-0.4,29.3-2.3,39.3-5.7
				c1.5-0.5,3.1,0.3,3.6,1.8c0.5,1.5-0.3,3.1-1.8,3.6c-1.3,0.5-2.7,0.9-4.1,1.3c0,0,0,0,0,0c-7.9,2.2-16.3,3.8-27.2,4.4
				c0.6,0-0.7,0.1-0.7,0.1c-0.4,0-0.8,0.1-1.2,0.1c-4.3,0.2-8.9,0.3-13.6,0.3c-5.2,0-10.3-0.1-15.9-0.4l-0.1,0.1
				c19.7,22.2,50.6,35.5,89.3,35.5c81.9,0,151.3-36.3,182.1-117.8c21.8,2.2,42.8-3.3,52.3-21.9C408.6,216.4,389,219.2,377.8,224.8z"
				/>
			<path fill="#2BB8EB" d="M377.8,224.8c2.5-19.3-11.9-34.4-20.9-41.6c-10.3,11.9-11.9,43.1,4.3,56.3c-9,8-28,15.3-47.5,15.3H90.8
				c-1,31.1,10.6,54.7,31,69c0,0,0,0,0,0c16.1-0.4,29.3-2.3,39.3-5.7c1.5-0.5,3.1,0.3,3.6,1.8c0.5,1.5-0.3,3.1-1.8,3.6
				c-1.3,0.5-2.7,0.9-4.1,1.3c0,0,0,0,0,0c-7.9,2.2-17,3.9-27.9,4.6c0,0-0.3-0.3-0.3-0.3c27.9,14.3,68.3,14.2,114.6-3.6
				c51.9-20,100.3-58,134-101.5C378.8,224.3,378.3,224.6,377.8,224.8z"/>
			<path fill="#088CB9" d="M76.6,279.5c1.5,10.9,4.7,21.1,9.4,30.4l2.7,4.9c1.7,2.9,3.6,5.7,5.6,8.4c9.7,0.6,18.7,0.8,26.9,0.7
				c16.1-0.4,29.3-2.3,39.3-5.7c1.5-0.5,3.1,0.3,3.6,1.8c0.5,1.5-0.3,3.1-1.8,3.6c-1.3,0.5-2.7,0.9-4.1,1.3c0,0,0,0,0,0
				c-7.9,2.2-17,3.9-27.8,4.5c-0.4,0-1,0-1.4,0c-4.3,0.2-8.9,0.4-13.6,0.4c-5.2,0-10.4-0.1-16.1-0.4c19.7,22.2,50.8,35.5,89.5,35.5
				c70.1,0,131.1-26.6,166.5-85.4H76.6z"/>
			<path fill="#069BC6" d="M92.9,279.5c4.2,19.1,14.3,34.1,28.9,44.3c16.1-0.4,29.3-2.3,39.3-5.7c1.5-0.5,3.1,0.3,3.6,1.8
				c0.5,1.5-0.3,3.1-1.8,3.6c-1.3,0.5-2.7,0.9-4.1,1.3c0,0,0,0,0,0c-7.9,2.2-17.2,3.9-28,4.5c27.9,14.3,68.2,14.1,114.5-3.7
				c28-10.8,55-26.8,79.2-46.1H92.9z"/>
		</g>
		<g id="Containers_3_">
			<path fill-rule="evenodd" clip-rule="evenodd" fill="#00ACD2" d="M135.8,219.7h2.5v26.7h-2.5V219.7z M130.9,219.7h2.6v26.7h-2.6
				V219.7z M126.1,219.7h2.6v26.7h-2.6V219.7z M121.2,219.7h2.6v26.7h-2.6V219.7z M116.3,219.7h2.6v26.7h-2.6V219.7z M111.6,219.7
				h2.5v26.7h-2.5V219.7z M108.9,217h32v32h-32V217z"/>
			<path fill-rule="evenodd" clip-rule="evenodd" fill="#00ACD2" d="M172.7,182.7h2.5v26.7h-2.5V182.7z M167.9,182.7h2.6v26.7h-2.6
				V182.7z M163,182.7h2.6v26.7H163V182.7z M158.2,182.7h2.6v26.7h-2.6V182.7z M153.3,182.7h2.6v26.7h-2.6V182.7z M148.6,182.7h2.5
				v26.7h-2.5V182.7z M145.9,180h32v32h-32V180z"/>
			<path fill-rule="evenodd" clip-rule="evenodd" fill="#26C2EE" d="M172.7,219.7h2.5v26.7h-2.5V219.7z M167.9,219.7h2.6v26.7h-2.6
				V219.7z M163,219.7h2.6v26.7H163V219.7z M158.2,219.7h2.6v26.7h-2.6V219.7z M153.3,219.7h2.6v26.7h-2.6V219.7z M148.6,219.7h2.5
				v26.7h-2.5V219.7z M145.9,217h32v32h-32V217z"/>
			<path fill-rule="evenodd" clip-rule="evenodd" fill="#00ACD2" d="M209.7,219.7h2.5v26.7h-2.5V219.7z M204.8,219.7h2.6v26.7h-2.6
				V219.7z M200,219.7h2.6v26.7H200V219.7z M195.1,219.7h2.6v26.7h-2.6V219.7z M190.3,219.7h2.6v26.7h-2.6V219.7z M185.5,219.7h2.5
				v26.7h-2.5V219.7z M182.9,217h32v32h-32V217z"/>
			<path fill-rule="evenodd" clip-rule="evenodd" fill="#26C2EE" d="M209.7,182.7h2.5v26.7h-2.5V182.7z M204.8,182.7h2.6v26.7h-2.6
				V182.7z M200,182.7h2.6v26.7H200V182.7z M195.1,182.7h2.6v26.7h-2.6V182.7z M190.3,182.7h2.6v26.7h-2.6V182.7z M185.5,182.7h2.5
				v26.7h-2.5V182.7z M182.9,180h32v32h-32V180z"/>
			<path fill-rule="evenodd" clip-rule="evenodd" fill="#26C2EE" d="M246.7,219.7h2.5v26.7h-2.5V219.7z M241.8,219.7h2.6v26.7h-2.6
				V219.7z M237,219.7h2.6v26.7H237V219.7z M232.1,219.7h2.6v26.7h-2.6V219.7z M227.3,219.7h2.6v26.7h-2.6V219.7z M222.5,219.7h2.5
				v26.7h-2.5V219.7z M219.8,217h32v32h-32V217z"/>
			<path fill-rule="evenodd" clip-rule="evenodd" fill="#00ACD2" d="M246.7,182.7h2.5v26.7h-2.5V182.7z M241.8,182.7h2.6v26.7h-2.6
				V182.7z M237,182.7h2.6v26.7H237V182.7z M232.1,182.7h2.6v26.7h-2.6V182.7z M227.3,182.7h2.6v26.7h-2.6V182.7z M222.5,182.7h2.5
				v26.7h-2.5V182.7z M219.8,180h32v32h-32V180z"/>
			<path fill-rule="evenodd" clip-rule="evenodd" fill="#26C2EE" d="M246.7,145.7h2.5v26.7h-2.5V145.7z M241.8,145.7h2.6v26.7h-2.6
				V145.7z M237,145.7h2.6v26.7H237V145.7z M232.1,145.7h2.6v26.7h-2.6V145.7z M227.3,145.7h2.6v26.7h-2.6V145.7z M222.5,145.7h2.5
				v26.7h-2.5V145.7z M219.8,143.1h32v32h-32V143.1z"/>
			<path fill-rule="evenodd" clip-rule="evenodd" fill="#00ACD2" d="M283.6,219.7h2.5v26.7h-2.5V219.7z M278.8,219.7h2.6v26.7h-2.6
				V219.7z M273.9,219.7h2.6v26.7h-2.6V219.7z M269.1,219.7h2.6v26.7h-2.6V219.7z M264.2,219.7h2.6v26.7h-2.6V219.7z M259.5,219.7
				h2.5v26.7h-2.5V219.7z M256.8,217h32v32h-32V217z"/>
		</g>
		<path fill-rule="evenodd" clip-rule="evenodd" fill="#D4EDF1" d="M175.9,301c4.9,0,8.8,4,8.8,8.8s-4,8.8-8.8,8.8
			c-4.9,0-8.8-4-8.8-8.8S171,301,175.9,301"/>
		<path fill-rule="evenodd" clip-rule="evenodd" fill="#3A4D54" d="M175.9,303.5c0.8,0,1.6,0.2,2.3,0.4c-0.8,0.4-1.3,1.3-1.3,2.2
			c0,1.4,1.2,2.6,2.6,2.6c1,0,1.8-0.5,2.3-1.3c0.3,0.7,0.5,1.6,0.5,2.4c0,3.5-2.8,6.3-6.3,6.3c-3.5,0-6.3-2.8-6.3-6.3
			C169.6,306.3,172.4,303.5,175.9,303.5"/>
		<path fill-rule="evenodd" clip-rule="evenodd" fill="#3A4D54" d="M19.6,282.7h193.6h23.9h190.5c0.4,0,1.6,0.1,1.2,0
			c-9.2-2.2-24.9-6.2-23.5-15.8c0.1-0.7-0.2-0.8-0.6-0.3c-16.6,17.5-54.1,12.2-64.3,3.2c-0.2-0.1-0.4-0.1-0.5,0.1
			c-11.5,15.4-73.3,9.7-79.3-2.3c-0.1-0.2-0.4-0.3-0.6-0.1c-14.1,15.7-55.7,15.7-69.8,0c-0.2-0.2-0.5-0.1-0.6,0.1
			c-6,12-67.8,17.7-79.3,2.3c-0.1-0.2-0.3-0.2-0.5-0.1c-10.1,8.9-44.5,14.3-61.2-3c-0.3-0.3-0.8-0.1-0.8,0.4
			C48.9,277.6,28.1,280.5,19.6,282.7"/>
		<path fill="#C0DBE0" d="M199.4,364.7c-21.9-10.4-33.9-24.5-40.6-39.9c-8.1,2.3-17.9,3.8-29.3,4.4c-4.3,0.2-8.8,0.4-13.5,0.4
			c-5.4,0-11.2-0.2-17.2-0.5c20.1,20.1,44.8,35.5,90.5,35.8C192.7,364.9,196.1,364.8,199.4,364.7z"/>
		<path fill="#D4EDF1" d="M167,339c-3-4.1-6-9.3-8.1-14.2c-8.1,2.3-17.9,3.8-29.3,4.4C137.4,333.4,148.5,337.4,167,339z"/>
	</g>
	<circle fill="#3A4D54" cx="34.8" cy="311" r="5.9"/>
	<path fill="#3A4D54" d="M346.8,297.2l-1-2.8c0,0,5.3-11.7-7.4-11.7c-12.7,0,3.5-4.7,3.5-4.7l21.8,2.8l9.6,6.8l-16.1,4.1
		L346.8,297.2z"/>
	<path fill="#3A4D54" d="M78.7,297.2l1-2.8c0,0-5.3-11.7,7.4-11.7s-3.5-4.7-3.5-4.7l-21.8,2.8l-9.6,6.8l16.1,4.1L78.7,297.2z"/>
	<path fill="#3A4D54" d="M361.7,279.5v4.4l15.6,6.7l45.5-4.1l7.3-3.7c0,0-3.8-0.6-7.3-1.7c-3.6-1.1-15.2-1.6-15.2-1.6h-28.3
		l-13.6,1.8L361.7,279.5z"/>
</g>
</svg>
