<?xml version="1.0" encoding="UTF-8" standalone="no"?>
<svg
   xmlns:dc="http://purl.org/dc/elements/1.1/"
   xmlns:cc="http://creativecommons.org/ns#"
   xmlns:rdf="http://www.w3.org/1999/02/22-rdf-syntax-ns#"
   xmlns:svg="http://www.w3.org/2000/svg"
   xmlns="http://www.w3.org/2000/svg"
   xmlns:sodipodi="http://sodipodi.sourceforge.net/DTD/sodipodi-0.dtd"
   xmlns:inkscape="http://www.inkscape.org/namespaces/inkscape"
   version="1.1"
   viewBox="16 32 880 495"
   fill="none"
   stroke="none"
   stroke-linecap="square"
   stroke-miterlimit="10"
   id="svg464"
   sodipodi:docname="k8s-net-1-pod-to-pod.svg"
   width="1600"
   height="900"
   inkscape:version="1.0.1 (3bc2e813f5, 2020-09-07, custom)">
  <metadata
     id="metadata470">
    <rdf:RDF>
      <cc:Work
         rdf:about="">
        <dc:format>image/svg+xml</dc:format>
        <dc:type
           rdf:resource="http://purl.org/dc/dcmitype/StillImage" />
      </cc:Work>
    </rdf:RDF>
  </metadata>
  <defs
     id="defs468" />
  <sodipodi:namedview
     pagecolor="#ffffff"
     bordercolor="#666666"
     borderopacity="1"
     objecttolerance="10"
     gridtolerance="10"
     guidetolerance="10"
     inkscape:pageopacity="0"
     inkscape:pageshadow="2"
     inkscape:window-width="476"
     inkscape:window-height="1032"
     id="namedview466"
     showgrid="false"
     inkscape:zoom="1.0208333"
     inkscape:cx="480"
     inkscape:cy="360"
     inkscape:window-x="480"
     inkscape:window-y="18"
     inkscape:window-maximized="0"
     inkscape:current-layer="svg464" />
  <clipPath
     id="p.0">
    <path
       d="M 0,0 H 960 V 720 H 0 Z"
       clip-rule="nonzero"
       id="path317" />
  </clipPath>
  <g
     clip-path="url(#p.0)"
     id="g462">
    <path
       fill="#000000"
       fill-opacity="0"
       d="M 0,0 H 960 V 720 H 0 Z"
       fill-rule="evenodd"
       id="path320" />
    <path
       fill="#d9d9d9"
       d="m 66.944885,154.29968 v 0 c 0,-13.08115 10.604363,-23.68552 23.685509,-23.68552 H 296.55071 c 6.28177,0 12.30628,2.49544 16.74817,6.93734 4.4419,4.44189 6.93732,10.4664 6.93732,16.74818 v 94.73921 c 0,13.08116 -10.60434,23.6855 -23.68549,23.6855 H 90.630394 c -13.081146,0 -23.685509,-10.60434 -23.685509,-23.6855 z"
       fill-rule="evenodd"
       id="path322" />
    <path
       stroke="#434343"
       stroke-width="2"
       stroke-linejoin="round"
       stroke-linecap="butt"
       d="m 66.944885,154.29968 v 0 c 0,-13.08115 10.604363,-23.68552 23.685509,-23.68552 H 296.55071 c 6.28177,0 12.30628,2.49544 16.74817,6.93734 4.4419,4.44189 6.93732,10.4664 6.93732,16.74818 v 94.73921 c 0,13.08116 -10.60434,23.6855 -23.68549,23.6855 H 90.630394 c -13.081146,0 -23.685509,-10.60434 -23.685509,-23.6855 z"
       fill-rule="evenodd"
       id="path324" />
    <path
       fill="#000000"
       d="m 85.75713,154.61205 0.04687,1.23437 q 1.125,-1.40625 2.953125,-1.40625 3.125,0 3.15625,3.51563 v 6.51562 h -1.6875 v -6.51562 q -0.01563,-1.07813 -0.5,-1.57813 -0.46875,-0.51562 -1.484375,-0.51562 -0.8125,0 -1.4375,0.4375 -0.609375,0.4375 -0.96875,1.15625 v 7.01562 h -1.67187 v -9.85937 z m 8.246857,4.84375 q 0,-1.45313 0.5625,-2.60938 0.578125,-1.15625 1.59375,-1.78125 1.015625,-0.625 2.3125,-0.625 2.015623,0 3.250003,1.39063 1.25,1.39062 1.25,3.70312 v 0.125 q 0,1.4375 -0.54688,2.57813 -0.54687,1.14062 -1.57812,1.78125 -1.015628,0.64062 -2.359378,0.64062 -2,0 -3.25,-1.39062 -1.234375,-1.40625 -1.234375,-3.70313 z m 1.6875,0.20312 q 0,1.64063 0.765625,2.64063 0.765625,0.98437 2.03125,0.98437 1.296875,0 2.046878,-1 0.75,-1.01562 0.75,-2.82812 0,-1.625 -0.76563,-2.625 -0.765623,-1.01563 -2.046873,-1.01563 -1.25,0 -2.015625,1 -0.765625,0.98438 -0.765625,2.84375 z m 8.983643,-0.20312 q 0,-2.26563 1.07813,-3.64063 1.07812,-1.375 2.8125,-1.375 1.73437,0 2.75,1.17188 v -5.14063 h 1.6875 v 14 h -1.54688 l -0.0937,-1.0625 q -1,1.25 -2.8125,1.25 -1.70312,0 -2.79687,-1.40625 -1.07813,-1.40625 -1.07813,-3.65625 z m 1.6875,0.20312 q 0,1.67188 0.6875,2.625 0.70313,0.9375 1.92188,0.9375 1.60937,0 2.34375,-1.4375 v -4.53125 q -0.76563,-1.39062 -2.32813,-1.39062 -1.23437,0 -1.9375,0.95312 -0.6875,0.95313 -0.6875,2.84375 z m 13.33397,5 q -2,0 -3.26563,-1.3125 -1.25,-1.32812 -1.25,-3.53125 v -0.3125 q 0,-1.46875 0.5625,-2.60937 0.5625,-1.15625 1.5625,-1.79688 1.01563,-0.65625 2.1875,-0.65625 1.92188,0 2.98438,1.26563 1.0625,1.26562 1.0625,3.625 v 0.6875 h -6.67188 q 0.0312,1.46875 0.84375,2.375 0.82813,0.89062 2.07813,0.89062 0.89062,0 1.51562,-0.35937 0.625,-0.375 1.07813,-0.96875 l 1.03125,0.79687 q -1.23438,1.90625 -3.71875,1.90625 z m -0.20313,-8.84375 q -1.01562,0 -1.71875,0.75 -0.6875,0.73438 -0.84375,2.07813 h 4.9375 v -0.125 q -0.0781,-1.28125 -0.70312,-1.98438 -0.60938,-0.71875 -1.67188,-0.71875 z"
       fill-rule="nonzero"
       id="path326" />
    <path
       fill="#000000"
       fill-opacity="0"
       d="M 741.52496,67.91863 H 819.2572"
       fill-rule="evenodd"
       id="path328" />
    <path
       stroke="#0000ff"
       stroke-width="4"
       stroke-linejoin="round"
       stroke-linecap="butt"
       d="M 741.52496,67.91863 H 819.2572"
       fill-rule="evenodd"
       id="path330" />
    <path
       fill="#000000"
       fill-opacity="0"
       d="M 692.19946,70.157394 H 868.57745 V 116.01565 H 692.19946 Z"
       fill-rule="evenodd"
       id="path332" />
    <path
       fill="#000000"
       d="m 747.46643,91.32864 q 0,2.078125 -0.96875,3.359375 -0.95313,1.28125 -2.57813,1.28125 -1.67187,0 -2.625,-1.0625 v 4.40625 h -1.5625 V 86.64114 h 1.42188 l 0.0781,1.015625 q 0.95313,-1.1875 2.65625,-1.1875 1.65625,0 2.60938,1.25 0.96875,1.234375 0.96875,3.453125 z m -1.5625,-0.1875 q 0,-1.546875 -0.67188,-2.4375 -0.65625,-0.90625 -1.8125,-0.90625 -1.42187,0 -2.125,1.265625 v 4.375 q 0.70313,1.25 2.15625,1.25 1.125,0 1.78125,-0.890625 0.67188,-0.890625 0.67188,-2.65625 z m 3.12799,0 q 0,-1.34375 0.53125,-2.421875 0.53125,-1.078125 1.46875,-1.65625 0.95313,-0.59375 2.15625,-0.59375 1.875,0 3.03125,1.296875 1.15625,1.296875 1.15625,3.453125 v 0.109375 q 0,1.328125 -0.51562,2.390625 -0.51563,1.0625 -1.46875,1.65625 -0.95313,0.59375 -2.1875,0.59375 -1.85938,0 -3.01563,-1.296875 -1.15625,-1.296875 -1.15625,-3.421875 z m 1.57813,0.1875 q 0,1.515625 0.70312,2.4375 0.70313,0.921875 1.89063,0.921875 1.20312,0 1.89062,-0.9375 0.70313,-0.9375 0.70313,-2.609375 0,-1.515625 -0.71875,-2.4375 -0.70313,-0.9375 -1.89063,-0.9375 -1.15625,0 -1.875,0.921875 -0.70312,0.921875 -0.70312,2.640625 z m 8.33557,-0.1875 q 0,-2.109375 1,-3.390625 1,-1.28125 2.625,-1.28125 1.60937,0 2.54687,1.109375 v -4.78125 h 1.5625 v 13 h -1.4375 l -0.0781,-0.984375 q -0.9375,1.15625 -2.60938,1.15625 -1.59375,0 -2.60937,-1.296875 -1,-1.3125 -1,-3.40625 z m 1.57812,0.1875 q 0,1.546875 0.64063,2.4375 0.64062,0.875 1.76562,0.875 1.5,0 2.1875,-1.34375 v -4.203125 q -0.70312,-1.296875 -2.15625,-1.296875 -1.15625,0 -1.79687,0.890625 -0.64063,0.890625 -0.64063,2.640625 z m 11.83496,-0.125 h -4.125 v -1.28125 h 4.125 z m 3.65546,-6.78125 v 2.21875 h 1.70312 v 1.21875 h -1.70312 v 5.671875 q 0,0.546875 0.21875,0.828125 0.23437,0.265625 0.78125,0.265625 0.26562,0 0.75,-0.09375 v 1.265625 q -0.625,0.171875 -1.20313,0.171875 -1.04687,0 -1.57812,-0.625 -0.53125,-0.640625 -0.53125,-1.8125 V 87.85989 h -1.67188 v -1.21875 h 1.67188 v -2.21875 z m 2.94427,6.71875 q 0,-1.34375 0.53125,-2.421875 0.53125,-1.078125 1.46875,-1.65625 0.95313,-0.59375 2.15625,-0.59375 1.875,0 3.03125,1.296875 1.15625,1.296875 1.15625,3.453125 v 0.109375 q 0,1.328125 -0.51562,2.390625 -0.51563,1.0625 -1.46875,1.65625 -0.95313,0.59375 -2.1875,0.59375 -1.85938,0 -3.01563,-1.296875 -1.15625,-1.296875 -1.15625,-3.421875 z m 1.57813,0.1875 q 0,1.515625 0.70312,2.4375 0.70313,0.921875 1.89063,0.921875 1.20312,0 1.89062,-0.9375 0.70313,-0.9375 0.70313,-2.609375 0,-1.515625 -0.71875,-2.4375 -0.70313,-0.9375 -1.89063,-0.9375 -1.15625,0 -1.875,0.921875 -0.70312,0.921875 -0.70312,2.640625 z m 11.9762,-0.125 h -4.125 v -1.28125 h 4.125 z m 9.26483,0.125 q 0,2.078125 -0.96875,3.359375 -0.95313,1.28125 -2.57813,1.28125 -1.67187,0 -2.625,-1.0625 v 4.40625 h -1.5625 V 86.64114 h 1.42188 l 0.0781,1.015625 q 0.95313,-1.1875 2.65625,-1.1875 1.65625,0 2.60938,1.25 0.96875,1.234375 0.96875,3.453125 z m -1.5625,-0.1875 q 0,-1.546875 -0.67188,-2.4375 -0.65625,-0.90625 -1.8125,-0.90625 -1.42187,0 -2.125,1.265625 v 4.375 q 0.70313,1.25 2.15625,1.25 1.125,0 1.78125,-0.890625 0.67188,-0.890625 0.67188,-2.65625 z m 3.12793,0 q 0,-1.34375 0.53125,-2.421875 0.53125,-1.078125 1.46875,-1.65625 0.95312,-0.59375 2.15625,-0.59375 1.875,0 3.03125,1.296875 1.15625,1.296875 1.15625,3.453125 v 0.109375 q 0,1.328125 -0.51563,2.390625 -0.51562,1.0625 -1.46875,1.65625 -0.95312,0.59375 -2.1875,0.59375 -1.85937,0 -3.01562,-1.296875 -1.15625,-1.296875 -1.15625,-3.421875 z m 1.57812,0.1875 q 0,1.515625 0.70313,2.4375 0.70312,0.921875 1.89062,0.921875 1.20313,0 1.89063,-0.9375 0.70312,-0.9375 0.70312,-2.609375 0,-1.515625 -0.71875,-2.4375 -0.70312,-0.9375 -1.89062,-0.9375 -1.15625,0 -1.875,0.921875 -0.70313,0.921875 -0.70313,2.640625 z m 8.33557,-0.1875 q 0,-2.109375 1,-3.390625 1,-1.28125 2.625,-1.28125 1.60938,0 2.54688,1.109375 v -4.78125 h 1.5625 v 13 h -1.4375 l -0.0781,-0.984375 q -0.9375,1.15625 -2.60937,1.15625 -1.59375,0 -2.60938,-1.296875 -1,-1.3125 -1,-3.40625 z m 1.57813,0.1875 q 0,1.546875 0.64062,2.4375 0.64063,0.875 1.76563,0.875 1.5,0 2.1875,-1.34375 v -4.203125 q -0.70313,-1.296875 -2.15625,-1.296875 -1.15625,0 -1.79688,0.890625 -0.64062,0.890625 -0.64062,2.640625 z"
       fill-rule="nonzero"
       id="path334" />
    <path
       fill="#f4cccc"
       d="m 228.27559,151.61942 h 63.53264 l 8.34137,8.34138 v 41.70587 h -71.87401 z"
       fill-rule="evenodd"
       id="path336" />
    <path
       stroke="#434343"
       stroke-width="1"
       stroke-linejoin="round"
       stroke-linecap="butt"
       d="m 228.27559,151.61942 h 63.53264 l 8.34137,8.34138 v 41.70587 h -71.87401 z"
       fill-rule="evenodd"
       id="path338" />
    <path
       fill="#000000"
       d="m 246.86934,177.89761 q 0,2.25 -1.03125,3.625 -1.01563,1.375 -2.78125,1.375 -1.79688,0 -2.82813,-1.14063 v 4.75 h -1.67187 v -13.65625 h 1.53125 l 0.0781,1.09375 q 1.03125,-1.26562 2.85938,-1.26562 1.78125,0 2.8125,1.34375 1.03125,1.32812 1.03125,3.71875 z m -1.67188,-0.20313 q 0,-1.65625 -0.71875,-2.625 -0.70312,-0.96875 -1.95312,-0.96875 -1.53125,0 -2.29688,1.35938 v 4.70312 q 0.76563,1.35938 2.32813,1.35938 1.20312,0 1.92187,-0.95313 0.71875,-0.96875 0.71875,-2.875 z m 3.37307,0 q 0,-1.45312 0.5625,-2.60937 0.57812,-1.15625 1.59375,-1.78125 1.01562,-0.625 2.3125,-0.625 2.01562,0 3.25,1.39062 1.25,1.39063 1.25,3.70313 v 0.125 q 0,1.4375 -0.54688,2.57812 -0.54687,1.14063 -1.57812,1.78125 -1.01563,0.64063 -2.35938,0.64063 -2,0 -3.25,-1.39063 -1.23437,-1.40625 -1.23437,-3.70312 z m 1.6875,0.20313 q 0,1.64062 0.76562,2.64062 0.76563,0.98438 2.03125,0.98438 1.29688,0 2.04688,-1 0.75,-1.01563 0.75,-2.82813 0,-1.625 -0.76563,-2.625 -0.76562,-1.01562 -2.04687,-1.01562 -1.25,0 -2.01563,1 -0.76562,0.98437 -0.76562,2.84375 z m 8.98364,-0.20313 q 0,-2.26562 1.07813,-3.64062 1.07812,-1.375 2.8125,-1.375 1.73437,0 2.75,1.17187 v -5.14062 h 1.6875 v 14 h -1.54688 l -0.0937,-1.0625 q -1,1.25 -2.8125,1.25 -1.70312,0 -2.79687,-1.40625 -1.07813,-1.40625 -1.07813,-3.65625 z m 1.6875,0.20313 q 0,1.67187 0.6875,2.625 0.70313,0.9375 1.92188,0.9375 1.60937,0 2.34375,-1.4375 v -4.53125 q -0.76563,-1.39063 -2.32813,-1.39063 -1.23437,0 -1.9375,0.95313 -0.6875,0.95312 -0.6875,2.84375 z"
       fill-rule="nonzero"
       id="path340" />
    <path
       fill="#f4cccc"
       d="m 180.86351,212.08398 h 63.53265 l 8.34137,8.34138 v 41.70586 h -71.87402 z"
       fill-rule="evenodd"
       id="path342" />
    <path
       stroke="#434343"
       stroke-width="1"
       stroke-linejoin="round"
       stroke-linecap="butt"
       d="m 180.86351,212.08398 h 63.53265 l 8.34137,8.34138 v 41.70586 h -71.87402 z"
       fill-rule="evenodd"
       id="path344" />
    <path
       fill="#000000"
       d="m 199.45726,238.36217 q 0,2.25 -1.03125,3.625 -1.01563,1.375 -2.78125,1.375 -1.79688,0 -2.82813,-1.14063 v 4.75 h -1.67187 v -13.65625 h 1.53125 l 0.0781,1.09375 q 1.03125,-1.26562 2.85938,-1.26562 1.78125,0 2.8125,1.34375 1.03125,1.32812 1.03125,3.71875 z m -1.67188,-0.20313 q 0,-1.65625 -0.71875,-2.625 -0.70312,-0.96875 -1.95312,-0.96875 -1.53125,0 -2.29688,1.35938 v 4.70312 q 0.76563,1.35938 2.32813,1.35938 1.20312,0 1.92187,-0.95313 0.71875,-0.96875 0.71875,-2.875 z m 3.37307,0 q 0,-1.45312 0.5625,-2.60937 0.57812,-1.15625 1.59375,-1.78125 1.01562,-0.625 2.3125,-0.625 2.01562,0 3.25,1.39062 1.25,1.39063 1.25,3.70313 v 0.125 q 0,1.4375 -0.54688,2.57812 -0.54687,1.14063 -1.57812,1.78125 -1.01563,0.64063 -2.35938,0.64063 -2,0 -3.25,-1.39063 -1.23437,-1.40625 -1.23437,-3.70312 z m 1.6875,0.20313 q 0,1.64062 0.76562,2.64062 0.76563,0.98438 2.03125,0.98438 1.29688,0 2.04688,-1 0.75,-1.01563 0.75,-2.82813 0,-1.625 -0.76563,-2.625 -0.76562,-1.01562 -2.04687,-1.01562 -1.25,0 -2.01563,1 -0.76562,0.98437 -0.76562,2.84375 z m 8.98364,-0.20313 q 0,-2.26562 1.07813,-3.64062 1.07812,-1.375 2.8125,-1.375 1.73437,0 2.75,1.17187 v -5.14062 h 1.6875 v 14 h -1.54688 l -0.0937,-1.0625 q -1,1.25 -2.8125,1.25 -1.70312,0 -2.79687,-1.40625 -1.07813,-1.40625 -1.07813,-3.65625 z m 1.6875,0.20313 q 0,1.67187 0.6875,2.625 0.70313,0.9375 1.92188,0.9375 1.60937,0 2.34375,-1.4375 v -4.53125 q -0.76563,-1.39063 -2.32813,-1.39063 -1.23437,0 -1.9375,0.95313 -0.6875,0.95312 -0.6875,2.84375 z"
       fill-rule="nonzero"
       id="path346" />
    <path
       fill="#d9d9d9"
       d="m 398.08398,209.82724 v 0 c 0,-13.08115 10.60437,-23.6855 23.68552,-23.6855 h 205.92032 c 6.2818,0 12.30627,2.49542 16.74817,6.93732 4.44189,4.44189 6.93731,10.4664 6.93731,16.74818 v 94.73923 c 0,13.08115 -10.60437,23.68552 -23.68548,23.68552 H 421.7695 c -13.08115,0 -23.68552,-10.60437 -23.68552,-23.68552 z"
       fill-rule="evenodd"
       id="path348" />
    <path
       stroke="#434343"
       stroke-width="2"
       stroke-linejoin="round"
       stroke-linecap="butt"
       d="m 398.08398,209.82724 v 0 c 0,-13.08115 10.60437,-23.6855 23.68552,-23.6855 h 205.92032 c 6.2818,0 12.30627,2.49542 16.74817,6.93732 4.44189,4.44189 6.93731,10.4664 6.93731,16.74818 v 94.73923 c 0,13.08115 -10.60437,23.68552 -23.68548,23.68552 H 421.7695 c -13.08115,0 -23.68552,-10.60437 -23.68552,-23.68552 z"
       fill-rule="evenodd"
       id="path350" />
    <path
       fill="#000000"
       d="m 416.89624,210.1396 0.0469,1.23437 q 1.125,-1.40625 2.95313,-1.40625 3.125,0 3.15625,3.51563 v 6.51562 h -1.6875 v -6.51562 q -0.0156,-1.07813 -0.5,-1.57813 -0.46875,-0.51562 -1.48438,-0.51562 -0.8125,0 -1.4375,0.4375 -0.60937,0.4375 -0.96875,1.15625 v 7.01562 h -1.67187 v -9.85937 z m 8.24686,4.84375 q 0,-1.45313 0.5625,-2.60938 0.57812,-1.15625 1.59375,-1.78125 1.01562,-0.625 2.3125,-0.625 2.01562,0 3.25,1.39063 1.25,1.39062 1.25,3.70312 v 0.125 q 0,1.4375 -0.54688,2.57813 -0.54687,1.14062 -1.57812,1.78125 -1.01563,0.64062 -2.35938,0.64062 -2,0 -3.25,-1.39062 -1.23437,-1.40625 -1.23437,-3.70313 z m 1.6875,0.20312 q 0,1.64063 0.76562,2.64063 0.76563,0.98437 2.03125,0.98437 1.29688,0 2.04688,-1 0.75,-1.01562 0.75,-2.82812 0,-1.625 -0.76563,-2.625 -0.76562,-1.01563 -2.04687,-1.01563 -1.25,0 -2.01563,1 -0.76562,0.98438 -0.76562,2.84375 z m 8.98364,-0.20312 q 0,-2.26563 1.07812,-3.64063 1.07813,-1.375 2.8125,-1.375 1.73438,0 2.75,1.17188 v -5.14063 h 1.6875 v 14 h -1.54687 l -0.0937,-1.0625 q -1,1.25 -2.8125,1.25 -1.70313,0 -2.79688,-1.40625 -1.07812,-1.40625 -1.07812,-3.65625 z m 1.6875,0.20312 q 0,1.67188 0.6875,2.625 0.70312,0.9375 1.92187,0.9375 1.60938,0 2.34375,-1.4375 v -4.53125 q -0.76562,-1.39062 -2.32812,-1.39062 -1.23438,0 -1.9375,0.95312 -0.6875,0.95313 -0.6875,2.84375 z m 13.33395,5 q -2,0 -3.26562,-1.3125 -1.25,-1.32812 -1.25,-3.53125 v -0.3125 q 0,-1.46875 0.5625,-2.60937 0.5625,-1.15625 1.5625,-1.79688 1.01562,-0.65625 2.1875,-0.65625 1.92187,0 2.98437,1.26563 1.0625,1.26562 1.0625,3.625 v 0.6875 h -6.67187 q 0.0312,1.46875 0.84375,2.375 0.82812,0.89062 2.07812,0.89062 0.89063,0 1.51563,-0.35937 0.625,-0.375 1.07812,-0.96875 l 1.03125,0.79687 q -1.23437,1.90625 -3.71875,1.90625 z m -0.20312,-8.84375 q -1.01563,0 -1.71875,0.75 -0.6875,0.73438 -0.84375,2.07813 h 4.9375 v -0.125 q -0.0781,-1.28125 -0.70313,-1.98438 -0.60937,-0.71875 -1.67187,-0.71875 z"
       fill-rule="nonzero"
       id="path352" />
    <path
       fill="#f4cccc"
       d="m 436.5315,244.97638 h 63.53265 l 8.34137,8.34137 v 41.70587 H 436.5315 Z"
       fill-rule="evenodd"
       id="path354" />
    <path
       stroke="#434343"
       stroke-width="1"
       stroke-linejoin="round"
       stroke-linecap="butt"
       d="m 436.5315,244.97638 h 63.53265 l 8.34137,8.34137 v 41.70587 H 436.5315 Z"
       fill-rule="evenodd"
       id="path356" />
    <path
       fill="#000000"
       d="m 455.12524,271.25458 q 0,2.25 -1.03125,3.625 -1.01562,1.375 -2.78125,1.375 -1.79687,0 -2.82812,-1.14063 v 4.75 h -1.67188 V 266.2077 h 1.53125 l 0.0781,1.09375 q 1.03125,-1.26562 2.85937,-1.26562 1.78125,0 2.8125,1.34375 1.03125,1.32812 1.03125,3.71875 z m -1.67187,-0.20313 q 0,-1.65625 -0.71875,-2.625 -0.70313,-0.96875 -1.95313,-0.96875 -1.53125,0 -2.29687,1.35938 v 4.70312 q 0.76562,1.35938 2.32812,1.35938 1.20313,0 1.92188,-0.95313 0.71875,-0.96875 0.71875,-2.875 z m 3.37307,0 q 0,-1.45312 0.5625,-2.60937 0.57813,-1.15625 1.59375,-1.78125 1.01563,-0.625 2.3125,-0.625 2.01563,0 3.25,1.39062 1.25,1.39063 1.25,3.70313 v 0.125 q 0,1.4375 -0.54687,2.57812 -0.54688,1.14063 -1.57813,1.78125 -1.01562,0.64063 -2.35937,0.64063 -2,0 -3.25,-1.39063 -1.23438,-1.40625 -1.23438,-3.70312 z m 1.6875,0.20313 q 0,1.64062 0.76563,2.64062 0.76562,0.98438 2.03125,0.98438 1.29687,0 2.04687,-1 0.75,-1.01563 0.75,-2.82813 0,-1.625 -0.76562,-2.625 -0.76563,-1.01562 -2.04688,-1.01562 -1.25,0 -2.01562,1 -0.76563,0.98437 -0.76563,2.84375 z m 8.98365,-0.20313 q 0,-2.26562 1.07812,-3.64062 1.07813,-1.375 2.8125,-1.375 1.73438,0 2.75,1.17187 v -5.14062 h 1.6875 v 14 h -1.54687 l -0.0937,-1.0625 q -1,1.25 -2.8125,1.25 -1.70313,0 -2.79688,-1.40625 -1.07812,-1.40625 -1.07812,-3.65625 z m 1.6875,0.20313 q 0,1.67187 0.6875,2.625 0.70312,0.9375 1.92187,0.9375 1.60938,0 2.34375,-1.4375 v -4.53125 q -0.76562,-1.39063 -2.32812,-1.39063 -1.23438,0 -1.9375,0.95313 -0.6875,0.95312 -0.6875,2.84375 z"
       fill-rule="nonzero"
       id="path358" />
    <path
       fill="#d9d9d9"
       d="m 95.60105,380.54904 v 0 c 0,-13.08115 10.60436,-23.68552 23.68551,-23.68552 h 205.92032 c 6.2818,0 12.30627,2.49543 16.74817,6.93732 4.44192,4.4419 6.93735,10.4664 6.93735,16.7482 v 94.7392 c 0,13.08115 -10.60437,23.68552 -23.68552,23.68552 H 119.28656 c -13.08115,0 -23.68551,-10.60437 -23.68551,-23.68552 z"
       fill-rule="evenodd"
       id="path360" />
    <path
       stroke="#434343"
       stroke-width="2"
       stroke-linejoin="round"
       stroke-linecap="butt"
       d="m 95.60105,380.54904 v 0 c 0,-13.08115 10.60436,-23.68552 23.68551,-23.68552 h 205.92032 c 6.2818,0 12.30627,2.49543 16.74817,6.93732 4.44192,4.4419 6.93735,10.4664 6.93735,16.7482 v 94.7392 c 0,13.08115 -10.60437,23.68552 -23.68552,23.68552 H 119.28656 c -13.08115,0 -23.68551,-10.60437 -23.68551,-23.68552 z"
       fill-rule="evenodd"
       id="path362" />
    <path
       fill="#000000"
       d="m 114.4133,380.8614 0.0469,1.23437 q 1.125,-1.40625 2.95312,-1.40625 3.125,0 3.15625,3.51563 v 6.51562 h -1.6875 v -6.51562 q -0.0156,-1.07813 -0.5,-1.57813 -0.46875,-0.51562 -1.48437,-0.51562 -0.8125,0 -1.4375,0.4375 -0.60938,0.4375 -0.96875,1.15625 v 7.01562 h -1.67188 v -9.85937 z m 8.24686,4.84375 q 0,-1.45313 0.5625,-2.60938 0.57812,-1.15625 1.59375,-1.78125 1.01562,-0.625 2.3125,-0.625 2.01562,0 3.25,1.39063 1.25,1.39062 1.25,3.70312 v 0.125 q 0,1.4375 -0.54688,2.57813 -0.54687,1.14062 -1.57812,1.78125 -1.01563,0.64062 -2.35938,0.64062 -2,0 -3.25,-1.39062 -1.23437,-1.40625 -1.23437,-3.70313 z m 1.6875,0.20312 q 0,1.64063 0.76562,2.64063 0.76563,0.98437 2.03125,0.98437 1.29688,0 2.04688,-1 0.75,-1.01562 0.75,-2.82812 0,-1.625 -0.76563,-2.625 -0.76562,-1.01563 -2.04687,-1.01563 -1.25,0 -2.01563,1 -0.76562,0.98438 -0.76562,2.84375 z m 8.98364,-0.20312 q 0,-2.26563 1.07812,-3.64063 1.07813,-1.375 2.8125,-1.375 1.73438,0 2.75,1.17188 v -5.14063 h 1.6875 v 14 h -1.54687 l -0.0937,-1.0625 q -1,1.25 -2.8125,1.25 -1.70313,0 -2.79688,-1.40625 -1.07812,-1.40625 -1.07812,-3.65625 z m 1.6875,0.20312 q 0,1.67188 0.6875,2.625 0.70312,0.9375 1.92187,0.9375 1.60938,0 2.34375,-1.4375 v -4.53125 q -0.76562,-1.39062 -2.32812,-1.39062 -1.23438,0 -1.9375,0.95312 -0.6875,0.95313 -0.6875,2.84375 z m 13.33397,5 q -2,0 -3.26563,-1.3125 -1.25,-1.32812 -1.25,-3.53125 v -0.3125 q 0,-1.46875 0.5625,-2.60937 0.5625,-1.15625 1.5625,-1.79688 1.01563,-0.65625 2.1875,-0.65625 1.92188,0 2.98438,1.26563 1.0625,1.26562 1.0625,3.625 v 0.6875 h -6.67188 q 0.0312,1.46875 0.84375,2.375 0.82813,0.89062 2.07813,0.89062 0.89062,0 1.51562,-0.35937 0.625,-0.375 1.07813,-0.96875 l 1.03125,0.79687 q -1.23438,1.90625 -3.71875,1.90625 z m -0.20313,-8.84375 q -1.01562,0 -1.71875,0.75 -0.6875,0.73438 -0.84375,2.07813 h 4.9375 v -0.125 q -0.0781,-1.28125 -0.70312,-1.98438 -0.60938,-0.71875 -1.67188,-0.71875 z"
       fill-rule="nonzero"
       id="path364" />
    <path
       fill="#f4cccc"
       d="m 200.92651,377.43307 h 63.53262 l 8.3414,8.34137 v 41.70587 h -71.87402 z"
       fill-rule="evenodd"
       id="path366" />
    <path
       stroke="#434343"
       stroke-width="1"
       stroke-linejoin="round"
       stroke-linecap="butt"
       d="m 200.92651,377.43307 h 63.53262 l 8.3414,8.34137 v 41.70587 h -71.87402 z"
       fill-rule="evenodd"
       id="path368" />
    <path
       fill="#000000"
       d="m 219.52026,403.71124 q 0,2.25 -1.03125,3.625 -1.01563,1.375 -2.78125,1.375 -1.79688,0 -2.82813,-1.14063 v 4.75 h -1.67187 v -13.65625 h 1.53125 l 0.0781,1.09375 q 1.03125,-1.26562 2.85938,-1.26562 1.78125,0 2.8125,1.34375 1.03125,1.32812 1.03125,3.71875 z m -1.67188,-0.20313 q 0,-1.65625 -0.71875,-2.625 -0.70312,-0.96875 -1.95312,-0.96875 -1.53125,0 -2.29688,1.35938 v 4.70312 q 0.76563,1.35938 2.32813,1.35938 1.20312,0 1.92187,-0.95313 0.71875,-0.96875 0.71875,-2.875 z m 3.37307,0 q 0,-1.45312 0.5625,-2.60937 0.57812,-1.15625 1.59375,-1.78125 1.01562,-0.625 2.3125,-0.625 2.01562,0 3.25,1.39062 1.25,1.39063 1.25,3.70313 v 0.125 q 0,1.4375 -0.54688,2.57812 -0.54687,1.14063 -1.57812,1.78125 -1.01563,0.64063 -2.35938,0.64063 -2,0 -3.25,-1.39063 -1.23437,-1.40625 -1.23437,-3.70312 z m 1.6875,0.20313 q 0,1.64062 0.76562,2.64062 0.76563,0.98438 2.03125,0.98438 1.29688,0 2.04688,-1 0.75,-1.01563 0.75,-2.82813 0,-1.625 -0.76563,-2.625 -0.76562,-1.01562 -2.04687,-1.01562 -1.25,0 -2.01563,1 -0.76562,0.98437 -0.76562,2.84375 z m 8.98364,-0.20313 q 0,-2.26562 1.07813,-3.64062 1.07812,-1.375 2.8125,-1.375 1.73437,0 2.75,1.17187 v -5.14062 h 1.6875 v 14 h -1.54688 l -0.0937,-1.0625 q -1,1.25 -2.8125,1.25 -1.70312,0 -2.79687,-1.40625 -1.07813,-1.40625 -1.07813,-3.65625 z m 1.6875,0.20313 q 0,1.67187 0.6875,2.625 0.70313,0.9375 1.92188,0.9375 1.60937,0 2.34375,-1.4375 v -4.53125 q -0.76563,-1.39063 -2.32813,-1.39063 -1.23437,0 -1.9375,0.95313 -0.6875,0.95312 -0.6875,2.84375 z"
       fill-rule="nonzero"
       id="path370" />
    <path
       fill="#000000"
       fill-opacity="0"
       d="m 145.48819,305.3176 v 0 c 0,-108.95232 87.37144,-197.2756 195.1496,-197.2756 v 0 c 51.7569,0 101.39395,20.78433 137.99161,57.78069 36.59766,36.99635 57.15802,87.17416 57.15802,139.49492 v 0 c 0,108.9523 -87.37146,197.27557 -195.14963,197.27557 v 0 c -107.77815,0 -195.1496,-88.32327 -195.1496,-197.27557 z"
       fill-rule="evenodd"
       id="path372" />
    <path
       stroke="#0000ff"
       stroke-width="4"
       stroke-linejoin="round"
       stroke-linecap="butt"
       d="m 145.48819,305.3176 v 0 c 0,-108.95232 87.37144,-197.2756 195.1496,-197.2756 v 0 c 51.7569,0 101.39395,20.78433 137.99161,57.78069 36.59766,36.99635 57.15802,87.17416 57.15802,139.49492 v 0 c 0,108.9523 -87.37146,197.27557 -195.14963,197.27557 v 0 c -107.77815,0 -195.1496,-88.32327 -195.1496,-197.27557 z"
       fill-rule="evenodd"
       id="path374" />
    <path
       fill="#f4cccc"
       d="m 108.9895,417.0105 h 63.53264 l 8.34137,8.34137 v 41.70587 H 108.9895 Z"
       fill-rule="evenodd"
       id="path376" />
    <path
       stroke="#434343"
       stroke-width="1"
       stroke-linejoin="round"
       stroke-linecap="butt"
       d="m 108.9895,417.0105 h 63.53264 l 8.34137,8.34137 v 41.70587 H 108.9895 Z"
       fill-rule="evenodd"
       id="path378" />
    <path
       fill="#000000"
       d="m 127.58325,443.2887 q 0,2.25 -1.03125,3.625 -1.01562,1.375 -2.78125,1.375 -1.79687,0 -2.82812,-1.14063 v 4.75 h -1.67188 v -13.65625 h 1.53125 l 0.0781,1.09375 q 1.03125,-1.26562 2.85937,-1.26562 1.78125,0 2.8125,1.34375 1.03125,1.32812 1.03125,3.71875 z m -1.67187,-0.20313 q 0,-1.65625 -0.71875,-2.625 -0.70313,-0.96875 -1.95313,-0.96875 -1.53125,0 -2.29687,1.35938 v 4.70312 q 0.76562,1.35938 2.32812,1.35938 1.20313,0 1.92188,-0.95313 0.71875,-0.96875 0.71875,-2.875 z m 3.37306,0 q 0,-1.45312 0.5625,-2.60937 0.57812,-1.15625 1.59375,-1.78125 1.01562,-0.625 2.3125,-0.625 2.01562,0 3.25,1.39062 1.25,1.39063 1.25,3.70313 v 0.125 q 0,1.4375 -0.54688,2.57812 -0.54687,1.14063 -1.57812,1.78125 -1.01563,0.64063 -2.35938,0.64063 -2,0 -3.25,-1.39063 -1.23437,-1.40625 -1.23437,-3.70312 z m 1.6875,0.20313 q 0,1.64062 0.76562,2.64062 0.76563,0.98438 2.03125,0.98438 1.29688,0 2.04688,-1 0.75,-1.01563 0.75,-2.82813 0,-1.625 -0.76563,-2.625 -0.76562,-1.01562 -2.04687,-1.01562 -1.25,0 -2.01563,1 -0.76562,0.98437 -0.76562,2.84375 z m 8.98364,-0.20313 q 0,-2.26562 1.07813,-3.64062 1.07812,-1.375 2.8125,-1.375 1.73437,0 2.75,1.17187 v -5.14062 h 1.6875 v 14 h -1.54688 l -0.0937,-1.0625 q -1,1.25 -2.8125,1.25 -1.70312,0 -2.79687,-1.40625 -1.07813,-1.40625 -1.07813,-3.65625 z m 1.6875,0.20313 q 0,1.67187 0.6875,2.625 0.70313,0.9375 1.92188,0.9375 1.60937,0 2.34375,-1.4375 v -4.53125 q -0.76563,-1.39063 -2.32813,-1.39063 -1.23437,0 -1.9375,0.95313 -0.6875,0.95312 -0.6875,2.84375 z"
       fill-rule="nonzero"
       id="path380" />
    <path
       fill="#f4cccc"
       d="m 87.96063,209.9895 h 63.53264 l 8.34137,8.34137 v 41.70587 H 87.96063 Z"
       fill-rule="evenodd"
       id="path382" />
    <path
       stroke="#434343"
       stroke-width="1"
       stroke-linejoin="round"
       stroke-linecap="butt"
       d="m 87.96063,209.9895 h 63.53264 l 8.34137,8.34137 v 41.70587 H 87.96063 Z"
       fill-rule="evenodd"
       id="path384" />
    <path
       fill="#000000"
       d="m 106.55438,236.26768 q 0,2.25 -1.03125,3.625 -1.01563,1.375 -2.78125,1.375 -1.79688,0 -2.828125,-1.14062 v 4.75 H 98.24188 v -13.65625 h 1.53125 l 0.07813,1.09375 q 1.03124,-1.26563 2.85937,-1.26563 1.78125,0 2.8125,1.34375 1.03125,1.32813 1.03125,3.71875 z m -1.67188,-0.20312 q 0,-1.65625 -0.71875,-2.625 -0.70312,-0.96875 -1.95312,-0.96875 -1.53125,0 -2.296875,1.35937 v 4.70313 q 0.765625,1.35937 2.328125,1.35937 1.20312,0 1.92187,-0.95312 0.71875,-0.96875 0.71875,-2.875 z m 3.37307,0 q 0,-1.45313 0.5625,-2.60938 0.57812,-1.15625 1.59375,-1.78125 1.01562,-0.625 2.3125,-0.625 2.01562,0 3.25,1.39063 1.25,1.39062 1.25,3.70312 v 0.125 q 0,1.4375 -0.54688,2.57813 -0.54687,1.14062 -1.57812,1.78125 -1.01563,0.64062 -2.35938,0.64062 -2,0 -3.25,-1.39062 -1.23437,-1.40625 -1.23437,-3.70313 z m 1.6875,0.20312 q 0,1.64063 0.76562,2.64063 0.76563,0.98437 2.03125,0.98437 1.29688,0 2.04688,-1 0.75,-1.01562 0.75,-2.82812 0,-1.625 -0.76563,-2.625 -0.76562,-1.01563 -2.04687,-1.01563 -1.25,0 -2.01563,1 -0.76562,0.98438 -0.76562,2.84375 z m 8.98364,-0.20312 q 0,-2.26563 1.07813,-3.64063 1.07812,-1.375 2.8125,-1.375 1.73437,0 2.75,1.17188 v -5.14063 h 1.6875 v 14 h -1.54688 l -0.0937,-1.0625 q -1,1.25 -2.8125,1.25 -1.70312,0 -2.79687,-1.40625 -1.07813,-1.40625 -1.07813,-3.65625 z m 1.6875,0.20312 q 0,1.67188 0.6875,2.625 0.70313,0.9375 1.92188,0.9375 1.60937,0 2.34375,-1.4375 v -4.53125 q -0.76563,-1.39062 -2.32813,-1.39062 -1.23437,0 -1.9375,0.95312 -0.6875,0.95313 -0.6875,2.84375 z"
       fill-rule="nonzero"
       id="path386" />
    <path
       fill="#000000"
       fill-opacity="0"
       d="m 204.99213,171.03674 -81.10236,38.96063"
       fill-rule="evenodd"
       id="path388" />
    <path
       stroke="#0000ff"
       stroke-width="4"
       stroke-linejoin="round"
       stroke-linecap="butt"
       d="m 204.99213,171.03674 -81.10236,38.96063"
       fill-rule="evenodd"
       id="path390" />
    <path
       fill="#000000"
       fill-opacity="0"
       d="m 185.52843,162.97461 31.27559,49.10237"
       fill-rule="evenodd"
       id="path392" />
    <path
       stroke="#0000ff"
       stroke-width="4"
       stroke-linejoin="round"
       stroke-linecap="butt"
       d="m 185.52843,162.97461 31.27559,49.10237"
       fill-rule="evenodd"
       id="path394" />
    <path
       fill="#000000"
       fill-opacity="0"
       d="m 182.18898,171.03674 46.07873,5.60631"
       fill-rule="evenodd"
       id="path396" />
    <path
       stroke="#0000ff"
       stroke-width="4"
       stroke-linejoin="round"
       stroke-linecap="butt"
       d="m 182.18898,171.03674 46.07873,5.60631"
       fill-rule="evenodd"
       id="path398" />
    <path
       fill="#000000"
       fill-opacity="0"
       d="m 180.86351,442.03412 44,27.2756"
       fill-rule="evenodd"
       id="path400" />
    <path
       stroke="#0000ff"
       stroke-width="4"
       stroke-linejoin="round"
       stroke-linecap="butt"
       d="m 180.86351,442.03412 44,27.2756"
       fill-rule="evenodd"
       id="path402" />
    <path
       fill="#000000"
       fill-opacity="0"
       d="M 236.86351,427.48032 208.73753,469.3386"
       fill-rule="evenodd"
       id="path404" />
    <path
       stroke="#0000ff"
       stroke-width="4"
       stroke-linejoin="round"
       stroke-linecap="butt"
       d="M 236.86351,427.48032 208.73753,469.3386"
       fill-rule="evenodd"
       id="path406" />
    <path
       fill="#000000"
       fill-opacity="0"
       d="m 228.2021,461.26248 h 24.53543"
       fill-rule="evenodd"
       id="path408" />
    <path
       stroke="#0000ff"
       stroke-width="4"
       stroke-linejoin="round"
       stroke-linecap="butt"
       d="m 228.2021,461.26248 h 24.53543"
       fill-rule="evenodd"
       id="path410" />
    <path
       fill="#000000"
       fill-opacity="0"
       d="m 521.6842,219.98076 35.21259,20.59843"
       fill-rule="evenodd"
       id="path412" />
    <path
       stroke="#0000ff"
       stroke-width="4"
       stroke-linejoin="round"
       stroke-linecap="butt"
       d="m 521.6842,219.98076 35.21259,20.59843"
       fill-rule="evenodd"
       id="path414" />
    <path
       fill="#000000"
       fill-opacity="0"
       d="m 505.5599,219.98076 -33.10236,25.00789"
       fill-rule="evenodd"
       id="path416" />
    <path
       stroke="#0000ff"
       stroke-width="4"
       stroke-linejoin="round"
       stroke-linecap="butt"
       d="m 505.5599,219.98076 -33.10236,25.00789"
       fill-rule="evenodd"
       id="path418" />
    <path
       fill="#0000ff"
       d="m 205.39896,461.26248 v 0 c 0,-6.29694 5.10466,-11.40158 11.40157,-11.40158 v 0 c 3.02389,0 5.92392,1.20123 8.06213,3.33945 2.13821,2.13818 3.33945,5.03823 3.33945,8.06213 v 0 c 0,6.29691 -5.10466,11.40155 -11.40158,11.40155 v 0 c -6.29691,0 -11.40157,-5.10465 -11.40157,-11.40155 z"
       fill-rule="evenodd"
       id="path420" />
    <path
       fill="#000000"
       fill-opacity="0"
       d="m 208.73839,453.20035 16.12427,16.12424 m 0,-16.12424 -16.12427,16.12424"
       fill-rule="evenodd"
       id="path422" />
    <path
       fill="#000000"
       fill-opacity="0"
       d="m 205.39896,461.26248 v 0 c 0,-6.29694 5.10466,-11.40158 11.40157,-11.40158 v 0 c 3.02389,0 5.92392,1.20123 8.06213,3.33945 2.13821,2.13818 3.33945,5.03823 3.33945,8.06213 v 0 c 0,6.29691 -5.10466,11.40155 -11.40158,11.40155 v 0 c -6.29691,0 -11.40157,-5.10465 -11.40157,-11.40155 z"
       fill-rule="evenodd"
       id="path424" />
    <path
       stroke="#ffffff"
       stroke-width="1"
       stroke-linejoin="round"
       stroke-linecap="butt"
       d="m 208.73839,453.20035 16.12427,16.12424 m 0,-16.12424 -16.12427,16.12424"
       fill-rule="evenodd"
       id="path426" />
    <path
       stroke="#ffffff"
       stroke-width="1"
       stroke-linejoin="round"
       stroke-linecap="butt"
       d="m 205.39896,461.26248 v 0 c 0,-6.29694 5.10466,-11.40158 11.40157,-11.40158 v 0 c 3.02389,0 5.92392,1.20123 8.06213,3.33945 2.13821,2.13818 3.33945,5.03823 3.33945,8.06213 v 0 c 0,6.29691 -5.10466,11.40155 -11.40158,11.40155 v 0 c -6.29691,0 -11.40157,-5.10465 -11.40157,-11.40155 z"
       fill-rule="evenodd"
       id="path428" />
    <path
       fill="#0000ff"
       d="m 182.18898,171.03674 v 0 c 0,-6.29692 5.10466,-11.40157 11.40157,-11.40157 v 0 c 3.02389,0 5.92392,1.20124 8.06213,3.33944 2.13821,2.13821 3.33945,5.03825 3.33945,8.06213 v 0 c 0,6.29692 -5.10466,11.40158 -11.40158,11.40158 v 0 c -6.29691,0 -11.40157,-5.10466 -11.40157,-11.40158 z"
       fill-rule="evenodd"
       id="path430" />
    <path
       fill="#000000"
       fill-opacity="0"
       d="m 185.52843,162.97461 16.12425,16.12427 m 0,-16.12427 -16.12425,16.12427"
       fill-rule="evenodd"
       id="path432" />
    <path
       fill="#000000"
       fill-opacity="0"
       d="m 182.18898,171.03674 v 0 c 0,-6.29692 5.10466,-11.40157 11.40157,-11.40157 v 0 c 3.02389,0 5.92392,1.20124 8.06213,3.33944 2.13821,2.13821 3.33945,5.03825 3.33945,8.06213 v 0 c 0,6.29692 -5.10466,11.40158 -11.40158,11.40158 v 0 c -6.29691,0 -11.40157,-5.10466 -11.40157,-11.40158 z"
       fill-rule="evenodd"
       id="path434" />
    <path
       stroke="#ffffff"
       stroke-width="1"
       stroke-linejoin="round"
       stroke-linecap="butt"
       d="m 185.52843,162.97461 16.12425,16.12427 m 0,-16.12427 -16.12425,16.12427"
       fill-rule="evenodd"
       id="path436" />
    <path
       stroke="#ffffff"
       stroke-width="1"
       stroke-linejoin="round"
       stroke-linecap="butt"
       d="m 182.18898,171.03674 v 0 c 0,-6.29692 5.10466,-11.40157 11.40157,-11.40157 v 0 c 3.02389,0 5.92392,1.20124 8.06213,3.33944 2.13821,2.13821 3.33945,5.03825 3.33945,8.06213 v 0 c 0,6.29692 -5.10466,11.40158 -11.40158,11.40158 v 0 c -6.29691,0 -11.40157,-5.10466 -11.40157,-11.40158 z"
       fill-rule="evenodd"
       id="path438" />
    <path
       fill="#0000ff"
       d="m 502.22046,211.91864 v 0 c 0,-6.29692 5.10468,-11.40158 11.40161,-11.40158 v 0 c 3.02387,0 5.92389,1.20123 8.06214,3.33945 2.13818,2.13821 3.33941,5.03823 3.33941,8.06213 v 0 c 0,6.29691 -5.10467,11.40157 -11.40155,11.40157 v 0 c -6.29693,0 -11.40161,-5.10466 -11.40161,-11.40157 z"
       fill-rule="evenodd"
       id="path440" />
    <path
       fill="#000000"
       fill-opacity="0"
       d="m 505.5599,203.8565 16.1243,16.12425 m 0,-16.12425 -16.1243,16.12425"
       fill-rule="evenodd"
       id="path442" />
    <path
       fill="#000000"
       fill-opacity="0"
       d="m 502.22046,211.91864 v 0 c 0,-6.29692 5.10468,-11.40158 11.40161,-11.40158 v 0 c 3.02387,0 5.92389,1.20123 8.06214,3.33945 2.13818,2.13821 3.33941,5.03823 3.33941,8.06213 v 0 c 0,6.29691 -5.10467,11.40157 -11.40155,11.40157 v 0 c -6.29693,0 -11.40161,-5.10466 -11.40161,-11.40157 z"
       fill-rule="evenodd"
       id="path444" />
    <path
       stroke="#ffffff"
       stroke-width="1"
       stroke-linejoin="round"
       stroke-linecap="butt"
       d="m 505.5599,203.8565 16.1243,16.12425 m 0,-16.12425 -16.1243,16.12425"
       fill-rule="evenodd"
       id="path446" />
    <path
       stroke="#ffffff"
       stroke-width="1"
       stroke-linejoin="round"
       stroke-linecap="butt"
       d="m 502.22046,211.91864 v 0 c 0,-6.29692 5.10468,-11.40158 11.40161,-11.40158 v 0 c 3.02387,0 5.92389,1.20123 8.06214,3.33945 2.13818,2.13821 3.33941,5.03823 3.33941,8.06213 v 0 c 0,6.29691 -5.10467,11.40157 -11.40155,11.40157 v 0 c -6.29693,0 -11.40161,-5.10466 -11.40161,-11.40157 z"
       fill-rule="evenodd"
       id="path448" />
    <path
       fill="#f4cccc"
       d="m 520.96063,240.58267 h 63.53265 l 8.34137,8.34138 v 41.70586 h -71.87402 z"
       fill-rule="evenodd"
       id="path450" />
    <path
       stroke="#434343"
       stroke-width="1"
       stroke-linejoin="round"
       stroke-linecap="butt"
       d="m 520.96063,240.58267 h 63.53265 l 8.34137,8.34138 v 41.70586 h -71.87402 z"
       fill-rule="evenodd"
       id="path452" />
    <path
       fill="#000000"
       d="m 539.5544,266.86087 q 0,2.25 -1.03125,3.625 -1.01563,1.375 -2.78125,1.375 -1.79688,0 -2.82813,-1.14063 v 4.75 h -1.67187 v -13.65625 h 1.53125 l 0.0781,1.09375 q 1.03125,-1.26562 2.85938,-1.26562 1.78125,0 2.8125,1.34375 1.03125,1.32812 1.03125,3.71875 z m -1.67188,-0.20313 q 0,-1.65625 -0.71875,-2.625 -0.70312,-0.96875 -1.95312,-0.96875 -1.53125,0 -2.29688,1.35938 v 4.70312 q 0.76563,1.35938 2.32813,1.35938 1.20312,0 1.92187,-0.95313 0.71875,-0.96875 0.71875,-2.875 z m 3.37305,0 q 0,-1.45312 0.5625,-2.60937 0.57813,-1.15625 1.59375,-1.78125 1.01563,-0.625 2.3125,-0.625 2.01563,0 3.25,1.39062 1.25,1.39063 1.25,3.70313 v 0.125 q 0,1.4375 -0.54687,2.57812 -0.54688,1.14063 -1.57813,1.78125 -1.01562,0.64063 -2.35937,0.64063 -2,0 -3.25,-1.39063 -1.23438,-1.40625 -1.23438,-3.70312 z m 1.6875,0.20313 q 0,1.64062 0.76563,2.64062 0.76562,0.98438 2.03125,0.98438 1.29687,0 2.04687,-1 0.75,-1.01563 0.75,-2.82813 0,-1.625 -0.76562,-2.625 -0.76563,-1.01562 -2.04688,-1.01562 -1.25,0 -2.01562,1 -0.76563,0.98437 -0.76563,2.84375 z m 8.98364,-0.20313 q 0,-2.26562 1.07813,-3.64062 1.07812,-1.375 2.8125,-1.375 1.73437,0 2.75,1.17187 v -5.14062 h 1.6875 v 14 h -1.54688 l -0.0937,-1.0625 q -1,1.25 -2.8125,1.25 -1.70312,0 -2.79687,-1.40625 -1.07813,-1.40625 -1.07813,-3.65625 z m 1.6875,0.20313 q 0,1.67187 0.6875,2.625 0.70313,0.9375 1.92188,0.9375 1.60937,0 2.34375,-1.4375 v -4.53125 q -0.76563,-1.39063 -2.32813,-1.39063 -1.23437,0 -1.9375,0.95313 -0.6875,0.95312 -0.6875,2.84375 z"
       fill-rule="nonzero"
       id="path454" />
    <path
       fill="#f4cccc"
       d="m 252.73753,436.23883 h 63.53264 l 8.34137,8.3414 v 41.70587 h -71.87401 z"
       fill-rule="evenodd"
       id="path456" />
    <path
       stroke="#434343"
       stroke-width="1"
       stroke-linejoin="round"
       stroke-linecap="butt"
       d="m 252.73753,436.23883 h 63.53264 l 8.34137,8.3414 v 41.70587 h -71.87401 z"
       fill-rule="evenodd"
       id="path458" />
    <path
       fill="#000000"
       d="m 271.33127,462.51703 q 0,2.25 -1.03125,3.625 -1.01562,1.375 -2.78125,1.375 -1.79687,0 -2.82812,-1.14063 v 4.75 h -1.67188 v -13.65625 h 1.53125 l 0.0781,1.09375 q 1.03125,-1.26562 2.85937,-1.26562 1.78125,0 2.8125,1.34375 1.03125,1.32812 1.03125,3.71875 z m -1.67187,-0.20313 q 0,-1.65625 -0.71875,-2.625 -0.70313,-0.96875 -1.95313,-0.96875 -1.53125,0 -2.29687,1.35938 v 4.70312 q 0.76562,1.35938 2.32812,1.35938 1.20313,0 1.92188,-0.95313 0.71875,-0.96875 0.71875,-2.875 z m 3.37307,0 q 0,-1.45312 0.5625,-2.60937 0.57813,-1.15625 1.59375,-1.78125 1.01563,-0.625 2.3125,-0.625 2.01563,0 3.25,1.39062 1.25,1.39063 1.25,3.70313 v 0.125 q 0,1.4375 -0.54687,2.57812 -0.54688,1.14063 -1.57813,1.78125 -1.01562,0.64063 -2.35937,0.64063 -2,0 -3.25,-1.39063 -1.23438,-1.40625 -1.23438,-3.70312 z m 1.6875,0.20313 q 0,1.64062 0.76563,2.64062 0.76562,0.98438 2.03125,0.98438 1.29687,0 2.04687,-1 0.75,-1.01563 0.75,-2.82813 0,-1.625 -0.76562,-2.625 -0.76563,-1.01562 -2.04688,-1.01562 -1.25,0 -2.01562,1 -0.76563,0.98437 -0.76563,2.84375 z m 8.98365,-0.20313 q 0,-2.26562 1.07812,-3.64062 1.07813,-1.375 2.8125,-1.375 1.73438,0 2.75,1.17187 v -5.14062 h 1.6875 v 14 h -1.54687 l -0.0937,-1.0625 q -1,1.25 -2.8125,1.25 -1.70313,0 -2.79688,-1.40625 -1.07812,-1.40625 -1.07812,-3.65625 z m 1.6875,0.20313 q 0,1.67187 0.6875,2.625 0.70312,0.9375 1.92187,0.9375 1.60938,0 2.34375,-1.4375 v -4.53125 q -0.76562,-1.39063 -2.32812,-1.39063 -1.23438,0 -1.9375,0.95313 -0.6875,0.95312 -0.6875,2.84375 z"
       fill-rule="nonzero"
       id="path460" />
  </g>
</svg>
