<?xml version="1.0" encoding="UTF-8" standalone="no"?>
<svg
   xmlns:dc="http://purl.org/dc/elements/1.1/"
   xmlns:cc="http://creativecommons.org/ns#"
   xmlns:rdf="http://www.w3.org/1999/02/22-rdf-syntax-ns#"
   xmlns:svg="http://www.w3.org/2000/svg"
   xmlns="http://www.w3.org/2000/svg"
   xmlns:sodipodi="http://sodipodi.sourceforge.net/DTD/sodipodi-0.dtd"
   xmlns:inkscape="http://www.inkscape.org/namespaces/inkscape"
   version="1.1"
   viewBox="16 32 880 495"
   fill="none"
   stroke="none"
   stroke-linecap="square"
   stroke-miterlimit="10"
   id="svg637"
   sodipodi:docname="k8s-net-2-pod-to-svc.svg"
   width="1600"
   height="900"
   inkscape:version="1.0.1 (3bc2e813f5, 2020-09-07, custom)">
  <metadata
     id="metadata643">
    <rdf:RDF>
      <cc:Work
         rdf:about="">
        <dc:format>image/svg+xml</dc:format>
        <dc:type
           rdf:resource="http://purl.org/dc/dcmitype/StillImage" />
        <dc:title></dc:title>
      </cc:Work>
    </rdf:RDF>
  </metadata>
  <defs
     id="defs641" />
  <sodipodi:namedview
     pagecolor="#ffffff"
     bordercolor="#666666"
     borderopacity="1"
     objecttolerance="10"
     gridtolerance="10"
     guidetolerance="10"
     inkscape:pageopacity="0"
     inkscape:pageshadow="2"
     inkscape:window-width="956"
     inkscape:window-height="1032"
     id="namedview639"
     showgrid="false"
     inkscape:zoom="1.0208333"
     inkscape:cx="480"
     inkscape:cy="360"
     inkscape:window-x="0"
     inkscape:window-y="18"
     inkscape:window-maximized="0"
     inkscape:current-layer="svg637" />
  <clipPath
     id="p.0">
    <path
       d="M 0,0 H 960 V 720 H 0 Z"
       clip-rule="nonzero"
       id="path472" />
  </clipPath>
  <g
     clip-path="url(#p.0)"
     id="g635">
    <path
       fill="#000000"
       fill-opacity="0"
       d="M 0,0 H 960 V 720 H 0 Z"
       fill-rule="evenodd"
       id="path475" />
    <path
       fill="#d9d9d9"
       d="m 66.944885,154.29968 v 0 c 0,-13.08115 10.604363,-23.68552 23.685509,-23.68552 H 296.55071 c 6.28177,0 12.30628,2.49544 16.74817,6.93734 4.4419,4.44189 6.93732,10.4664 6.93732,16.74818 v 94.73921 c 0,13.08116 -10.60434,23.6855 -23.68549,23.6855 H 90.630394 c -13.081146,0 -23.685509,-10.60434 -23.685509,-23.6855 z"
       fill-rule="evenodd"
       id="path477" />
    <path
       stroke="#434343"
       stroke-width="2"
       stroke-linejoin="round"
       stroke-linecap="butt"
       d="m 66.944885,154.29968 v 0 c 0,-13.08115 10.604363,-23.68552 23.685509,-23.68552 H 296.55071 c 6.28177,0 12.30628,2.49544 16.74817,6.93734 4.4419,4.44189 6.93732,10.4664 6.93732,16.74818 v 94.73921 c 0,13.08116 -10.60434,23.6855 -23.68549,23.6855 H 90.630394 c -13.081146,0 -23.685509,-10.60434 -23.685509,-23.6855 z"
       fill-rule="evenodd"
       id="path479" />
    <path
       fill="#000000"
       d="m 85.75713,154.61205 0.04687,1.23437 q 1.125,-1.40625 2.953125,-1.40625 3.125,0 3.15625,3.51563 v 6.51562 h -1.6875 v -6.51562 q -0.01563,-1.07813 -0.5,-1.57813 -0.46875,-0.51562 -1.484375,-0.51562 -0.8125,0 -1.4375,0.4375 -0.609375,0.4375 -0.96875,1.15625 v 7.01562 h -1.67187 v -9.85937 z m 8.246857,4.84375 q 0,-1.45313 0.5625,-2.60938 0.578125,-1.15625 1.59375,-1.78125 1.015625,-0.625 2.3125,-0.625 2.015623,0 3.250003,1.39063 1.25,1.39062 1.25,3.70312 v 0.125 q 0,1.4375 -0.54688,2.57813 -0.54687,1.14062 -1.57812,1.78125 -1.015628,0.64062 -2.359378,0.64062 -2,0 -3.25,-1.39062 -1.234375,-1.40625 -1.234375,-3.70313 z m 1.6875,0.20312 q 0,1.64063 0.765625,2.64063 0.765625,0.98437 2.03125,0.98437 1.296875,0 2.046878,-1 0.75,-1.01562 0.75,-2.82812 0,-1.625 -0.76563,-2.625 -0.765623,-1.01563 -2.046873,-1.01563 -1.25,0 -2.015625,1 -0.765625,0.98438 -0.765625,2.84375 z m 8.983643,-0.20312 q 0,-2.26563 1.07813,-3.64063 1.07812,-1.375 2.8125,-1.375 1.73437,0 2.75,1.17188 v -5.14063 h 1.6875 v 14 h -1.54688 l -0.0937,-1.0625 q -1,1.25 -2.8125,1.25 -1.70312,0 -2.79687,-1.40625 -1.07813,-1.40625 -1.07813,-3.65625 z m 1.6875,0.20312 q 0,1.67188 0.6875,2.625 0.70313,0.9375 1.92188,0.9375 1.60937,0 2.34375,-1.4375 v -4.53125 q -0.76563,-1.39062 -2.32813,-1.39062 -1.23437,0 -1.9375,0.95312 -0.6875,0.95313 -0.6875,2.84375 z m 13.33397,5 q -2,0 -3.26563,-1.3125 -1.25,-1.32812 -1.25,-3.53125 v -0.3125 q 0,-1.46875 0.5625,-2.60937 0.5625,-1.15625 1.5625,-1.79688 1.01563,-0.65625 2.1875,-0.65625 1.92188,0 2.98438,1.26563 1.0625,1.26562 1.0625,3.625 v 0.6875 h -6.67188 q 0.0312,1.46875 0.84375,2.375 0.82813,0.89062 2.07813,0.89062 0.89062,0 1.51562,-0.35937 0.625,-0.375 1.07813,-0.96875 l 1.03125,0.79687 q -1.23438,1.90625 -3.71875,1.90625 z m -0.20313,-8.84375 q -1.01562,0 -1.71875,0.75 -0.6875,0.73438 -0.84375,2.07813 h 4.9375 v -0.125 q -0.0781,-1.28125 -0.70312,-1.98438 -0.60938,-0.71875 -1.67188,-0.71875 z"
       fill-rule="nonzero"
       id="path481" />
    <path
       fill="#000000"
       fill-opacity="0"
       d="M 741.52496,211.91864 H 819.2572"
       fill-rule="evenodd"
       id="path483" />
    <path
       stroke="#00ff00"
       stroke-width="4"
       stroke-linejoin="round"
       stroke-linecap="butt"
       d="M 741.52496,211.91864 H 819.2572"
       fill-rule="evenodd"
       id="path485" />
    <path
       fill="#000000"
       fill-opacity="0"
       d="m 692.19946,213.9563 h 176.37799 v 45.85828 H 692.19946 Z"
       fill-rule="evenodd"
       id="path487" />
    <path
       fill="#000000"
       d="m 734.6649,235.12755 q 0,2.07813 -0.96875,3.35938 -0.95313,1.28125 -2.57813,1.28125 -1.67187,0 -2.625,-1.0625 v 4.40625 h -1.5625 v -12.67188 h 1.42188 l 0.0781,1.01563 q 0.95313,-1.1875 2.65625,-1.1875 1.65625,0 2.60938,1.25 0.96875,1.23437 0.96875,3.45312 z m -1.5625,-0.1875 q 0,-1.54687 -0.67188,-2.4375 -0.65625,-0.90625 -1.8125,-0.90625 -1.42187,0 -2.125,1.26563 v 4.375 q 0.70313,1.25 2.15625,1.25 1.125,0 1.78125,-0.89063 0.67188,-0.89062 0.67188,-2.65625 z m 3.12799,0 q 0,-1.34375 0.53125,-2.42187 0.53125,-1.07813 1.46875,-1.65625 0.95313,-0.59375 2.15625,-0.59375 1.875,0 3.03125,1.29687 1.15625,1.29688 1.15625,3.45313 v 0.10937 q 0,1.32813 -0.51562,2.39063 -0.51563,1.0625 -1.46875,1.65625 -0.95313,0.59375 -2.1875,0.59375 -1.85938,0 -3.01563,-1.29688 -1.15625,-1.29687 -1.15625,-3.42187 z m 1.57813,0.1875 q 0,1.51563 0.70312,2.4375 0.70313,0.92188 1.89063,0.92188 1.20312,0 1.89062,-0.9375 0.70313,-0.9375 0.70313,-2.60938 0,-1.51562 -0.71875,-2.4375 -0.70313,-0.9375 -1.89063,-0.9375 -1.15625,0 -1.875,0.92188 -0.70312,0.92187 -0.70312,2.64062 z m 8.33557,-0.1875 q 0,-2.10937 1,-3.39062 1,-1.28125 2.625,-1.28125 1.60937,0 2.54687,1.10937 v -4.78125 h 1.5625 v 13 h -1.4375 l -0.0781,-0.98437 q -0.9375,1.15625 -2.60938,1.15625 -1.59375,0 -2.60937,-1.29688 -1,-1.3125 -1,-3.40625 z m 1.57812,0.1875 q 0,1.54688 0.64063,2.4375 0.64062,0.875 1.76562,0.875 1.5,0 2.1875,-1.34375 v -4.20312 q -0.70312,-1.29688 -2.15625,-1.29688 -1.15625,0 -1.79687,0.89063 -0.64063,0.89062 -0.64063,2.64062 z m 11.83496,-0.125 h -4.125 v -1.28125 h 4.125 z m 3.65546,-6.78125 v 2.21875 h 1.70312 v 1.21875 h -1.70312 v 5.67188 q 0,0.54687 0.21875,0.82812 0.23437,0.26563 0.78125,0.26563 0.26562,0 0.75,-0.0937 v 1.26562 q -0.625,0.17188 -1.20313,0.17188 -1.04687,0 -1.57812,-0.625 -0.53125,-0.64063 -0.53125,-1.8125 v -5.67188 h -1.67188 v -1.21875 h 1.67188 v -2.21875 z m 2.94427,6.71875 q 0,-1.34375 0.53125,-2.42187 0.53125,-1.07813 1.46875,-1.65625 0.95313,-0.59375 2.15625,-0.59375 1.875,0 3.03125,1.29687 1.15625,1.29688 1.15625,3.45313 v 0.10937 q 0,1.32813 -0.51562,2.39063 -0.51563,1.0625 -1.46875,1.65625 -0.95313,0.59375 -2.1875,0.59375 -1.85938,0 -3.01563,-1.29688 -1.15625,-1.29687 -1.15625,-3.42187 z m 1.57813,0.1875 q 0,1.51563 0.70312,2.4375 0.70313,0.92188 1.89063,0.92188 1.20312,0 1.89062,-0.9375 0.70313,-0.9375 0.70313,-2.60938 0,-1.51562 -0.71875,-2.4375 -0.70313,-0.9375 -1.89063,-0.9375 -1.15625,0 -1.875,0.92188 -0.70312,0.92187 -0.70312,2.64062 z m 11.9762,-0.125 h -4.125 v -1.28125 h 4.125 z m 6.85858,2.17188 q 0,-0.64063 -0.48438,-0.98438 -0.46875,-0.35937 -1.65625,-0.60937 -1.1875,-0.25 -1.89062,-0.60938 -0.70313,-0.35937 -1.04688,-0.84375 -0.32812,-0.5 -0.32812,-1.17187 0,-1.125 0.95312,-1.90625 0.95313,-0.78125 2.4375,-0.78125 1.5625,0 2.53125,0.8125 0.96875,0.79687 0.96875,2.04687 h -1.57812 q 0,-0.64062 -0.54688,-1.09375 -0.54687,-0.46875 -1.375,-0.46875 -0.85937,0 -1.34375,0.375 -0.46875,0.35938 -0.46875,0.96875 0,0.5625 0.4375,0.85938 0.45313,0.28125 1.625,0.54687 1.17188,0.25 1.89063,0.625 0.73437,0.35938 1.07812,0.875 0.35938,0.5 0.35938,1.25 0,1.21875 -0.98438,1.96875 -0.96875,0.73438 -2.54687,0.73438 -1.09375,0 -1.9375,-0.39063 -0.84375,-0.39062 -1.32813,-1.07812 -0.48437,-0.70313 -0.48437,-1.51563 h 1.57812 q 0.0312,0.78125 0.625,1.25 0.59375,0.45313 1.54688,0.45313 0.89062,0 1.42187,-0.35938 0.54688,-0.35937 0.54688,-0.95312 z m 7.40356,2.59375 q -1.85937,0 -3.03125,-1.21875 -1.17187,-1.23438 -1.17187,-3.28125 v -0.28125 q 0,-1.35938 0.51562,-2.42188 0.53125,-1.07812 1.46875,-1.6875 0.9375,-0.60937 2.01563,-0.60937 1.79687,0 2.78125,1.1875 0.98437,1.17187 0.98437,3.35937 v 0.65625 h -6.1875 q 0.0312,1.34375 0.78125,2.1875 0.76563,0.82813 1.92188,0.82813 0.82812,0 1.40625,-0.32813 0.57812,-0.34375 1.01562,-0.90625 l 0.95313,0.75 q -1.15625,1.76563 -3.45313,1.76563 z m -0.20312,-8.20313 q -0.9375,0 -1.57813,0.6875 -0.64062,0.6875 -0.79687,1.92188 h 4.57812 v -0.10938 q -0.0625,-1.1875 -0.64062,-1.84375 -0.57813,-0.65625 -1.5625,-0.65625 z m 10.0083,0.28125 q -0.35938,-0.0625 -0.76563,-0.0625 -1.54687,0 -2.09375,1.3125 v 6.5 h -1.5625 v -9.15625 h 1.51563 l 0.0312,1.0625 q 0.76562,-1.23437 2.1875,-1.23437 0.45312,0 0.6875,0.125 z m 4.60962,5.625 2.26562,-7.03125 h 1.60938 l -3.29688,9.15625 h -1.1875 l -3.3125,-9.15625 h 1.59375 z m 7.08081,2.125 h -1.57813 v -9.15625 h 1.57813 z m -1.70313,-11.57812 q 0,-0.39063 0.23438,-0.64063 0.23437,-0.26562 0.6875,-0.26562 0.46875,0 0.70312,0.26562 0.23438,0.25 0.23438,0.64063 0,0.375 -0.23438,0.64062 -0.23437,0.25 -0.70312,0.25 -0.45313,0 -0.6875,-0.25 -0.23438,-0.26562 -0.23438,-0.64062 z m 7.87695,10.46875 q 0.82813,0 1.45313,-0.5 0.64062,-0.51563 0.70312,-1.28125 h 1.48438 q -0.0469,0.79687 -0.54688,1.51562 -0.5,0.70313 -1.34375,1.125 -0.82812,0.42188 -1.75,0.42188 -1.875,0 -2.98437,-1.25 -1.09375,-1.25 -1.09375,-3.42188 v -0.25 q 0,-1.34375 0.48437,-2.375 0.5,-1.04687 1.40625,-1.625 0.92188,-0.57812 2.17188,-0.57812 1.54687,0 2.5625,0.92187 1.01562,0.92188 1.09375,2.40625 h -1.48438 q -0.0625,-0.89062 -0.67187,-1.45312 -0.60938,-0.57813 -1.5,-0.57813 -1.1875,0 -1.84375,0.85938 -0.65625,0.84375 -0.65625,2.46875 v 0.29687 q 0,1.59375 0.64062,2.45313 0.65625,0.84375 1.875,0.84375 z m 9.19519,1.28125 q -1.85937,0 -3.03125,-1.21875 -1.17187,-1.23438 -1.17187,-3.28125 v -0.28125 q 0,-1.35938 0.51562,-2.42188 0.53125,-1.07812 1.46875,-1.6875 0.9375,-0.60937 2.01563,-0.60937 1.79687,0 2.78125,1.1875 0.98437,1.17187 0.98437,3.35937 v 0.65625 h -6.1875 q 0.0312,1.34375 0.78125,2.1875 0.76563,0.82813 1.92188,0.82813 0.82812,0 1.40625,-0.32813 0.57812,-0.34375 1.01562,-0.90625 l 0.95313,0.75 q -1.15625,1.76563 -3.45313,1.76563 z m -0.20312,-8.20313 q -0.9375,0 -1.57813,0.6875 -0.64062,0.6875 -0.79687,1.92188 h 4.57812 v -0.10938 q -0.0625,-1.1875 -0.64062,-1.84375 -0.57813,-0.65625 -1.5625,-0.65625 z"
       fill-rule="nonzero"
       id="path489" />
    <path
       fill="#f4cccc"
       d="m 228.27559,151.61942 h 63.53264 l 8.34137,8.34138 v 41.70587 h -71.87401 z"
       fill-rule="evenodd"
       id="path491" />
    <path
       stroke="#434343"
       stroke-width="1"
       stroke-linejoin="round"
       stroke-linecap="butt"
       d="m 228.27559,151.61942 h 63.53264 l 8.34137,8.34138 v 41.70587 h -71.87401 z"
       fill-rule="evenodd"
       id="path493" />
    <path
       fill="#000000"
       d="m 246.86934,177.89761 q 0,2.25 -1.03125,3.625 -1.01563,1.375 -2.78125,1.375 -1.79688,0 -2.82813,-1.14063 v 4.75 h -1.67187 v -13.65625 h 1.53125 l 0.0781,1.09375 q 1.03125,-1.26562 2.85938,-1.26562 1.78125,0 2.8125,1.34375 1.03125,1.32812 1.03125,3.71875 z m -1.67188,-0.20313 q 0,-1.65625 -0.71875,-2.625 -0.70312,-0.96875 -1.95312,-0.96875 -1.53125,0 -2.29688,1.35938 v 4.70312 q 0.76563,1.35938 2.32813,1.35938 1.20312,0 1.92187,-0.95313 0.71875,-0.96875 0.71875,-2.875 z m 3.37307,0 q 0,-1.45312 0.5625,-2.60937 0.57812,-1.15625 1.59375,-1.78125 1.01562,-0.625 2.3125,-0.625 2.01562,0 3.25,1.39062 1.25,1.39063 1.25,3.70313 v 0.125 q 0,1.4375 -0.54688,2.57812 -0.54687,1.14063 -1.57812,1.78125 -1.01563,0.64063 -2.35938,0.64063 -2,0 -3.25,-1.39063 -1.23437,-1.40625 -1.23437,-3.70312 z m 1.6875,0.20313 q 0,1.64062 0.76562,2.64062 0.76563,0.98438 2.03125,0.98438 1.29688,0 2.04688,-1 0.75,-1.01563 0.75,-2.82813 0,-1.625 -0.76563,-2.625 -0.76562,-1.01562 -2.04687,-1.01562 -1.25,0 -2.01563,1 -0.76562,0.98437 -0.76562,2.84375 z m 8.98364,-0.20313 q 0,-2.26562 1.07813,-3.64062 1.07812,-1.375 2.8125,-1.375 1.73437,0 2.75,1.17187 v -5.14062 h 1.6875 v 14 h -1.54688 l -0.0937,-1.0625 q -1,1.25 -2.8125,1.25 -1.70312,0 -2.79687,-1.40625 -1.07813,-1.40625 -1.07813,-3.65625 z m 1.6875,0.20313 q 0,1.67187 0.6875,2.625 0.70313,0.9375 1.92188,0.9375 1.60937,0 2.34375,-1.4375 v -4.53125 q -0.76563,-1.39063 -2.32813,-1.39063 -1.23437,0 -1.9375,0.95313 -0.6875,0.95312 -0.6875,2.84375 z"
       fill-rule="nonzero"
       id="path495" />
    <path
       fill="#f4cccc"
       d="m 180.86351,212.08398 h 63.53265 l 8.34137,8.34138 v 41.70586 h -71.87402 z"
       fill-rule="evenodd"
       id="path497" />
    <path
       stroke="#434343"
       stroke-width="1"
       stroke-linejoin="round"
       stroke-linecap="butt"
       d="m 180.86351,212.08398 h 63.53265 l 8.34137,8.34138 v 41.70586 h -71.87402 z"
       fill-rule="evenodd"
       id="path499" />
    <path
       fill="#000000"
       d="m 199.45726,238.36217 q 0,2.25 -1.03125,3.625 -1.01563,1.375 -2.78125,1.375 -1.79688,0 -2.82813,-1.14063 v 4.75 h -1.67187 v -13.65625 h 1.53125 l 0.0781,1.09375 q 1.03125,-1.26562 2.85938,-1.26562 1.78125,0 2.8125,1.34375 1.03125,1.32812 1.03125,3.71875 z m -1.67188,-0.20313 q 0,-1.65625 -0.71875,-2.625 -0.70312,-0.96875 -1.95312,-0.96875 -1.53125,0 -2.29688,1.35938 v 4.70312 q 0.76563,1.35938 2.32813,1.35938 1.20312,0 1.92187,-0.95313 0.71875,-0.96875 0.71875,-2.875 z m 3.37307,0 q 0,-1.45312 0.5625,-2.60937 0.57812,-1.15625 1.59375,-1.78125 1.01562,-0.625 2.3125,-0.625 2.01562,0 3.25,1.39062 1.25,1.39063 1.25,3.70313 v 0.125 q 0,1.4375 -0.54688,2.57812 -0.54687,1.14063 -1.57812,1.78125 -1.01563,0.64063 -2.35938,0.64063 -2,0 -3.25,-1.39063 -1.23437,-1.40625 -1.23437,-3.70312 z m 1.6875,0.20313 q 0,1.64062 0.76562,2.64062 0.76563,0.98438 2.03125,0.98438 1.29688,0 2.04688,-1 0.75,-1.01563 0.75,-2.82813 0,-1.625 -0.76563,-2.625 -0.76562,-1.01562 -2.04687,-1.01562 -1.25,0 -2.01563,1 -0.76562,0.98437 -0.76562,2.84375 z m 8.98364,-0.20313 q 0,-2.26562 1.07813,-3.64062 1.07812,-1.375 2.8125,-1.375 1.73437,0 2.75,1.17187 v -5.14062 h 1.6875 v 14 h -1.54688 l -0.0937,-1.0625 q -1,1.25 -2.8125,1.25 -1.70312,0 -2.79687,-1.40625 -1.07813,-1.40625 -1.07813,-3.65625 z m 1.6875,0.20313 q 0,1.67187 0.6875,2.625 0.70313,0.9375 1.92188,0.9375 1.60937,0 2.34375,-1.4375 v -4.53125 q -0.76563,-1.39063 -2.32813,-1.39063 -1.23437,0 -1.9375,0.95313 -0.6875,0.95312 -0.6875,2.84375 z"
       fill-rule="nonzero"
       id="path501" />
    <path
       fill="#d9d9d9"
       d="m 398.08398,209.82724 v 0 c 0,-13.08115 10.60437,-23.6855 23.68552,-23.6855 h 205.92032 c 6.2818,0 12.30627,2.49542 16.74817,6.93732 4.44189,4.44189 6.93731,10.4664 6.93731,16.74818 v 94.73923 c 0,13.08115 -10.60437,23.68552 -23.68548,23.68552 H 421.7695 c -13.08115,0 -23.68552,-10.60437 -23.68552,-23.68552 z"
       fill-rule="evenodd"
       id="path503" />
    <path
       stroke="#434343"
       stroke-width="2"
       stroke-linejoin="round"
       stroke-linecap="butt"
       d="m 398.08398,209.82724 v 0 c 0,-13.08115 10.60437,-23.6855 23.68552,-23.6855 h 205.92032 c 6.2818,0 12.30627,2.49542 16.74817,6.93732 4.44189,4.44189 6.93731,10.4664 6.93731,16.74818 v 94.73923 c 0,13.08115 -10.60437,23.68552 -23.68548,23.68552 H 421.7695 c -13.08115,0 -23.68552,-10.60437 -23.68552,-23.68552 z"
       fill-rule="evenodd"
       id="path505" />
    <path
       fill="#000000"
       d="m 416.89624,210.1396 0.0469,1.23437 q 1.125,-1.40625 2.95313,-1.40625 3.125,0 3.15625,3.51563 v 6.51562 h -1.6875 v -6.51562 q -0.0156,-1.07813 -0.5,-1.57813 -0.46875,-0.51562 -1.48438,-0.51562 -0.8125,0 -1.4375,0.4375 -0.60937,0.4375 -0.96875,1.15625 v 7.01562 h -1.67187 v -9.85937 z m 8.24686,4.84375 q 0,-1.45313 0.5625,-2.60938 0.57812,-1.15625 1.59375,-1.78125 1.01562,-0.625 2.3125,-0.625 2.01562,0 3.25,1.39063 1.25,1.39062 1.25,3.70312 v 0.125 q 0,1.4375 -0.54688,2.57813 -0.54687,1.14062 -1.57812,1.78125 -1.01563,0.64062 -2.35938,0.64062 -2,0 -3.25,-1.39062 -1.23437,-1.40625 -1.23437,-3.70313 z m 1.6875,0.20312 q 0,1.64063 0.76562,2.64063 0.76563,0.98437 2.03125,0.98437 1.29688,0 2.04688,-1 0.75,-1.01562 0.75,-2.82812 0,-1.625 -0.76563,-2.625 -0.76562,-1.01563 -2.04687,-1.01563 -1.25,0 -2.01563,1 -0.76562,0.98438 -0.76562,2.84375 z m 8.98364,-0.20312 q 0,-2.26563 1.07812,-3.64063 1.07813,-1.375 2.8125,-1.375 1.73438,0 2.75,1.17188 v -5.14063 h 1.6875 v 14 h -1.54687 l -0.0937,-1.0625 q -1,1.25 -2.8125,1.25 -1.70313,0 -2.79688,-1.40625 -1.07812,-1.40625 -1.07812,-3.65625 z m 1.6875,0.20312 q 0,1.67188 0.6875,2.625 0.70312,0.9375 1.92187,0.9375 1.60938,0 2.34375,-1.4375 v -4.53125 q -0.76562,-1.39062 -2.32812,-1.39062 -1.23438,0 -1.9375,0.95312 -0.6875,0.95313 -0.6875,2.84375 z m 13.33395,5 q -2,0 -3.26562,-1.3125 -1.25,-1.32812 -1.25,-3.53125 v -0.3125 q 0,-1.46875 0.5625,-2.60937 0.5625,-1.15625 1.5625,-1.79688 1.01562,-0.65625 2.1875,-0.65625 1.92187,0 2.98437,1.26563 1.0625,1.26562 1.0625,3.625 v 0.6875 h -6.67187 q 0.0312,1.46875 0.84375,2.375 0.82812,0.89062 2.07812,0.89062 0.89063,0 1.51563,-0.35937 0.625,-0.375 1.07812,-0.96875 l 1.03125,0.79687 q -1.23437,1.90625 -3.71875,1.90625 z m -0.20312,-8.84375 q -1.01563,0 -1.71875,0.75 -0.6875,0.73438 -0.84375,2.07813 h 4.9375 v -0.125 q -0.0781,-1.28125 -0.70313,-1.98438 -0.60937,-0.71875 -1.67187,-0.71875 z"
       fill-rule="nonzero"
       id="path507" />
    <path
       fill="#f4cccc"
       d="m 436.5315,244.97638 h 63.53265 l 8.34137,8.34137 v 41.70587 H 436.5315 Z"
       fill-rule="evenodd"
       id="path509" />
    <path
       stroke="#434343"
       stroke-width="1"
       stroke-linejoin="round"
       stroke-linecap="butt"
       d="m 436.5315,244.97638 h 63.53265 l 8.34137,8.34137 v 41.70587 H 436.5315 Z"
       fill-rule="evenodd"
       id="path511" />
    <path
       fill="#000000"
       d="m 455.12524,271.25458 q 0,2.25 -1.03125,3.625 -1.01562,1.375 -2.78125,1.375 -1.79687,0 -2.82812,-1.14063 v 4.75 h -1.67188 V 266.2077 h 1.53125 l 0.0781,1.09375 q 1.03125,-1.26562 2.85937,-1.26562 1.78125,0 2.8125,1.34375 1.03125,1.32812 1.03125,3.71875 z m -1.67187,-0.20313 q 0,-1.65625 -0.71875,-2.625 -0.70313,-0.96875 -1.95313,-0.96875 -1.53125,0 -2.29687,1.35938 v 4.70312 q 0.76562,1.35938 2.32812,1.35938 1.20313,0 1.92188,-0.95313 0.71875,-0.96875 0.71875,-2.875 z m 3.37307,0 q 0,-1.45312 0.5625,-2.60937 0.57813,-1.15625 1.59375,-1.78125 1.01563,-0.625 2.3125,-0.625 2.01563,0 3.25,1.39062 1.25,1.39063 1.25,3.70313 v 0.125 q 0,1.4375 -0.54687,2.57812 -0.54688,1.14063 -1.57813,1.78125 -1.01562,0.64063 -2.35937,0.64063 -2,0 -3.25,-1.39063 -1.23438,-1.40625 -1.23438,-3.70312 z m 1.6875,0.20313 q 0,1.64062 0.76563,2.64062 0.76562,0.98438 2.03125,0.98438 1.29687,0 2.04687,-1 0.75,-1.01563 0.75,-2.82813 0,-1.625 -0.76562,-2.625 -0.76563,-1.01562 -2.04688,-1.01562 -1.25,0 -2.01562,1 -0.76563,0.98437 -0.76563,2.84375 z m 8.98365,-0.20313 q 0,-2.26562 1.07812,-3.64062 1.07813,-1.375 2.8125,-1.375 1.73438,0 2.75,1.17187 v -5.14062 h 1.6875 v 14 h -1.54687 l -0.0937,-1.0625 q -1,1.25 -2.8125,1.25 -1.70313,0 -2.79688,-1.40625 -1.07812,-1.40625 -1.07812,-3.65625 z m 1.6875,0.20313 q 0,1.67187 0.6875,2.625 0.70312,0.9375 1.92187,0.9375 1.60938,0 2.34375,-1.4375 v -4.53125 q -0.76562,-1.39063 -2.32812,-1.39063 -1.23438,0 -1.9375,0.95313 -0.6875,0.95312 -0.6875,2.84375 z"
       fill-rule="nonzero"
       id="path513" />
    <path
       fill="#d9d9d9"
       d="m 95.60105,380.54904 v 0 c 0,-13.08115 10.60436,-23.68552 23.68551,-23.68552 h 205.92032 c 6.2818,0 12.30627,2.49543 16.74817,6.93732 4.44192,4.4419 6.93735,10.4664 6.93735,16.7482 v 94.7392 c 0,13.08115 -10.60437,23.68552 -23.68552,23.68552 H 119.28656 c -13.08115,0 -23.68551,-10.60437 -23.68551,-23.68552 z"
       fill-rule="evenodd"
       id="path515" />
    <path
       stroke="#434343"
       stroke-width="2"
       stroke-linejoin="round"
       stroke-linecap="butt"
       d="m 95.60105,380.54904 v 0 c 0,-13.08115 10.60436,-23.68552 23.68551,-23.68552 h 205.92032 c 6.2818,0 12.30627,2.49543 16.74817,6.93732 4.44192,4.4419 6.93735,10.4664 6.93735,16.7482 v 94.7392 c 0,13.08115 -10.60437,23.68552 -23.68552,23.68552 H 119.28656 c -13.08115,0 -23.68551,-10.60437 -23.68551,-23.68552 z"
       fill-rule="evenodd"
       id="path517" />
    <path
       fill="#000000"
       d="m 114.4133,380.8614 0.0469,1.23437 q 1.125,-1.40625 2.95312,-1.40625 3.125,0 3.15625,3.51563 v 6.51562 h -1.6875 v -6.51562 q -0.0156,-1.07813 -0.5,-1.57813 -0.46875,-0.51562 -1.48437,-0.51562 -0.8125,0 -1.4375,0.4375 -0.60938,0.4375 -0.96875,1.15625 v 7.01562 h -1.67188 v -9.85937 z m 8.24686,4.84375 q 0,-1.45313 0.5625,-2.60938 0.57812,-1.15625 1.59375,-1.78125 1.01562,-0.625 2.3125,-0.625 2.01562,0 3.25,1.39063 1.25,1.39062 1.25,3.70312 v 0.125 q 0,1.4375 -0.54688,2.57813 -0.54687,1.14062 -1.57812,1.78125 -1.01563,0.64062 -2.35938,0.64062 -2,0 -3.25,-1.39062 -1.23437,-1.40625 -1.23437,-3.70313 z m 1.6875,0.20312 q 0,1.64063 0.76562,2.64063 0.76563,0.98437 2.03125,0.98437 1.29688,0 2.04688,-1 0.75,-1.01562 0.75,-2.82812 0,-1.625 -0.76563,-2.625 -0.76562,-1.01563 -2.04687,-1.01563 -1.25,0 -2.01563,1 -0.76562,0.98438 -0.76562,2.84375 z m 8.98364,-0.20312 q 0,-2.26563 1.07812,-3.64063 1.07813,-1.375 2.8125,-1.375 1.73438,0 2.75,1.17188 v -5.14063 h 1.6875 v 14 h -1.54687 l -0.0937,-1.0625 q -1,1.25 -2.8125,1.25 -1.70313,0 -2.79688,-1.40625 -1.07812,-1.40625 -1.07812,-3.65625 z m 1.6875,0.20312 q 0,1.67188 0.6875,2.625 0.70312,0.9375 1.92187,0.9375 1.60938,0 2.34375,-1.4375 v -4.53125 q -0.76562,-1.39062 -2.32812,-1.39062 -1.23438,0 -1.9375,0.95312 -0.6875,0.95313 -0.6875,2.84375 z m 13.33397,5 q -2,0 -3.26563,-1.3125 -1.25,-1.32812 -1.25,-3.53125 v -0.3125 q 0,-1.46875 0.5625,-2.60937 0.5625,-1.15625 1.5625,-1.79688 1.01563,-0.65625 2.1875,-0.65625 1.92188,0 2.98438,1.26563 1.0625,1.26562 1.0625,3.625 v 0.6875 h -6.67188 q 0.0312,1.46875 0.84375,2.375 0.82813,0.89062 2.07813,0.89062 0.89062,0 1.51562,-0.35937 0.625,-0.375 1.07813,-0.96875 l 1.03125,0.79687 q -1.23438,1.90625 -3.71875,1.90625 z m -0.20313,-8.84375 q -1.01562,0 -1.71875,0.75 -0.6875,0.73438 -0.84375,2.07813 h 4.9375 v -0.125 q -0.0781,-1.28125 -0.70312,-1.98438 -0.60938,-0.71875 -1.67188,-0.71875 z"
       fill-rule="nonzero"
       id="path519" />
    <path
       fill="#f4cccc"
       d="m 200.92651,377.43307 h 63.53262 l 8.3414,8.34137 v 41.70587 h -71.87402 z"
       fill-rule="evenodd"
       id="path521" />
    <path
       stroke="#434343"
       stroke-width="1"
       stroke-linejoin="round"
       stroke-linecap="butt"
       d="m 200.92651,377.43307 h 63.53262 l 8.3414,8.34137 v 41.70587 h -71.87402 z"
       fill-rule="evenodd"
       id="path523" />
    <path
       fill="#000000"
       d="m 219.52026,403.71124 q 0,2.25 -1.03125,3.625 -1.01563,1.375 -2.78125,1.375 -1.79688,0 -2.82813,-1.14063 v 4.75 h -1.67187 v -13.65625 h 1.53125 l 0.0781,1.09375 q 1.03125,-1.26562 2.85938,-1.26562 1.78125,0 2.8125,1.34375 1.03125,1.32812 1.03125,3.71875 z m -1.67188,-0.20313 q 0,-1.65625 -0.71875,-2.625 -0.70312,-0.96875 -1.95312,-0.96875 -1.53125,0 -2.29688,1.35938 v 4.70312 q 0.76563,1.35938 2.32813,1.35938 1.20312,0 1.92187,-0.95313 0.71875,-0.96875 0.71875,-2.875 z m 3.37307,0 q 0,-1.45312 0.5625,-2.60937 0.57812,-1.15625 1.59375,-1.78125 1.01562,-0.625 2.3125,-0.625 2.01562,0 3.25,1.39062 1.25,1.39063 1.25,3.70313 v 0.125 q 0,1.4375 -0.54688,2.57812 -0.54687,1.14063 -1.57812,1.78125 -1.01563,0.64063 -2.35938,0.64063 -2,0 -3.25,-1.39063 -1.23437,-1.40625 -1.23437,-3.70312 z m 1.6875,0.20313 q 0,1.64062 0.76562,2.64062 0.76563,0.98438 2.03125,0.98438 1.29688,0 2.04688,-1 0.75,-1.01563 0.75,-2.82813 0,-1.625 -0.76563,-2.625 -0.76562,-1.01562 -2.04687,-1.01562 -1.25,0 -2.01563,1 -0.76562,0.98437 -0.76562,2.84375 z m 8.98364,-0.20313 q 0,-2.26562 1.07813,-3.64062 1.07812,-1.375 2.8125,-1.375 1.73437,0 2.75,1.17187 v -5.14062 h 1.6875 v 14 h -1.54688 l -0.0937,-1.0625 q -1,1.25 -2.8125,1.25 -1.70312,0 -2.79687,-1.40625 -1.07813,-1.40625 -1.07813,-3.65625 z m 1.6875,0.20313 q 0,1.67187 0.6875,2.625 0.70313,0.9375 1.92188,0.9375 1.60937,0 2.34375,-1.4375 v -4.53125 q -0.76563,-1.39063 -2.32813,-1.39063 -1.23437,0 -1.9375,0.95313 -0.6875,0.95312 -0.6875,2.84375 z"
       fill-rule="nonzero"
       id="path525" />
    <path
       fill="#f4cccc"
       d="m 108.9895,417.0105 h 63.53264 l 8.34137,8.34137 v 41.70587 H 108.9895 Z"
       fill-rule="evenodd"
       id="path527" />
    <path
       stroke="#434343"
       stroke-width="1"
       stroke-linejoin="round"
       stroke-linecap="butt"
       d="m 108.9895,417.0105 h 63.53264 l 8.34137,8.34137 v 41.70587 H 108.9895 Z"
       fill-rule="evenodd"
       id="path529" />
    <path
       fill="#000000"
       d="m 127.58325,443.2887 q 0,2.25 -1.03125,3.625 -1.01562,1.375 -2.78125,1.375 -1.79687,0 -2.82812,-1.14063 v 4.75 h -1.67188 v -13.65625 h 1.53125 l 0.0781,1.09375 q 1.03125,-1.26562 2.85937,-1.26562 1.78125,0 2.8125,1.34375 1.03125,1.32812 1.03125,3.71875 z m -1.67187,-0.20313 q 0,-1.65625 -0.71875,-2.625 -0.70313,-0.96875 -1.95313,-0.96875 -1.53125,0 -2.29687,1.35938 v 4.70312 q 0.76562,1.35938 2.32812,1.35938 1.20313,0 1.92188,-0.95313 0.71875,-0.96875 0.71875,-2.875 z m 3.37306,0 q 0,-1.45312 0.5625,-2.60937 0.57812,-1.15625 1.59375,-1.78125 1.01562,-0.625 2.3125,-0.625 2.01562,0 3.25,1.39062 1.25,1.39063 1.25,3.70313 v 0.125 q 0,1.4375 -0.54688,2.57812 -0.54687,1.14063 -1.57812,1.78125 -1.01563,0.64063 -2.35938,0.64063 -2,0 -3.25,-1.39063 -1.23437,-1.40625 -1.23437,-3.70312 z m 1.6875,0.20313 q 0,1.64062 0.76562,2.64062 0.76563,0.98438 2.03125,0.98438 1.29688,0 2.04688,-1 0.75,-1.01563 0.75,-2.82813 0,-1.625 -0.76563,-2.625 -0.76562,-1.01562 -2.04687,-1.01562 -1.25,0 -2.01563,1 -0.76562,0.98437 -0.76562,2.84375 z m 8.98364,-0.20313 q 0,-2.26562 1.07813,-3.64062 1.07812,-1.375 2.8125,-1.375 1.73437,0 2.75,1.17187 v -5.14062 h 1.6875 v 14 h -1.54688 l -0.0937,-1.0625 q -1,1.25 -2.8125,1.25 -1.70312,0 -2.79687,-1.40625 -1.07813,-1.40625 -1.07813,-3.65625 z m 1.6875,0.20313 q 0,1.67187 0.6875,2.625 0.70313,0.9375 1.92188,0.9375 1.60937,0 2.34375,-1.4375 v -4.53125 q -0.76563,-1.39063 -2.32813,-1.39063 -1.23437,0 -1.9375,0.95313 -0.6875,0.95312 -0.6875,2.84375 z"
       fill-rule="nonzero"
       id="path531" />
    <path
       fill="#f4cccc"
       d="m 87.96063,209.9895 h 63.53264 l 8.34137,8.34137 v 41.70587 H 87.96063 Z"
       fill-rule="evenodd"
       id="path533" />
    <path
       stroke="#434343"
       stroke-width="1"
       stroke-linejoin="round"
       stroke-linecap="butt"
       d="m 87.96063,209.9895 h 63.53264 l 8.34137,8.34137 v 41.70587 H 87.96063 Z"
       fill-rule="evenodd"
       id="path535" />
    <path
       fill="#000000"
       d="m 106.55438,236.26768 q 0,2.25 -1.03125,3.625 -1.01563,1.375 -2.78125,1.375 -1.79688,0 -2.828125,-1.14062 v 4.75 H 98.24188 v -13.65625 h 1.53125 l 0.07813,1.09375 q 1.03124,-1.26563 2.85937,-1.26563 1.78125,0 2.8125,1.34375 1.03125,1.32813 1.03125,3.71875 z m -1.67188,-0.20312 q 0,-1.65625 -0.71875,-2.625 -0.70312,-0.96875 -1.95312,-0.96875 -1.53125,0 -2.296875,1.35937 v 4.70313 q 0.765625,1.35937 2.328125,1.35937 1.20312,0 1.92187,-0.95312 0.71875,-0.96875 0.71875,-2.875 z m 3.37307,0 q 0,-1.45313 0.5625,-2.60938 0.57812,-1.15625 1.59375,-1.78125 1.01562,-0.625 2.3125,-0.625 2.01562,0 3.25,1.39063 1.25,1.39062 1.25,3.70312 v 0.125 q 0,1.4375 -0.54688,2.57813 -0.54687,1.14062 -1.57812,1.78125 -1.01563,0.64062 -2.35938,0.64062 -2,0 -3.25,-1.39062 -1.23437,-1.40625 -1.23437,-3.70313 z m 1.6875,0.20312 q 0,1.64063 0.76562,2.64063 0.76563,0.98437 2.03125,0.98437 1.29688,0 2.04688,-1 0.75,-1.01562 0.75,-2.82812 0,-1.625 -0.76563,-2.625 -0.76562,-1.01563 -2.04687,-1.01563 -1.25,0 -2.01563,1 -0.76562,0.98438 -0.76562,2.84375 z m 8.98364,-0.20312 q 0,-2.26563 1.07813,-3.64063 1.07812,-1.375 2.8125,-1.375 1.73437,0 2.75,1.17188 v -5.14063 h 1.6875 v 14 h -1.54688 l -0.0937,-1.0625 q -1,1.25 -2.8125,1.25 -1.70312,0 -2.79687,-1.40625 -1.07813,-1.40625 -1.07813,-3.65625 z m 1.6875,0.20312 q 0,1.67188 0.6875,2.625 0.70313,0.9375 1.92188,0.9375 1.60937,0 2.34375,-1.4375 v -4.53125 q -0.76563,-1.39062 -2.32813,-1.39062 -1.23437,0 -1.9375,0.95312 -0.6875,0.95313 -0.6875,2.84375 z"
       fill-rule="nonzero"
       id="path537" />
    <path
       fill="#b6d7a8"
       d="m 530.4568,160.34383 h 95.70068 c 2.4e-4,0 4.3e-4,9e-5 6.1e-4,2.6e-4 1.8e-4,1.5e-4 2.4e-4,3.7e-4 2.4e-4,5.9e-4 l -8.5e-4,27.1644 c 0,3.00066 -2.4325,5.43318 -5.43317,5.43318 h -95.70068 v 0 c -4.8e-4,0 -8.5e-4,-3.8e-4 -8.5e-4,-8.3e-4 l 8.5e-4,-27.16442 v 0 c 0,-3.00065 2.4325,-5.43318 5.43317,-5.43318 z"
       fill-rule="evenodd"
       id="path539" />
    <path
       stroke="#434343"
       stroke-width="2"
       stroke-linejoin="round"
       stroke-linecap="butt"
       d="m 530.4568,160.34383 h 95.70068 c 2.4e-4,0 4.3e-4,9e-5 6.1e-4,2.6e-4 1.8e-4,1.5e-4 2.4e-4,3.7e-4 2.4e-4,5.9e-4 l -8.5e-4,27.1644 c 0,3.00066 -2.4325,5.43318 -5.43317,5.43318 h -95.70068 v 0 c -4.8e-4,0 -8.5e-4,-3.8e-4 -8.5e-4,-8.3e-4 l 8.5e-4,-27.16442 v 0 c 0,-3.00065 2.4325,-5.43318 5.43317,-5.43318 z"
       fill-rule="evenodd"
       id="path541" />
    <path
       fill="#000000"
       d="m 545.6774,182.50305 h -1.5 l -5.73437,-8.76563 v 8.76563 h -1.5 v -11.375 h 1.5 l 5.75,8.79687 v -8.79687 h 1.48437 z m 2.0625,-4.3125 q 0,-1.23438 0.48438,-2.21875 0.48437,-1 1.35937,-1.53125 0.875,-0.54688 1.98438,-0.54688 1.73437,0 2.79687,1.20313 1.0625,1.1875 1.0625,3.17187 v 0.0937 q 0,1.23438 -0.46875,2.21875 -0.46875,0.98438 -1.35937,1.53125 -0.875,0.54688 -2.01563,0.54688 -1.71875,0 -2.78125,-1.1875 -1.0625,-1.20313 -1.0625,-3.17188 z m 1.45313,0.17187 q 0,1.40625 0.64062,2.26563 0.65625,0.84375 1.75,0.84375 1.10938,0 1.75,-0.85938 0.65625,-0.85937 0.65625,-2.42187 0,-1.39063 -0.67187,-2.25 -0.65625,-0.85938 -1.75,-0.85938 -1.0625,0 -1.71875,0.85938 -0.65625,0.84375 -0.65625,2.42187 z m 7.70312,-0.15625 q 0,-1.95312 0.92188,-3.125 0.92187,-1.1875 2.40625,-1.1875 1.48437,0 2.35937,1.01563 v -4.40625 h 1.4375 v 12 h -1.32812 l -0.0625,-0.90625 q -0.875,1.0625 -2.42188,1.0625 -1.46875,0 -2.39062,-1.20313 -0.92188,-1.20312 -0.92188,-3.14062 z m 1.4375,0.15625 q 0,1.4375 0.59375,2.25 0.59375,0.8125 1.64063,0.8125 1.375,0 2.01562,-1.23437 v -3.875 q -0.65625,-1.20313 -2,-1.20313 -1.0625,0 -1.65625,0.82813 -0.59375,0.8125 -0.59375,2.42187 z m 11.44531,4.29688 q -1.71875,0 -2.79687,-1.125 -1.07813,-1.14063 -1.07813,-3.03125 v -0.26563 q 0,-1.25 0.46875,-2.23437 0.48438,-1 1.34375,-1.54688 0.875,-0.5625 1.875,-0.5625 1.65625,0 2.5625,1.09375 0.92188,1.07813 0.92188,3.09375 v 0.60938 h -5.73438 q 0.0312,1.25 0.73438,2.01562 0.70312,0.76563 1.78125,0.76563 0.76562,0 1.29687,-0.3125 0.53125,-0.3125 0.92188,-0.82813 l 0.89062,0.6875 q -1.0625,1.64063 -3.1875,1.64063 z m -0.1875,-7.57813 q -0.875,0 -1.46875,0.64063 -0.59375,0.625 -0.73437,1.78125 h 4.23437 v -0.10938 q -0.0625,-1.10937 -0.59375,-1.70312 -0.53125,-0.60938 -1.4375,-0.60938 z m 6.88282,2.96875 v 4.45313 h -1.5 v -11.375 h 4.1875 q 1.875,0 2.92187,0.95312 1.0625,0.95313 1.0625,2.51563 0,1.65625 -1.03125,2.5625 -1.03125,0.89062 -2.96875,0.89062 z m 0,-1.23437 h 2.6875 q 1.20312,0 1.84375,-0.5625 0.64062,-0.5625 0.64062,-1.64063 0,-1.01562 -0.64062,-1.625 -0.64063,-0.60937 -1.75,-0.625 h -2.78125 z m 7.88281,1.375 q 0,-1.23438 0.48437,-2.21875 0.48438,-1 1.35938,-1.53125 0.875,-0.54688 1.98437,-0.54688 1.73438,0 2.79688,1.20313 1.0625,1.1875 1.0625,3.17187 v 0.0937 q 0,1.23438 -0.46875,2.21875 -0.46875,0.98438 -1.35938,1.53125 -0.875,0.54688 -2.01562,0.54688 -1.71875,0 -2.78125,-1.1875 -1.0625,-1.20313 -1.0625,-3.17188 z m 1.45312,0.17187 q 0,1.40625 0.64063,2.26563 0.65625,0.84375 1.75,0.84375 1.10937,0 1.75,-0.85938 0.65625,-0.85937 0.65625,-2.42187 0,-1.39063 -0.67188,-2.25 -0.65625,-0.85938 -1.75,-0.85938 -1.0625,0 -1.71875,0.85938 -0.65625,0.84375 -0.65625,2.42187 z m 12.14063,-3.01562 q -0.32813,-0.0625 -0.71875,-0.0625 -1.42188,0 -1.92188,1.21875 v 6 h -1.45312 v -8.45313 h 1.40625 l 0.0312,0.96875 q 0.70312,-1.125 2.01562,-1.125 0.42188,0 0.64063,0.10938 z m 3.67969,-3.34375 v 2.04687 h 1.57812 v 1.10938 h -1.57812 v 5.25 q 0,0.5 0.20312,0.76562 0.21875,0.25 0.71875,0.25 0.25,0 0.6875,-0.0937 v 1.17188 q -0.5625,0.15625 -1.10937,0.15625 -0.96875,0 -1.46875,-0.57813 -0.48438,-0.59375 -0.48438,-1.67187 v -5.25 h -1.53125 v -1.10938 h 1.53125 v -2.04687 z m 8.17968,8.25 q 0,-0.57813 -0.4375,-0.90625 -0.4375,-0.32813 -1.54687,-0.5625 -1.09375,-0.23438 -1.73438,-0.5625 -0.64062,-0.32813 -0.95312,-0.78125 -0.3125,-0.45313 -0.3125,-1.07813 0,-1.03125 0.875,-1.75 0.89062,-0.71875 2.25,-0.71875 1.4375,0 2.32812,0.75 0.90625,0.73438 0.90625,1.89063 h -1.45312 q 0,-0.59375 -0.51563,-1.01563 -0.5,-0.4375 -1.26562,-0.4375 -0.78125,0 -1.23438,0.34375 -0.4375,0.34375 -0.4375,0.89063 0,0.53125 0.40625,0.79687 0.42188,0.26563 1.5,0.51563 1.07813,0.23437 1.75,0.57812 0.67188,0.32813 1,0.79688 0.32813,0.46875 0.32813,1.15625 0,1.125 -0.90625,1.8125 -0.90625,0.6875 -2.35938,0.6875 -1.01562,0 -1.79687,-0.35938 -0.78125,-0.35937 -1.21875,-1 -0.4375,-0.65625 -0.4375,-1.40625 h 1.4375 q 0.0469,0.73438 0.57812,1.15625 0.54688,0.42188 1.4375,0.42188 0.82813,0 1.3125,-0.32813 0.5,-0.32812 0.5,-0.89062 z"
       fill-rule="nonzero"
       id="path543" />
    <path
       fill="#b6d7a8"
       d="m 99.79276,103.02362 h 95.70068 c 2.2e-4,0 4.4e-4,9e-5 5.9e-4,2.5e-4 1.5e-4,1.5e-4 2.5e-4,3.7e-4 2.5e-4,6e-4 l -8.4e-4,27.1644 c 0,3.00066 -2.43251,5.43317 -5.43319,5.43317 H 94.359578 v 0 c -4.65e-4,0 -8.47e-4,-3.7e-4 -8.47e-4,-8.4e-4 l 8.47e-4,-27.1644 v 0 c 0,-3.00066 2.432518,-5.43318 5.433182,-5.43318 z"
       fill-rule="evenodd"
       id="path545" />
    <path
       stroke="#434343"
       stroke-width="2"
       stroke-linejoin="round"
       stroke-linecap="butt"
       d="m 99.79276,103.02362 h 95.70068 c 2.2e-4,0 4.4e-4,9e-5 5.9e-4,2.5e-4 1.5e-4,1.5e-4 2.5e-4,3.7e-4 2.5e-4,6e-4 l -8.4e-4,27.1644 c 0,3.00066 -2.43251,5.43317 -5.43319,5.43317 H 94.359578 v 0 c -4.65e-4,0 -8.47e-4,-3.7e-4 -8.47e-4,-8.4e-4 l 8.47e-4,-27.1644 v 0 c 0,-3.00066 2.432518,-5.43318 5.433182,-5.43318 z"
       fill-rule="evenodd"
       id="path547" />
    <path
       fill="#000000"
       d="m 115.01341,125.18283 h -1.5 l -5.73438,-8.76563 v 8.76563 h -1.5 v -11.375 h 1.5 l 5.75,8.79687 v -8.79687 h 1.48438 z m 2.0625,-4.3125 q 0,-1.23438 0.48437,-2.21875 0.48438,-1 1.35938,-1.53125 0.875,-0.54688 1.98437,-0.54688 1.73438,0 2.79688,1.20313 1.0625,1.1875 1.0625,3.17187 v 0.0937 q 0,1.23438 -0.46875,2.21875 -0.46875,0.98438 -1.35938,1.53125 -0.875,0.54688 -2.01562,0.54688 -1.71875,0 -2.78125,-1.1875 -1.0625,-1.20313 -1.0625,-3.17188 z m 1.45312,0.17187 q 0,1.40625 0.64063,2.26563 0.65625,0.84375 1.75,0.84375 1.10937,0 1.75,-0.85938 0.65625,-0.85937 0.65625,-2.42187 0,-1.39063 -0.67188,-2.25 -0.65625,-0.85938 -1.75,-0.85938 -1.0625,0 -1.71875,0.85938 -0.65625,0.84375 -0.65625,2.42187 z m 7.70313,-0.15625 q 0,-1.95312 0.92187,-3.125 0.92187,-1.1875 2.40624,-1.1875 1.48438,0 2.35938,1.01563 v -4.40625 h 1.4375 v 12 h -1.32813 l -0.0625,-0.90625 q -0.875,1.0625 -2.42187,1.0625 -1.46875,0 -2.39062,-1.20313 -0.92187,-1.20312 -0.92187,-3.14062 z m 1.4375,0.15625 q 0,1.4375 0.59374,2.25 0.59375,0.8125 1.64062,0.8125 1.375,0 2.01563,-1.23437 v -3.875 q -0.65625,-1.20313 -2,-1.20313 -1.0625,0 -1.65625,0.82813 -0.59374,0.8125 -0.59374,2.42187 z m 11.4453,4.29688 q -1.71875,0 -2.79688,-1.125 -1.07812,-1.14063 -1.07812,-3.03125 v -0.26563 q 0,-1.25 0.46875,-2.23437 0.48437,-1 1.34375,-1.54688 0.875,-0.5625 1.875,-0.5625 1.65625,0 2.5625,1.09375 0.92187,1.07813 0.92187,3.09375 v 0.60938 h -5.73437 q 0.0312,1.25 0.73437,2.01562 0.70313,0.76563 1.78125,0.76563 0.76563,0 1.29688,-0.3125 0.53125,-0.3125 0.92187,-0.82813 l 0.89063,0.6875 q -1.0625,1.64063 -3.1875,1.64063 z m -0.1875,-7.57813 q -0.875,0 -1.46875,0.64063 -0.59375,0.625 -0.73438,1.78125 h 4.23438 v -0.10938 q -0.0625,-1.10937 -0.59375,-1.70312 -0.53125,-0.60938 -1.4375,-0.60938 z m 6.88281,2.96875 v 4.45313 h -1.5 v -11.375 h 4.1875 q 1.875,0 2.92188,0.95312 1.0625,0.95313 1.0625,2.51563 0,1.65625 -1.03125,2.5625 -1.03125,0.89062 -2.96875,0.89062 z m 0,-1.23437 h 2.6875 q 1.20313,0 1.84375,-0.5625 0.64063,-0.5625 0.64063,-1.64063 0,-1.01562 -0.64063,-1.625 -0.64062,-0.60937 -1.75,-0.625 h -2.78125 z m 7.88281,1.375 q 0,-1.23438 0.48438,-2.21875 0.48437,-1 1.35937,-1.53125 0.875,-0.54688 1.98438,-0.54688 1.73437,0 2.79687,1.20313 1.0625,1.1875 1.0625,3.17187 v 0.0937 q 0,1.23438 -0.46875,2.21875 -0.46875,0.98438 -1.35937,1.53125 -0.875,0.54688 -2.01563,0.54688 -1.71875,0 -2.78125,-1.1875 -1.0625,-1.20313 -1.0625,-3.17188 z m 1.45313,0.17187 q 0,1.40625 0.64062,2.26563 0.65625,0.84375 1.75,0.84375 1.10938,0 1.75,-0.85938 0.65625,-0.85937 0.65625,-2.42187 0,-1.39063 -0.67187,-2.25 -0.65625,-0.85938 -1.75,-0.85938 -1.0625,0 -1.71875,0.85938 -0.65625,0.84375 -0.65625,2.42187 z m 12.14062,-3.01562 q -0.32812,-0.0625 -0.71875,-0.0625 -1.42187,0 -1.92187,1.21875 v 6 h -1.45313 v -8.45313 h 1.40625 l 0.0312,0.96875 q 0.70313,-1.125 2.01563,-1.125 0.42187,0 0.64062,0.10938 z m 3.67969,-3.34375 v 2.04687 h 1.57813 v 1.10938 h -1.57813 v 5.25 q 0,0.5 0.20313,0.76562 0.21875,0.25 0.71875,0.25 0.25,0 0.6875,-0.0937 v 1.17188 q -0.5625,0.15625 -1.10938,0.15625 -0.96875,0 -1.46875,-0.57813 -0.48437,-0.59375 -0.48437,-1.67187 v -5.25 h -1.53125 v -1.10938 h 1.53125 v -2.04687 z m 8.17969,8.25 q 0,-0.57813 -0.4375,-0.90625 -0.4375,-0.32813 -1.54688,-0.5625 -1.09375,-0.23438 -1.73437,-0.5625 -0.64063,-0.32813 -0.95313,-0.78125 -0.3125,-0.45313 -0.3125,-1.07813 0,-1.03125 0.875,-1.75 0.89063,-0.71875 2.25,-0.71875 1.4375,0 2.32813,0.75 0.90625,0.73438 0.90625,1.89063 h -1.45313 q 0,-0.59375 -0.51562,-1.01563 -0.5,-0.4375 -1.26563,-0.4375 -0.78125,0 -1.23437,0.34375 -0.4375,0.34375 -0.4375,0.89063 0,0.53125 0.40625,0.79687 0.42187,0.26563 1.5,0.51563 1.07812,0.23437 1.75,0.57812 0.67187,0.32813 1,0.79688 0.32812,0.46875 0.32812,1.15625 0,1.125 -0.90625,1.8125 -0.90625,0.6875 -2.35937,0.6875 -1.01563,0 -1.79688,-0.35938 -0.78125,-0.35937 -1.21875,-1 -0.4375,-0.65625 -0.4375,-1.40625 h 1.4375 q 0.0469,0.73438 0.57813,1.15625 0.54687,0.42188 1.4375,0.42188 0.82812,0 1.3125,-0.32813 0.5,-0.32812 0.5,-0.89062 z"
       fill-rule="nonzero"
       id="path549" />
    <path
       fill="#000000"
       fill-opacity="0"
       d="M 429.12335,389.95276 250.85563,262.67716"
       fill-rule="evenodd"
       id="path551" />
    <path
       stroke="#00ff00"
       stroke-width="4"
       stroke-linejoin="round"
       stroke-linecap="butt"
       d="M 429.12335,389.95276 270.38827,276.62265"
       fill-rule="evenodd"
       id="path553" />
    <path
       fill="#00ff00"
       stroke="#00ff00"
       stroke-width="4"
       stroke-linecap="butt"
       d="m 274.2273,271.2455 -18.61252,-5.17053 10.93448,15.92477 z"
       fill-rule="evenodd"
       id="path555" />
    <path
       fill="#b6d7a8"
       d="m 383.98962,357.35434 h 95.70065 c 2.4e-4,0 4.6e-4,9e-5 6.1e-4,2.4e-4 1.5e-4,1.6e-4 2.4e-4,3.7e-4 2.4e-4,5.8e-4 l -8.5e-4,27.1644 c 0,3.00067 -2.4325,5.4332 -5.43317,5.4332 h -95.70068 v 0 c -4.5e-4,0 -8.5e-4,-3.7e-4 -8.5e-4,-8.6e-4 l 8.5e-4,-27.16439 v 0 c 0,-3.00067 2.43253,-5.43317 5.4332,-5.43317 z"
       fill-rule="evenodd"
       id="path557" />
    <path
       stroke="#434343"
       stroke-width="2"
       stroke-linejoin="round"
       stroke-linecap="butt"
       d="m 383.98962,357.35434 h 95.70065 c 2.4e-4,0 4.6e-4,9e-5 6.1e-4,2.4e-4 1.5e-4,1.6e-4 2.4e-4,3.7e-4 2.4e-4,5.8e-4 l -8.5e-4,27.1644 c 0,3.00067 -2.4325,5.4332 -5.43317,5.4332 h -95.70068 v 0 c -4.5e-4,0 -8.5e-4,-3.7e-4 -8.5e-4,-8.6e-4 l 8.5e-4,-27.16439 v 0 c 0,-3.00067 2.43253,-5.43317 5.4332,-5.43317 z"
       fill-rule="evenodd"
       id="path559" />
    <path
       fill="#000000"
       d="m 400.44464,376.37042 q -0.25,2.09375 -1.5625,3.25 -1.29688,1.14063 -3.46875,1.14063 -2.34375,0 -3.76563,-1.6875 -1.42187,-1.6875 -1.42187,-4.51563 v -1.26562 q 0,-1.85938 0.65625,-3.25 0.67187,-1.40625 1.875,-2.15625 1.21875,-0.76563 2.8125,-0.76563 2.10937,0 3.39062,1.1875 1.28125,1.17188 1.48438,3.26563 h -1.76563 q -0.21875,-1.57813 -0.98437,-2.28125 -0.76563,-0.71875 -2.125,-0.71875 -1.67188,0 -2.625,1.23437 -0.95313,1.23438 -0.95313,3.53125 v 1.28125 q 0,2.15625 0.89063,3.4375 0.90625,1.26563 2.53125,1.26563 1.45312,0 2.23437,-0.65625 0.78125,-0.65625 1.03125,-2.29688 z m 3.95544,4.20313 h -1.6875 v -14 h 1.6875 z m 8.77744,-0.96875 q -0.98438,1.15625 -2.89063,1.15625 -1.57812,0 -2.40625,-0.92188 -0.8125,-0.92187 -0.82812,-2.70312 v -6.42188 h 1.6875 v 6.375 q 0,2.23438 1.82812,2.23438 1.92188,0 2.5625,-1.4375 v -7.17188 h 1.6875 v 9.85938 h -1.60937 z m 9.94086,-1.64063 q 0,-0.6875 -0.51563,-1.0625 -0.51562,-0.375 -1.79687,-0.64062 -1.28125,-0.28125 -2.03125,-0.65625 -0.75,-0.39063 -1.10938,-0.92188 -0.35937,-0.53125 -0.35937,-1.26562 0,-1.20313 1.01562,-2.03125 1.03125,-0.84375 2.625,-0.84375 1.67188,0 2.71875,0.85937 1.04688,0.85938 1.04688,2.21875 h -1.6875 q 0,-0.70312 -0.59375,-1.20312 -0.59375,-0.5 -1.48438,-0.5 -0.92187,0 -1.4375,0.40625 -0.51562,0.39062 -0.51562,1.04687 0,0.60938 0.48437,0.92188 0.48438,0.3125 1.73438,0.59375 1.26562,0.28125 2.04687,0.67187 0.78125,0.39063 1.15625,0.9375 0.39063,0.54688 0.39063,1.34375 0,1.32813 -1.0625,2.125 -1.04688,0.79688 -2.73438,0.79688 -1.1875,0 -2.10937,-0.42188 -0.90625,-0.42187 -1.42188,-1.17187 -0.51562,-0.75 -0.51562,-1.625 h 1.6875 q 0.0469,0.84375 0.67187,1.34375 0.64063,0.5 1.6875,0.5 0.95313,0 1.53125,-0.39063 0.57813,-0.39062 0.57813,-1.03125 z m 6.1665,-9.64062 v 2.39062 h 1.84375 v 1.3125 h -1.84375 v 6.10938 q 0,0.59375 0.23438,0.89062 0.25,0.29688 0.84375,0.29688 0.29687,0 0.8125,-0.10938 v 1.35938 q -0.67188,0.1875 -1.29688,0.1875 -1.125,0 -1.70312,-0.6875 -0.57813,-0.6875 -0.57813,-1.9375 v -6.10938 h -1.79687 v -1.3125 h 1.79687 v -2.39062 z m 7.89114,12.4375 q -2,0 -3.26562,-1.3125 -1.25,-1.32813 -1.25,-3.53125 v -0.3125 q 0,-1.46875 0.5625,-2.60938 0.5625,-1.15625 1.5625,-1.79687 1.01562,-0.65625 2.1875,-0.65625 1.92187,0 2.98437,1.26562 1.0625,1.26563 1.0625,3.625 v 0.6875 h -6.67187 q 0.0312,1.46875 0.84375,2.375 0.82812,0.89063 2.07812,0.89063 0.89063,0 1.51563,-0.35938 0.625,-0.375 1.07812,-0.96875 l 1.03125,0.79688 q -1.23437,1.90625 -3.71875,1.90625 z m -0.20312,-8.84375 q -1.01563,0 -1.71875,0.75 -0.6875,0.73437 -0.84375,2.07812 h 4.9375 v -0.125 q -0.0781,-1.28125 -0.70313,-1.98437 -0.60937,-0.71875 -1.67187,-0.71875 z m 10.77441,0.3125 q -0.39062,-0.0625 -0.84375,-0.0625 -1.65625,0 -2.25,1.40625 v 7 h -1.67187 v -9.85938 h 1.64062 l 0.0156,1.14063 q 0.82812,-1.3125 2.35937,-1.3125 0.48438,0 0.75,0.125 z m 3.6879,8.34375 h -1.75 v -13.26563 h 1.75 z m 4.93335,-5.1875 v 5.1875 h -1.73438 v -13.26563 h 4.89063 q 2.17187,0 3.40625,1.10938 1.23437,1.10937 1.23437,2.95312 0,1.92188 -1.21875,2.96875 -1.20312,1.04688 -3.45312,1.04688 z m 0,-1.4375 h 3.15625 q 1.39062,0 2.14062,-0.65625 0.75,-0.65625 0.75,-1.90625 0,-1.1875 -0.75,-1.89063 -0.75,-0.71875 -2.04687,-0.75 h -3.25 z"
       fill-rule="nonzero"
       id="path561" />
    <path
       fill="#000000"
       fill-opacity="0"
       d="m 429.12335,357.35434 18.99213,-64.56693"
       fill-rule="evenodd"
       id="path563" />
    <path
       stroke="#00ff00"
       stroke-width="4"
       stroke-linejoin="round"
       stroke-linecap="butt"
       d="m 429.12335,357.35434 12.21954,-41.54236"
       fill-rule="evenodd"
       id="path565" />
    <path
       fill="#00ff00"
       stroke="#00ff00"
       stroke-width="4"
       stroke-linecap="butt"
       d="m 447.6813,317.67642 -1.21597,-19.27908 -11.46085,15.55023 z"
       fill-rule="evenodd"
       id="path567" />
    <path
       fill="#000000"
       fill-opacity="0"
       d="m 592.83466,265.6063 -132.189,100.72443"
       fill-rule="evenodd"
       id="path569" />
    <path
       stroke="#00ff00"
       stroke-width="4"
       stroke-linejoin="round"
       stroke-linecap="butt"
       d="M 592.83466,265.6063 479.73542,351.78486"
       fill-rule="evenodd"
       id="path571" />
    <path
       fill="#00ff00"
       stroke="#00ff00"
       stroke-width="4"
       stroke-linecap="butt"
       d="m 475.73108,346.52966 -10.43417,16.25693 18.44281,-5.74655 z"
       fill-rule="evenodd"
       id="path573" />
    <path
       fill="#f4cccc"
       d="m 520.96063,240.58267 h 63.53265 l 8.34137,8.34138 v 41.70586 h -71.87402 z"
       fill-rule="evenodd"
       id="path575" />
    <path
       stroke="#434343"
       stroke-width="1"
       stroke-linejoin="round"
       stroke-linecap="butt"
       d="m 520.96063,240.58267 h 63.53265 l 8.34137,8.34138 v 41.70586 h -71.87402 z"
       fill-rule="evenodd"
       id="path577" />
    <path
       fill="#000000"
       d="m 539.5544,266.86087 q 0,2.25 -1.03125,3.625 -1.01563,1.375 -2.78125,1.375 -1.79688,0 -2.82813,-1.14063 v 4.75 h -1.67187 v -13.65625 h 1.53125 l 0.0781,1.09375 q 1.03125,-1.26562 2.85938,-1.26562 1.78125,0 2.8125,1.34375 1.03125,1.32812 1.03125,3.71875 z m -1.67188,-0.20313 q 0,-1.65625 -0.71875,-2.625 -0.70312,-0.96875 -1.95312,-0.96875 -1.53125,0 -2.29688,1.35938 v 4.70312 q 0.76563,1.35938 2.32813,1.35938 1.20312,0 1.92187,-0.95313 0.71875,-0.96875 0.71875,-2.875 z m 3.37305,0 q 0,-1.45312 0.5625,-2.60937 0.57813,-1.15625 1.59375,-1.78125 1.01563,-0.625 2.3125,-0.625 2.01563,0 3.25,1.39062 1.25,1.39063 1.25,3.70313 v 0.125 q 0,1.4375 -0.54687,2.57812 -0.54688,1.14063 -1.57813,1.78125 -1.01562,0.64063 -2.35937,0.64063 -2,0 -3.25,-1.39063 -1.23438,-1.40625 -1.23438,-3.70312 z m 1.6875,0.20313 q 0,1.64062 0.76563,2.64062 0.76562,0.98438 2.03125,0.98438 1.29687,0 2.04687,-1 0.75,-1.01563 0.75,-2.82813 0,-1.625 -0.76562,-2.625 -0.76563,-1.01562 -2.04688,-1.01562 -1.25,0 -2.01562,1 -0.76563,0.98437 -0.76563,2.84375 z m 8.98364,-0.20313 q 0,-2.26562 1.07813,-3.64062 1.07812,-1.375 2.8125,-1.375 1.73437,0 2.75,1.17187 v -5.14062 h 1.6875 v 14 h -1.54688 l -0.0937,-1.0625 q -1,1.25 -2.8125,1.25 -1.70312,0 -2.79687,-1.40625 -1.07813,-1.40625 -1.07813,-3.65625 z m 1.6875,0.20313 q 0,1.67187 0.6875,2.625 0.70313,0.9375 1.92188,0.9375 1.60937,0 2.34375,-1.4375 v -4.53125 q -0.76563,-1.39063 -2.32813,-1.39063 -1.23437,0 -1.9375,0.95313 -0.6875,0.95312 -0.6875,2.84375 z"
       fill-rule="nonzero"
       id="path579" />
    <path
       fill="#000000"
       fill-opacity="0"
       d="m 306.01312,450.76642 81.07086,-62.70868"
       fill-rule="evenodd"
       id="path581" />
    <path
       stroke="#00ff00"
       stroke-width="4"
       stroke-linejoin="round"
       stroke-linecap="butt"
       d="m 306.01312,450.76642 62.08716,-48.02469"
       fill-rule="evenodd"
       id="path583" />
    <path
       fill="#00ff00"
       stroke="#00ff00"
       stroke-width="4"
       stroke-linecap="butt"
       d="m 372.1426,407.9677 10.31601,-16.33221 -18.40067,5.88021 z"
       fill-rule="evenodd"
       id="path585" />
    <path
       fill="#f4cccc"
       d="m 252.73753,436.23883 h 63.53264 l 8.34137,8.3414 v 41.70587 h -71.87401 z"
       fill-rule="evenodd"
       id="path587" />
    <path
       stroke="#434343"
       stroke-width="1"
       stroke-linejoin="round"
       stroke-linecap="butt"
       d="m 252.73753,436.23883 h 63.53264 l 8.34137,8.3414 v 41.70587 h -71.87401 z"
       fill-rule="evenodd"
       id="path589" />
    <path
       fill="#000000"
       d="m 271.33127,462.51703 q 0,2.25 -1.03125,3.625 -1.01562,1.375 -2.78125,1.375 -1.79687,0 -2.82812,-1.14063 v 4.75 h -1.67188 v -13.65625 h 1.53125 l 0.0781,1.09375 q 1.03125,-1.26562 2.85937,-1.26562 1.78125,0 2.8125,1.34375 1.03125,1.32812 1.03125,3.71875 z m -1.67187,-0.20313 q 0,-1.65625 -0.71875,-2.625 -0.70313,-0.96875 -1.95313,-0.96875 -1.53125,0 -2.29687,1.35938 v 4.70312 q 0.76562,1.35938 2.32812,1.35938 1.20313,0 1.92188,-0.95313 0.71875,-0.96875 0.71875,-2.875 z m 3.37307,0 q 0,-1.45312 0.5625,-2.60937 0.57813,-1.15625 1.59375,-1.78125 1.01563,-0.625 2.3125,-0.625 2.01563,0 3.25,1.39062 1.25,1.39063 1.25,3.70313 v 0.125 q 0,1.4375 -0.54687,2.57812 -0.54688,1.14063 -1.57813,1.78125 -1.01562,0.64063 -2.35937,0.64063 -2,0 -3.25,-1.39063 -1.23438,-1.40625 -1.23438,-3.70312 z m 1.6875,0.20313 q 0,1.64062 0.76563,2.64062 0.76562,0.98438 2.03125,0.98438 1.29687,0 2.04687,-1 0.75,-1.01563 0.75,-2.82813 0,-1.625 -0.76562,-2.625 -0.76563,-1.01562 -2.04688,-1.01562 -1.25,0 -2.01562,1 -0.76563,0.98437 -0.76563,2.84375 z m 8.98365,-0.20313 q 0,-2.26562 1.07812,-3.64062 1.07813,-1.375 2.8125,-1.375 1.73438,0 2.75,1.17187 v -5.14062 h 1.6875 v 14 h -1.54687 l -0.0937,-1.0625 q -1,1.25 -2.8125,1.25 -1.70313,0 -2.79688,-1.40625 -1.07812,-1.40625 -1.07812,-3.65625 z m 1.6875,0.20313 q 0,1.67187 0.6875,2.625 0.70312,0.9375 1.92187,0.9375 1.60938,0 2.34375,-1.4375 v -4.53125 q -0.76562,-1.39063 -2.32812,-1.39063 -1.23438,0 -1.9375,0.95313 -0.6875,0.95312 -0.6875,2.84375 z"
       fill-rule="nonzero"
       id="path591" />
    <path
       fill="#000000"
       fill-opacity="0"
       d="M 589.3858,46.170605 575.59057,160.34382"
       fill-rule="evenodd"
       id="path593" />
    <path
       stroke="#00ff00"
       stroke-width="4"
       stroke-linejoin="round"
       stroke-linecap="butt"
       d="M 589.3858,46.170605 578.46948,136.51713"
       fill-rule="evenodd"
       id="path595" />
    <path
       fill="#00ff00"
       stroke="#00ff00"
       stroke-width="4"
       stroke-linecap="butt"
       d="m 571.9103,135.7246 4.38171,18.81386 8.7367,-17.22879 z"
       fill-rule="evenodd"
       id="path597" />
    <path
       fill="#000000"
       fill-opacity="0"
       d="M 556.7874,194.97638 499.937,258.50394"
       fill-rule="evenodd"
       id="path599" />
    <path
       stroke="#00ff00"
       stroke-width="4"
       stroke-linejoin="round"
       stroke-linecap="butt"
       d="m 556.7874,194.97638 -40.84576,45.64317"
       fill-rule="evenodd"
       id="path601" />
    <path
       fill="#00ff00"
       stroke="#00ff00"
       stroke-width="4"
       stroke-linecap="butt"
       d="m 511.01828,236.21364 -7.18173,17.93275 17.02844,-9.12095 z"
       fill-rule="evenodd"
       id="path603" />
    <path
       fill="#000000"
       fill-opacity="0"
       d="M 525.0236,176.64305 242.50392,244.61154"
       fill-rule="evenodd"
       id="path605" />
    <path
       stroke="#00ff00"
       stroke-width="4"
       stroke-linejoin="round"
       stroke-linecap="butt"
       d="M 525.0236,176.64305 265.83814,238.9978"
       fill-rule="evenodd"
       id="path607" />
    <path
       fill="#00ff00"
       stroke="#00ff00"
       stroke-width="4"
       stroke-linecap="butt"
       d="m 264.29276,232.57416 -16.10342,10.6696 19.19421,2.1777 z"
       fill-rule="evenodd"
       id="path609" />
    <path
       fill="#000000"
       fill-opacity="0"
       d="M 267.3701,328.50656 228.28348,261.0105"
       fill-rule="evenodd"
       id="path611" />
    <path
       stroke="#00ff00"
       stroke-width="4"
       stroke-linejoin="round"
       stroke-linecap="butt"
       d="M 267.3701,328.50656 240.31065,281.77942"
       fill-rule="evenodd"
       id="path613" />
    <path
       fill="#00ff00"
       stroke="#00ff00"
       stroke-width="4"
       stroke-linecap="butt"
       d="m 246.02808,278.46844 -14.81419,-12.39758 3.3793,19.01947 z"
       fill-rule="evenodd"
       id="path615" />
    <path
       fill="#000000"
       fill-opacity="0"
       d="M 305.17847,332.9029 444.58005,267.42258"
       fill-rule="evenodd"
       id="path617" />
    <path
       stroke="#00ff00"
       stroke-width="4"
       stroke-linejoin="round"
       stroke-linecap="butt"
       d="M 305.17847,332.9029 422.85715,277.62635"
       fill-rule="evenodd"
       id="path619" />
    <path
       fill="#00ff00"
       stroke="#00ff00"
       stroke-width="4"
       stroke-linecap="butt"
       d="m 425.66617,283.60638 13.62109,-13.69766 -19.23907,1.73755 z"
       fill-rule="evenodd"
       id="path621" />
    <path
       fill="#b6d7a8"
       d="m 222.23633,328.50656 h 95.70068 c 2.1e-4,0 4.3e-4,9e-5 5.8e-4,2.4e-4 1.8e-4,1.6e-4 2.4e-4,3.7e-4 2.4e-4,6.1e-4 l -8.2e-4,27.1644 c 0,3.00064 -2.43253,5.43317 -5.4332,5.43317 h -95.70067 v 0 c -4.5e-4,0 -8.4e-4,-3.7e-4 -8.4e-4,-8.2e-4 l 8.4e-4,-27.16443 v 0 c 0,-3.00064 2.43253,-5.43317 5.43319,-5.43317 z"
       fill-rule="evenodd"
       id="path623" />
    <path
       stroke="#434343"
       stroke-width="2"
       stroke-linejoin="round"
       stroke-linecap="butt"
       d="m 222.23633,328.50656 h 95.70068 c 2.1e-4,0 4.3e-4,9e-5 5.8e-4,2.4e-4 1.8e-4,1.6e-4 2.4e-4,3.7e-4 2.4e-4,6.1e-4 l -8.2e-4,27.1644 c 0,3.00064 -2.43253,5.43317 -5.4332,5.43317 h -95.70067 v 0 c -4.5e-4,0 -8.4e-4,-3.7e-4 -8.4e-4,-8.2e-4 l 8.4e-4,-27.16443 v 0 c 0,-3.00064 2.43253,-5.43317 5.43319,-5.43317 z"
       fill-rule="evenodd"
       id="path625" />
    <path
       fill="#000000"
       d="m 237.45697,350.66577 h -1.5 l -5.73438,-8.76563 v 8.76563 h -1.5 v -11.375 h 1.5 l 5.75,8.79687 v -8.79687 h 1.48438 z m 2.0625,-4.3125 q 0,-1.23438 0.48437,-2.21875 0.48438,-1 1.35938,-1.53125 0.875,-0.54688 1.98437,-0.54688 1.73438,0 2.79688,1.20313 1.0625,1.1875 1.0625,3.17187 v 0.0937 q 0,1.23438 -0.46875,2.21875 -0.46875,0.98438 -1.35938,1.53125 -0.875,0.54688 -2.01562,0.54688 -1.71875,0 -2.78125,-1.1875 -1.0625,-1.20313 -1.0625,-3.17188 z m 1.45312,0.17187 q 0,1.40625 0.64063,2.26563 0.65625,0.84375 1.75,0.84375 1.10937,0 1.75,-0.85938 0.65625,-0.85937 0.65625,-2.42187 0,-1.39063 -0.67188,-2.25 -0.65625,-0.85938 -1.75,-0.85938 -1.0625,0 -1.71875,0.85938 -0.65625,0.84375 -0.65625,2.42187 z m 7.70313,-0.15625 q 0,-1.95312 0.92187,-3.125 0.92188,-1.1875 2.40625,-1.1875 1.48438,0 2.35938,1.01563 v -4.40625 h 1.4375 v 12 h -1.32813 l -0.0625,-0.90625 q -0.875,1.0625 -2.42187,1.0625 -1.46875,0 -2.39063,-1.20313 -0.92187,-1.20312 -0.92187,-3.14062 z m 1.4375,0.15625 q 0,1.4375 0.59375,2.25 0.59375,0.8125 1.64062,0.8125 1.375,0 2.01563,-1.23437 v -3.875 q -0.65625,-1.20313 -2,-1.20313 -1.0625,0 -1.65625,0.82813 -0.59375,0.8125 -0.59375,2.42187 z m 11.44531,4.29688 q -1.71875,0 -2.79687,-1.125 -1.07813,-1.14063 -1.07813,-3.03125 v -0.26563 q 0,-1.25 0.46875,-2.23437 0.48438,-1 1.34375,-1.54688 0.875,-0.5625 1.875,-0.5625 1.65625,0 2.5625,1.09375 0.92188,1.07813 0.92188,3.09375 v 0.60938 h -5.73438 q 0.0312,1.25 0.73438,2.01562 0.70312,0.76563 1.78125,0.76563 0.76562,0 1.29687,-0.3125 0.53125,-0.3125 0.92188,-0.82813 l 0.89062,0.6875 q -1.0625,1.64063 -3.1875,1.64063 z m -0.1875,-7.57813 q -0.875,0 -1.46875,0.64063 -0.59375,0.625 -0.73437,1.78125 h 4.23437 v -0.10938 q -0.0625,-1.10937 -0.59375,-1.70312 -0.53125,-0.60938 -1.4375,-0.60938 z m 6.88281,2.96875 v 4.45313 h -1.5 v -11.375 h 4.1875 q 1.875,0 2.92188,0.95312 1.0625,0.95313 1.0625,2.51563 0,1.65625 -1.03125,2.5625 -1.03125,0.89062 -2.96875,0.89062 z m 0,-1.23437 h 2.6875 q 1.20313,0 1.84375,-0.5625 0.64063,-0.5625 0.64063,-1.64063 0,-1.01562 -0.64063,-1.625 -0.64062,-0.60937 -1.75,-0.625 h -2.78125 z m 7.88282,1.375 q 0,-1.23438 0.48437,-2.21875 0.48438,-1 1.35938,-1.53125 0.875,-0.54688 1.98437,-0.54688 1.73438,0 2.79688,1.20313 1.0625,1.1875 1.0625,3.17187 v 0.0937 q 0,1.23438 -0.46875,2.21875 -0.46875,0.98438 -1.35938,1.53125 -0.875,0.54688 -2.01562,0.54688 -1.71875,0 -2.78125,-1.1875 -1.0625,-1.20313 -1.0625,-3.17188 z m 1.45312,0.17187 q 0,1.40625 0.64063,2.26563 0.65625,0.84375 1.75,0.84375 1.10937,0 1.75,-0.85938 0.65625,-0.85937 0.65625,-2.42187 0,-1.39063 -0.67188,-2.25 -0.65625,-0.85938 -1.75,-0.85938 -1.0625,0 -1.71875,0.85938 -0.65625,0.84375 -0.65625,2.42187 z m 12.14063,-3.01562 q -0.32813,-0.0625 -0.71875,-0.0625 -1.42188,0 -1.92188,1.21875 v 6 h -1.45312 v -8.45313 h 1.40625 l 0.0312,0.96875 q 0.70312,-1.125 2.01562,-1.125 0.42188,0 0.64063,0.10938 z m 3.67968,-3.34375 v 2.04687 h 1.57813 v 1.10938 h -1.57813 v 5.25 q 0,0.5 0.20313,0.76562 0.21875,0.25 0.71875,0.25 0.25,0 0.6875,-0.0937 v 1.17188 q -0.5625,0.15625 -1.10938,0.15625 -0.96875,0 -1.46875,-0.57813 -0.48437,-0.59375 -0.48437,-1.67187 v -5.25 h -1.53125 v -1.10938 h 1.53125 v -2.04687 z m 8.17969,8.25 q 0,-0.57813 -0.4375,-0.90625 -0.4375,-0.32813 -1.54687,-0.5625 -1.09375,-0.23438 -1.73438,-0.5625 -0.64062,-0.32813 -0.95312,-0.78125 -0.3125,-0.45313 -0.3125,-1.07813 0,-1.03125 0.875,-1.75 0.89062,-0.71875 2.25,-0.71875 1.4375,0 2.32812,0.75 0.90625,0.73438 0.90625,1.89063 h -1.45312 q 0,-0.59375 -0.51563,-1.01563 -0.5,-0.4375 -1.26562,-0.4375 -0.78125,0 -1.23438,0.34375 -0.4375,0.34375 -0.4375,0.89063 0,0.53125 0.40625,0.79687 0.42188,0.26563 1.5,0.51563 1.07813,0.23437 1.75,0.57812 0.67188,0.32813 1,0.79688 0.32813,0.46875 0.32813,1.15625 0,1.125 -0.90625,1.8125 -0.90625,0.6875 -2.35938,0.6875 -1.01562,0 -1.79687,-0.35938 -0.78125,-0.35937 -1.21875,-1 -0.4375,-0.65625 -0.4375,-1.40625 h 1.4375 q 0.0469,0.73438 0.57812,1.15625 0.54688,0.42188 1.4375,0.42188 0.82813,0 1.3125,-0.32813 0.5,-0.32812 0.5,-0.89062 z"
       fill-rule="nonzero"
       id="path627" />
    <path
       fill="#000000"
       fill-opacity="0"
       d="m 41.02887,270.20996 178.89764,60.18899"
       fill-rule="evenodd"
       id="path629" />
    <path
       stroke="#00ff00"
       stroke-width="4"
       stroke-linejoin="round"
       stroke-linecap="butt"
       d="m 41.02887,270.20996 156.15056,52.53589"
       fill-rule="evenodd"
       id="path631" />
    <path
       fill="#00ff00"
       stroke="#00ff00"
       stroke-width="4"
       stroke-linecap="butt"
       d="m 195.07262,329.00784 19.31155,-0.47357 -15.09793,-12.05045 z"
       fill-rule="evenodd"
       id="path633" />
  </g>
</svg>
